<svg width="126" height="20" viewBox="0 0 126 20" fill="none" xmlns="http://www.w3.org/2000/svg">
<g clip-path="url(#clip0)">
<path d="M63.3279 6.79183C63.4049 5.29889 63.9357 4.07889 64.7652 3.12712V1.85889H63.6627C61.4344 1.85889 59.5479 2.72006 58.4512 4.66595H58.387V2.073H52.6715V17.8859H58.3882V11.5024C58.3882 8.79301 59.1745 6.72712 62.3467 6.72712C62.692 6.72948 63.0152 6.74948 63.3279 6.79183Z" fill="white"/>
<path d="M106.61 6.73438C107.085 5.33673 107.855 4.09203 108.856 3.0932V1.85791H107.756C105.526 1.85791 103.642 2.71909 102.54 4.66379H102.478V2.0732H96.7587V17.8861H102.478V11.5026C102.478 8.79321 103.266 6.72732 106.439 6.72732L106.61 6.73438Z" fill="white"/>
<path d="M74.9373 6.14088C74.0553 5.67853 72.828 5.37029 71.8515 5.37029C71.1958 5.37029 70.063 5.64559 70.063 6.44912C70.063 7.52912 71.8515 7.68206 72.6425 7.8397C75.3072 8.36206 77.3232 9.59617 77.3232 12.5209C77.3232 16.6809 73.458 18.4126 69.7165 18.4126C67.4217 18.4126 65.1642 17.7644 63.2135 16.5926L65.2867 12.675C66.4475 13.4797 68.3958 14.2785 69.8098 14.2785C70.5332 14.2785 71.6007 13.9409 71.6007 13.0774C71.6007 11.8444 69.8098 11.7797 68.0167 11.3185C66.2282 10.8562 64.4397 9.995 64.4397 7.15853C64.4397 3.27382 68.0167 1.55029 71.5423 1.55029C73.3647 1.55029 75.1882 1.82676 76.8495 2.56676L74.9373 6.14088Z" fill="white"/>
<path d="M126 17.8857H120.283V16.1269H120.22C119.215 17.6986 117.231 18.4069 115.349 18.4069C110.571 18.4069 107.212 14.4916 107.212 9.95982C107.212 5.43276 110.511 1.54688 115.285 1.54688C117.138 1.54688 119.089 2.22452 120.282 3.6104V2.07276H125.998L126 17.8857ZM113.119 9.99393C113.119 11.9963 114.472 13.5375 116.794 13.5375C119.118 13.5375 120.465 11.9986 120.465 9.99393C120.465 8.05158 119.118 6.41864 116.794 6.41864C114.472 6.41982 113.119 8.05158 113.119 9.99393Z" fill="white"/>
<path d="M95.8568 10.9209H83.8203C83.8203 13.1997 85.0488 14.4315 87.4043 14.4315C88.6293 14.4315 89.5078 14.0326 90.1378 12.9832H95.6375C94.7263 16.7138 91.112 18.4091 87.437 18.4091C82.0995 18.4091 78.1095 15.4479 78.1095 9.995C78.1095 4.72441 81.781 1.55029 87.0275 1.55029C92.6193 1.55029 95.8592 4.94206 95.8592 10.3338L95.8568 10.9209ZM90.5462 7.68206C90.2627 6.17147 88.8487 5.18559 87.311 5.18559C85.6438 5.18559 84.2672 6.04559 83.916 7.68206H90.5462Z" fill="white"/>
<path d="M34.4878 9.71905C34.482 9.58258 34.4727 9.44964 34.4622 9.31435C34.4622 9.31435 34.4622 9.31317 34.4622 9.31199C34.4622 9.31199 34.4622 9.31082 34.4622 9.30964C34.3338 7.84258 33.8532 6.46964 33.0377 5.22964C32.6737 4.6767 32.2572 4.17435 31.7917 3.72376C31.1115 3.06376 30.324 2.51788 29.4362 2.08611C28.1003 1.44258 26.6245 1.11788 25.0495 1.11788C24.8955 1.11788 24.7345 1.12023 24.5723 1.12611C23.4663 1.1767 22.3965 1.38846 21.3908 1.76141C20.377 2.13082 19.4938 2.61905 18.7717 3.20493C18.6247 3.32258 18.4648 3.46729 18.2933 3.62611L18.1697 3.74846L18.0005 3.92964H18.0017H18.0028L17.9235 4.00846L17.885 4.05082L17.6832 4.26493C17.5338 4.43435 17.3915 4.60376 17.2585 4.76964L17.2573 4.76729L17.2527 4.76258C16.9762 5.10141 16.7207 5.45199 16.5328 5.76729C16.4057 5.96964 16.2808 6.17788 16.1618 6.38611L14.5133 9.74729L14.5157 9.74964L14.4293 9.92023L14.2473 10.292C13.8857 11.0296 13.4983 11.7649 13.0655 12.372C12.1007 13.4391 11.0098 13.9614 9.6075 13.9614C9.5095 13.9614 9.40917 13.9567 9.3065 13.9508C8.46183 13.9167 7.73733 13.7155 7.0945 13.332C7.02567 13.2908 6.95917 13.2485 6.895 13.2049C6.37 12.8532 5.9675 12.4014 5.6665 11.8379C5.327 11.1991 5.1765 10.5461 5.1975 9.85435C5.19867 9.83552 5.19983 9.81905 5.19983 9.80376C5.24533 8.70258 5.66183 7.84611 6.50067 7.10611C6.70483 6.92846 6.91833 6.77788 7.14117 6.64376C7.17267 6.62493 7.20417 6.60729 7.23567 6.59082C7.85867 6.24846 8.568 6.07788 9.38117 6.07788L9.63433 6.08493C10.9258 6.13435 11.9222 6.54141 12.7167 7.33552L15.2087 2.82376C14.6125 2.42141 13.9393 2.07552 13.1973 1.79435C13.1693 1.78376 13.1402 1.77199 13.111 1.76258C13.0223 1.73082 12.9348 1.69788 12.8438 1.66846C12.0552 1.40258 11.228 1.23905 10.3763 1.16493C10.3553 1.16141 10.332 1.15905 10.311 1.1567C10.1803 1.14846 10.0473 1.13199 9.91667 1.12611C9.77433 1.12023 9.63083 1.11788 9.49083 1.1167H9.41033C7.8435 1.12258 6.3875 1.44611 5.05633 2.08729C3.56533 2.81199 2.35667 3.86729 1.46067 5.22729C0.567001 6.58729 0.0793346 8.0967 0.00933458 9.7167C0.00350125 9.85552 1.24467e-06 9.99317 1.24467e-06 10.1285C-0.00116542 12.3943 0.817834 14.3873 2.4465 16.0602C4.14633 17.8155 6.35717 18.7614 9.01133 18.8732C9.18167 18.8802 9.34967 18.8849 9.51767 18.8849C11.0192 18.8849 12.4087 18.6155 13.6547 18.0767C13.9662 17.9426 14.2683 17.7849 14.5775 17.6096C14.7455 17.512 14.9042 17.4085 15.0617 17.2979L15.1783 17.2191L15.3743 17.0838C15.61 16.9132 15.8305 16.7285 16.0452 16.532L16.1198 16.4602C16.2458 16.3391 16.3718 16.2167 16.4908 16.0908L16.9377 15.5814L17.108 15.3661L17.1873 15.2485L17.2667 15.1332C17.9305 14.0085 20.0912 9.91552 20.0912 9.91552V9.90729L20.2195 9.65788L20.3268 9.46258C20.6453 8.87788 20.8752 8.46258 21.1797 8.02611L21.1878 8.01317C21.8983 6.97435 23.1198 6.23435 24.5595 6.10964C26.9745 5.90023 29.0908 7.50023 29.2857 9.68376C29.4793 11.8673 27.678 13.8073 25.263 14.0179C24.7602 14.0614 24.2713 14.0273 23.8105 13.9249L23.7988 13.9296C22.0267 13.5579 20.8985 12.2543 20.342 11.672L18.018 15.9814C18.018 15.9814 18.7402 16.7155 19.2348 17.0826C19.7307 17.4485 20.3712 17.8085 20.8822 18.032C22.1223 18.5661 23.471 18.8861 24.9608 18.8861C25.1335 18.8861 25.0985 18.8861 25.2782 18.8791C27.93 18.7673 30.2937 17.7426 31.9982 15.9873C33.6128 14.3202 34.489 12.4167 34.4972 10.1638V10.0967C34.496 9.97199 34.4925 9.84611 34.4878 9.71905Z" fill="white"/>
<path d="M43.3778 18.4199C42.1727 18.4199 41.0795 18.2787 40.0983 17.9964C39.1172 17.714 38.2795 17.2682 37.5853 16.6564C36.8888 16.0446 36.3522 15.2658 35.9742 14.3211C35.5962 13.3764 35.4072 12.2376 35.4072 10.9105V2.06934H40.922V10.8399C40.922 11.834 41.1577 12.554 41.6278 13.0035C42.0992 13.454 42.6977 13.6787 43.4233 13.6787C44.1653 13.6787 44.7673 13.4693 45.2317 13.0493C45.6937 12.6293 45.927 11.9329 45.927 10.954V2.06934H51.4418V10.794C51.4418 12.1682 51.2482 13.3364 50.862 14.2976C50.4758 15.2599 49.931 16.0458 49.2298 16.6576C48.5252 17.2693 47.677 17.714 46.6795 17.9976C45.682 18.2788 44.5818 18.4199 43.3778 18.4199Z" fill="white"/>
</g>
<defs>
<clipPath id="clip0">
<rect width="126" height="20" fill="white"/>
</clipPath>
</defs>
</svg>
