<svg width="112" height="26" viewBox="0 0 112 26" fill="none" xmlns="http://www.w3.org/2000/svg">
<g clip-path="url(#clip0)">
<path d="M22.1488 22.1577H18.3032V16.1232C18.3032 14.6843 18.2731 12.8351 16.2923 12.8351C14.287 12.8351 13.9815 14.3959 13.9815 16.0168V22.1569H10.1311V9.74919H13.8296V11.4416H13.8791C14.3959 10.4642 15.6528 9.43638 17.5281 9.43638C21.4289 9.43638 22.1528 12.0047 22.1528 15.3441V22.1569L22.1488 22.1577ZM5.78094 8.0535C5.48704 8.05361 5.196 7.99573 4.9245 7.88319C4.653 7.77064 4.40637 7.60564 4.19874 7.39763C3.99111 7.18962 3.82656 6.9427 3.71451 6.67099C3.60246 6.39929 3.54511 6.10815 3.54575 5.81425C3.54623 5.37189 3.67787 4.9396 3.92402 4.57204C4.17017 4.20448 4.51977 3.91817 4.92864 3.74929C5.3375 3.58041 5.78725 3.53656 6.22103 3.62327C6.65482 3.70999 7.05315 3.92338 7.36566 4.23646C7.67818 4.54954 7.89084 4.94826 7.97677 5.3822C8.0627 5.81614 8.01803 6.26581 7.84841 6.67437C7.67879 7.08292 7.39184 7.43201 7.02383 7.67749C6.65583 7.92297 6.2233 8.05382 5.78094 8.0535V8.0535ZM7.70981 22.1577H3.85125V9.75H7.70981V22.1577ZM24.0792 0H1.9175C0.858812 0 0 0.837687 0 1.87444V24.1264C0 25.1631 0.858812 26.0008 1.9175 26.0008H24.0752C25.1323 26.0008 26 25.1631 26 24.1264V1.87444C26 0.837687 25.1323 0 24.0752 0H24.0792Z" fill="white"/>
</g>
<path d="M38.1446 9.6H40.0886V16.416H44.3006V18H38.1446V9.6ZM53.1508 16.44V18H46.6468V9.6H52.9948V11.16H48.5788V12.984H52.4788V14.496H48.5788V16.44H53.1508ZM61.4896 16.2H57.5896L56.8456 18H54.8536L58.5976 9.6H60.5176L64.2736 18H62.2336L61.4896 16.2ZM60.8776 14.724L59.5456 11.508L58.2136 14.724H60.8776ZM71.7571 18L70.1371 15.66H70.0411H68.3491V18H66.4051V9.6H70.0411C70.7851 9.6 71.4291 9.724 71.9731 9.972C72.5251 10.22 72.9491 10.572 73.2451 11.028C73.5411 11.484 73.6891 12.024 73.6891 12.648C73.6891 13.272 73.5371 13.812 73.2331 14.268C72.9371 14.716 72.5131 15.06 71.9611 15.3L73.8451 18H71.7571ZM71.7211 12.648C71.7211 12.176 71.5691 11.816 71.2651 11.568C70.9611 11.312 70.5171 11.184 69.9331 11.184H68.3491V14.112H69.9331C70.5171 14.112 70.9611 13.984 71.2651 13.728C71.5691 13.472 71.7211 13.112 71.7211 12.648ZM84.1933 9.6V18H82.5973L78.4093 12.9V18H76.4893V9.6H78.0973L82.2733 14.7V9.6H84.1933ZM87.4407 9.6H89.3847V18H87.4407V9.6ZM100.342 9.6V18H98.7462L94.5582 12.9V18H92.6382V9.6H94.2462L98.4222 14.7V9.6H100.342ZM109.266 13.668H111.042V17.076C110.586 17.42 110.058 17.684 109.458 17.868C108.858 18.052 108.254 18.144 107.646 18.144C106.774 18.144 105.99 17.96 105.294 17.592C104.598 17.216 104.05 16.7 103.65 16.044C103.258 15.38 103.062 14.632 103.062 13.8C103.062 12.968 103.258 12.224 103.65 11.568C104.05 10.904 104.602 10.388 105.306 10.02C106.01 9.644 106.802 9.456 107.682 9.456C108.418 9.456 109.086 9.58 109.686 9.828C110.286 10.076 110.79 10.436 111.198 10.908L109.95 12.06C109.35 11.428 108.626 11.112 107.778 11.112C107.242 11.112 106.766 11.224 106.35 11.448C105.934 11.672 105.61 11.988 105.378 12.396C105.146 12.804 105.03 13.272 105.03 13.8C105.03 14.32 105.146 14.784 105.378 15.192C105.61 15.6 105.93 15.92 106.338 16.152C106.754 16.376 107.226 16.488 107.754 16.488C108.314 16.488 108.818 16.368 109.266 16.128V13.668Z" fill="white"/>
<defs>
<clipPath id="clip0">
<rect width="26" height="26" fill="white"/>
</clipPath>
</defs>
</svg>
