<svg width="51" height="51" viewBox="0 0 51 51" fill="none" xmlns="http://www.w3.org/2000/svg">
<g clip-path="url(#clip0)">
<path d="M0.983032 44.5291C0.983032 48.0895 3.86911 50.9752 7.42911 50.9752H44.529C48.0896 50.9752 50.9753 48.0891 50.9753 44.5291V7.42918C50.9753 3.8686 48.0892 0.98291 44.5292 0.98291H7.4293C3.86872 0.98291 0.983032 3.86899 0.983032 7.42899V44.5289V44.5291Z" fill="#563D7C"/>
<path d="M21.7138 23.0964V16.0168H27.9454C28.5391 16.0168 29.1113 16.0662 29.6624 16.1652C30.2135 16.264 30.7011 16.4405 31.125 16.695C31.5488 16.9494 31.888 17.3027 32.1425 17.7548C32.3967 18.2071 32.524 18.7865 32.524 19.4928C32.524 20.7647 32.1425 21.6833 31.3793 22.2484C30.6163 22.8138 29.6413 23.0964 28.4542 23.0964H21.7138ZM15.058 10.8447V41.1135H29.726C31.0827 41.1135 32.4039 40.944 33.6899 40.6048C34.9758 40.2656 36.1204 39.7428 37.1237 39.0363C38.1269 38.3297 38.9254 37.4182 39.5189 36.3019C40.1125 35.1855 40.4091 33.8642 40.4091 32.3381C40.4091 30.4444 39.9498 28.8265 39.0314 27.4842C38.1128 26.1416 36.7208 25.2019 34.8555 24.6649C36.2121 24.015 37.2368 23.1811 37.9293 22.1637C38.6215 21.1463 38.9678 19.8746 38.9678 18.3483C38.9678 16.9352 38.7346 15.7483 38.2683 14.7873C37.8019 13.8265 37.1448 13.0563 36.2969 12.4769C35.4492 11.8975 34.4317 11.4806 33.2446 11.2263C32.0577 10.9719 30.7435 10.8447 29.3021 10.8447H15.058ZM21.7138 35.9414V27.6324H28.9629C30.4042 27.6324 31.563 27.9643 32.4393 28.6287C33.3153 29.2929 33.7535 30.4021 33.7535 31.9565C33.7535 32.748 33.6192 33.3979 33.3507 33.9066C33.0822 34.4153 32.7219 34.8182 32.2696 35.1148C31.8175 35.4116 31.2945 35.6235 30.7011 35.7508C30.1074 35.8778 29.4858 35.9414 28.8357 35.9414H21.7138Z" fill="white"/>
</g>
<defs>
<clipPath id="clip0">
<rect x="0.983032" y="0.98291" width="49.9923" height="49.9923" fill="white"/>
</clipPath>
</defs>
</svg>
