<svg width="54" height="61" viewBox="0 0 54 61" fill="none" xmlns="http://www.w3.org/2000/svg">
<g clip-path="url(#clip0)">
<path d="M53.5933 17.9078C53.5929 16.9017 53.3765 16.0127 52.9389 15.2499C52.509 14.4994 51.8653 13.8705 51.0018 13.3733C43.8741 9.28667 36.7395 5.2125 29.614 1.12168C27.6931 0.0189297 25.8305 0.0593402 23.9238 1.17792C21.0868 2.84141 6.88265 10.9333 2.65001 13.371C0.906888 14.3746 0.0586843 15.9102 0.0582653 17.906C0.055542 26.1245 0.0582653 34.343 0.055542 42.5615C0.055542 43.5455 0.263141 44.4175 0.681482 45.1688C1.11155 45.9418 1.76431 46.588 2.64771 47.0965C6.88055 49.5342 21.0865 57.6255 23.923 59.2896C25.8305 60.4088 27.6931 60.4488 29.6147 59.3458C36.7403 55.2548 43.8753 51.1806 51.0041 47.094C51.8875 46.5857 52.5403 45.9391 52.9703 45.1668C53.388 44.4152 53.5961 43.5435 53.5961 42.5592C53.5961 42.5592 53.5961 26.1266 53.5933 17.9078Z" fill="#A179DC"/>
<path d="M26.9076 30.1538L0.681396 45.169C1.11147 45.942 1.76422 46.5882 2.64762 47.0966C6.88047 49.5344 21.0865 57.6256 23.9229 59.2897C25.8305 60.4089 27.693 60.4489 29.6146 59.346C36.7402 55.2549 43.8753 51.1808 51.004 47.0941C51.8874 46.5859 52.5402 45.9393 52.9703 45.1669L26.9076 30.1538Z" fill="#280068"/>
<path d="M53.5934 17.9084C53.5929 16.9023 53.3765 16.0133 52.9389 15.2505L26.9077 30.1544L52.9703 45.1673C53.3881 44.4158 53.5957 43.544 53.5961 42.5598C53.5961 42.5598 53.5961 26.1271 53.5934 17.9084Z" fill="#390091"/>
<path d="M42.3488 24.541V27.3477H45.1714V24.541H46.5827V27.3477H49.4053V28.751H46.5827V31.5574H49.4053V32.9608H46.5827V35.7674H45.1714V32.9608H42.3488V35.7674H40.9375V32.9608H38.1151V31.5574H40.9375V28.751H38.1151V27.3477H40.9375V24.541H42.3488ZM45.1714 28.7508H42.3488V31.5574H45.1714V28.751V28.7508Z" fill="white"/>
<path d="M26.9654 10.4453C34.3275 10.4453 40.7551 14.4209 44.198 20.3304L44.1645 20.2736L35.5023 25.2328C33.7958 22.3597 30.6674 20.4206 27.0783 20.3806L26.9651 20.38C21.4923 20.38 17.0555 24.7918 17.0555 30.2337C17.0537 31.9489 17.5043 33.6346 18.3624 35.1225C20.0706 38.0877 23.2818 40.0876 26.9654 40.0876C30.6718 40.0876 33.9012 38.0623 35.6005 35.0654L35.5593 35.1373L44.2083 40.1194C40.8031 45.979 34.4634 49.9423 27.187 50.0212L26.9654 50.0225C19.58 50.0225 13.1341 46.0223 9.69982 40.0815C8.02332 37.1814 7.06409 33.8192 7.06409 30.2337C7.06409 19.3049 15.9739 10.4451 26.9651 10.4451L26.9654 10.4453Z" fill="white"/>
</g>
<defs>
<clipPath id="clip0">
<rect x="0.055542" y="0.316406" width="53.6281" height="59.9907" fill="white"/>
</clipPath>
</defs>
</svg>
