<svg width="55" height="61" viewBox="0 0 55 61" fill="none" xmlns="http://www.w3.org/2000/svg">
<g clip-path="url(#clip0)">
<path d="M54.1531 18.1639C54.1527 17.1551 53.9359 16.2638 53.4977 15.4989C53.0672 14.7465 52.4222 14.1162 51.5574 13.6175C44.418 9.52023 37.2716 5.43544 30.1347 1.33399C28.2105 0.228533 26.3449 0.268735 24.435 1.39023C21.5933 3.05831 7.36598 11.1712 3.12643 13.6152C1.38058 14.6213 0.530913 16.1609 0.530494 18.162C0.527771 26.402 0.530494 34.6416 0.527771 42.8817C0.52819 43.8683 0.735789 44.7423 1.15476 45.4959C1.58546 46.2708 2.23926 46.9186 3.12412 47.4285C7.36389 49.8725 21.5931 57.9848 24.4342 59.6533C26.3449 60.7754 28.2105 60.8154 30.1353 59.7096C37.2724 55.6079 44.4192 51.5233 51.5597 47.426C52.4446 46.9163 53.0984 46.2681 53.5291 45.4938C53.9474 44.7402 54.1554 43.8662 54.1559 42.8795C54.1559 42.8795 54.1559 26.4041 54.1531 18.1639Z" fill="#A9B9CB"/>
<path d="M30.0863 1.38691C28.1653 0.284167 26.3028 0.324369 24.396 1.44295C21.559 3.10665 7.35488 11.1985 3.12224 13.6363C1.37912 14.6397 0.530913 16.1753 0.530494 18.1712C0.527771 26.3897 0.530494 34.608 0.527771 42.8268C0.52819 43.8108 0.73537 44.6825 1.15371 45.4341C1.58378 46.2071 2.23654 46.8532 3.11993 47.3617C4.52655 48.1703 5.93422 48.9771 7.34294 49.7822L46.5359 10.8107C41.052 7.67074 35.5666 4.5333 30.0863 1.38691Z" fill="#7F8B99"/>
<path d="M32.884 26.764L41.2296 26.8225C41.2296 23.3649 37.7099 14.8975 27.6188 14.8975C21.1895 14.8975 12.5461 18.9618 12.5461 30.6471C12.5461 42.3322 21.0192 46.1426 27.6188 46.1426C38.3061 46.1426 40.8603 38.7892 40.8603 34.6336L32.8984 34.1809C32.8984 34.1809 33.1115 38.9875 27.5763 38.9875C22.4669 38.9875 21.6143 32.7639 21.6143 30.6471C21.6143 27.4295 22.765 22.2642 27.5763 22.2642C32.3877 22.2642 32.884 26.764 32.884 26.764Z" fill="white"/>
</g>
<defs>
<clipPath id="clip0">
<rect x="0.527771" y="0.316406" width="53.6281" height="59.9907" fill="white"/>
</clipPath>
</defs>
</svg>
