<svg width="55" height="61" viewBox="0 0 55 61" fill="none" xmlns="http://www.w3.org/2000/svg">
<g clip-path="url(#clip0)">
<path d="M54.5039 18.0864C54.5034 17.0803 54.287 16.1913 53.8494 15.4283C53.4196 14.678 52.7758 14.0491 51.9123 13.5519C44.7846 9.46523 37.65 5.39107 30.5246 1.30024C28.6036 0.197497 26.7411 0.237699 24.8343 1.35628C21.9973 3.01998 7.79317 11.1119 3.56053 13.5496C1.81741 14.553 0.969207 16.0886 0.968788 18.0845C0.966064 26.303 0.968788 34.5214 0.966064 42.7401C0.966483 43.7241 1.17366 44.5959 1.592 45.3474C2.02208 46.1204 2.67483 46.7666 3.55823 47.275C7.79108 49.7128 21.9971 57.804 24.8335 59.4681C26.7411 60.5873 28.6036 60.6273 30.5252 59.5242C37.6508 55.4331 44.7859 51.3592 51.9146 47.2725C52.798 46.7643 53.4508 46.1177 53.8808 45.3453C54.2986 44.5938 54.5062 43.722 54.5066 42.7378C54.5066 42.7378 54.5066 26.3051 54.5039 18.0864Z" fill="#5C8DBC"/>
<path d="M27.8183 30.3311L1.59204 45.3462C2.02211 46.1192 2.67487 46.7654 3.55826 47.2739C7.79111 49.7116 21.9971 57.8029 24.8335 59.467C26.7411 60.5862 28.6036 60.6262 30.5252 59.523C37.6509 55.432 44.7859 51.358 51.9147 47.2714C52.7981 46.7631 53.4508 46.1165 53.8809 45.3442L27.8183 30.3311Z" fill="#1A4674"/>
<path d="M20.0503 34.7787C21.5764 37.4279 24.4453 39.2147 27.7363 39.2147C31.0476 39.2147 33.9328 37.4052 35.4512 34.7277L27.8182 30.3311L20.0503 34.7787Z" fill="#1A4674"/>
<path d="M54.5039 18.0859C54.5034 17.0798 54.2871 16.1907 53.8494 15.4277L27.8182 30.3317L53.8809 45.3448C54.2986 44.5932 54.5062 43.7215 54.5066 42.7373C54.5066 42.7373 54.5066 26.3046 54.5039 18.0859Z" fill="#1B598E"/>
<path d="M53.0707 31.4045H51.0341V33.43H48.9971V31.4045H46.9607V29.3796H48.9971V27.3545H51.0341V29.3796H53.0707V31.4045Z" fill="white"/>
<path d="M45.6393 31.4045H43.6029V33.43H41.5663V31.4045H39.5297V29.3796H41.5663V27.3545H43.6029V29.3796H45.6393V31.4045Z" fill="white"/>
<path d="M35.4512 34.7274C33.9329 37.4049 31.0476 39.2145 27.7363 39.2145C24.4453 39.2145 21.5764 37.4276 20.0503 34.7785C19.2837 33.4492 18.8811 31.9432 18.8827 30.4108C18.8827 25.5488 22.8467 21.6074 27.7363 21.6074C31.0062 21.6074 33.86 23.3719 35.3936 25.994L43.1322 21.563C40.0563 16.2834 34.3137 12.7314 27.7363 12.7314C17.9165 12.7314 9.9563 20.6469 9.9563 30.4108C9.9563 33.6141 10.8133 36.618 12.3111 39.209C15.3792 44.5166 21.1382 48.0904 27.7363 48.0904C34.3466 48.0904 40.1146 44.5022 43.1783 39.179L35.4512 34.7274Z" fill="white"/>
</g>
<defs>
<clipPath id="clip0">
<rect x="0.966064" y="0.438232" width="53.6281" height="59.9907" fill="white"/>
</clipPath>
</defs>
</svg>
