<svg width="50" height="70" viewBox="0 0 50 70" fill="none" xmlns="http://www.w3.org/2000/svg">
<g clip-path="url(#clip0)">
<path d="M24.9656 69.8123L4.62072 64.205L0.086853 13.7197H49.9053L45.3668 64.1973L24.9656 69.8123Z" fill="#264DE4"/>
<path d="M41.4813 60.9831L45.3596 17.8477H24.9962V65.5204L41.4813 60.9831Z" fill="#2965F1"/>
<path d="M10.4806 36.5718L11.0395 42.7636H24.9961V36.5718H10.4806Z" fill="#EBEBEB"/>
<path d="M9.35736 24.0396L9.92427 30.2314H24.9962V24.0396H9.35736Z" fill="#EBEBEB"/>
<path d="M24.9961 52.6529L24.9688 52.6601L18.023 50.7981L17.5789 45.8599H11.3182L12.1919 55.582L24.9674 59.1027L24.9961 59.095V52.6529Z" fill="#EBEBEB"/>
<path d="M11.8115 0H19.365V3.13614H14.9704V6.27227H19.3654V9.40822H11.8115V0Z" fill="black"/>
<path d="M20.8759 0H28.4296V2.72706H24.0348V3.27243H28.4296V9.54471H20.8761V6.68096H25.2709V6.13559H20.8757V0H20.8759Z" fill="black"/>
<path d="M29.9405 0H37.4942V2.72706H33.0994V3.27243H37.4942V9.54471H29.9405V6.68096H34.3353V6.13559H29.9407V0H29.9405Z" fill="black"/>
<path d="M39.4719 36.5719L40.5977 24.0396H24.9747V30.2314H33.7628L33.1953 36.5719H24.9747V42.7637H32.6545L31.9304 50.794L24.9745 52.658V59.0997L37.7602 55.5818L37.8539 54.5357L39.3197 38.2346L39.4719 36.5719Z" fill="white"/>
</g>
<defs>
<clipPath id="clip0">
<rect width="49.9923" height="69.9892" fill="white"/>
</clipPath>
</defs>
</svg>
