<svg width="53" height="66" viewBox="0 0 53 66" fill="none" xmlns="http://www.w3.org/2000/svg">
<g clip-path="url(#clip0)">
<path d="M23.7411 0.466064H34.5237V49.4874C29.0007 50.5236 24.9348 50.9314 20.5356 50.9314C7.36608 50.9177 0.510742 45.0817 0.510742 33.8732C0.510742 23.0739 7.78238 16.0651 19.0507 16.0651C20.7993 16.0651 22.1314 16.2016 23.7411 16.6106V0.466064ZM24.119 25.4448C22.8561 25.0356 21.8155 24.8993 20.4832 24.8993C15.0295 24.8993 11.8794 28.1991 11.8794 33.9819C11.8794 39.6121 14.8909 42.7209 20.4139 42.7209C21.6072 42.7209 22.5786 42.6542 24.119 42.4497V25.4448Z" fill="#2BA977"/>
<path d="M52.1564 17.3813V41.9256C52.1564 50.3782 51.518 54.443 49.6446 57.9475C47.896 61.3167 45.5924 63.4412 40.8326 65.7878L30.8271 61.1109C35.587 58.9167 37.8905 56.9779 39.3617 54.019C40.9018 50.9933 41.3875 47.4888 41.3875 38.2712V17.3815H52.1564V17.3813Z" fill="#2BA977"/>
<path d="M40.3009 0.466064H51.0835V11.3337H40.3009V0.466064Z" fill="#2BA977"/>
</g>
<defs>
<clipPath id="clip0">
<rect x="0.510742" y="0.466064" width="51.8102" height="65.4444" fill="white"/>
</clipPath>
</defs>
</svg>
