<svg width="52" height="52" viewBox="0 0 52 52" fill="none" xmlns="http://www.w3.org/2000/svg">
<g clip-path="url(#clip0)">
<path d="M15.9214 44.6562C13.9824 43.1228 11.9113 41.6658 10.5036 39.6027C7.52907 35.9744 5.23374 31.7734 3.66853 27.3498C2.72367 24.4834 2.40077 21.4007 1.18232 18.6346C-0.0933921 16.6383 1.39706 14.4432 3.59377 13.8053C4.57202 13.6144 6.29471 12.695 4.21571 13.3583C2.35146 14.7168 2.17808 12.116 4.08369 11.9506C5.38485 11.7772 5.86523 10.7083 5.41826 9.75548C4.02643 8.84403 8.81432 7.84191 6.40447 6.47394C3.8944 3.76504 9.91665 3.2433 8.43415 6.31646C8.07785 8.68655 12.643 5.88539 11.5821 8.61974C12.659 9.92886 15.608 8.91879 15.5333 10.7576C17.108 10.8658 17.6457 12.1828 19.1123 12.2815C20.6457 12.9782 23.4039 13.5158 23.9256 15.2305C22.4097 16.4315 18.9055 12.7618 18.7401 16.0752C19.195 20.9712 19.0805 26.0168 20.87 30.6807C21.7226 33.5057 23.7777 35.7342 25.634 37.9293C27.4076 40.091 29.8095 41.599 32.2623 42.8842C34.416 43.8943 36.7368 44.5656 39.0799 44.9887C40.0247 44.2601 41.7061 41.5592 43.1886 42.7013C43.2554 43.977 40.2474 45.3768 43.047 45.2368C44.687 44.7389 45.8306 46.5046 47.1891 44.9139C48.4314 46.3885 52.3746 43.9691 51.4886 46.9929C50.2877 47.7628 48.5316 47.2999 47.3291 48.3593C45.3487 47.3731 43.766 49.2453 41.5709 49.013C39.13 49.4322 36.6572 49.6371 34.1806 49.6255C30.1292 49.3025 25.9871 49.1705 22.1266 47.7612C19.9553 47.1233 17.835 45.889 15.9214 44.6546V44.6562ZM19.3429 46.1387C21.4633 47.0502 23.5439 48.0189 25.871 48.3179C29.5582 48.8238 33.3694 49.6191 37.0725 48.8985C35.3991 48.1366 33.6589 49.1976 31.9935 48.3513C29.9892 48.7824 27.8434 48.2432 25.8042 47.9791C23.493 46.9515 20.9909 46.2389 18.8196 44.8964C16.1186 43.9102 20.2194 46.1642 20.9574 46.355C22.6483 47.3158 19.0932 45.8572 18.5969 45.4595C17.1796 44.6642 16.9983 44.8296 18.4553 45.6329C18.7448 45.8063 19.0359 45.9892 19.3413 46.1387H19.3429ZM15.3074 43.2803C17.3625 44.0422 15.2995 41.8392 14.3546 41.9632C13.941 41.2427 12.7639 40.7782 13.5927 40.398C12.0927 40.9118 12.0275 38.4256 11.3228 38.7739C9.74009 38.2761 10.7104 36.512 8.82864 35.4272C8.65526 34.2835 6.95643 33.2893 6.40924 31.5587C6.16905 30.6807 4.49567 28.1372 5.52324 30.4977C6.40129 32.7756 7.95059 34.7225 9.23426 36.6695C10.2364 38.5163 11.4135 40.4553 13.2364 41.6069C13.8488 42.1955 14.4373 43.099 15.3074 43.2803ZM9.38378 36.7777C9.45059 36.4707 9.756 37.4489 9.38378 36.7777V36.7777ZM17.7682 44.1917C18.2231 43.9929 17.1144 43.9436 17.7682 44.1917V44.1917ZM18.8864 44.6053C18.7703 44.0422 18.3726 44.9123 18.8864 44.6053V44.6053ZM20.2862 45.1859C20.9495 44.5481 19.2586 44.7882 20.2862 45.1859V45.1859ZM22.6817 46.5205C23.0873 45.924 21.3806 46.2962 22.6817 46.5205V46.5205ZM18.0831 43.3137C19.1107 42.6424 16.7406 43.3057 18.0831 43.3137V43.3137ZM19.1266 43.8354C19.1011 43.4791 18.7544 43.9929 19.1266 43.8354V43.8354ZM24.3631 47.1074C25.2077 47.6371 29.2846 48.267 26.7331 47.3222C26.31 47.4128 22.0025 46.1037 24.3631 47.1074ZM16.0534 40.6287C15.9707 40.2724 14.7443 40.231 16.0534 40.6287V40.6287ZM18.4887 42.0459C19.1266 41.6069 17.1717 41.7055 18.4887 42.0459V42.0459ZM20.5439 43.3057C21.4553 42.9653 19.0614 42.9574 20.5439 43.3057V43.3057ZM15.0593 39.5438C16.0455 40.3058 19.0439 39.644 16.5752 39.0969C15.449 38.4924 12.9135 38.0868 14.6362 39.4532L15.0593 39.5438ZM21.9278 43.7448C22.3413 43.0401 20.2051 43.3391 21.9278 43.7448V43.7448ZM19.8392 42.0793C22.2586 42.7665 17.8095 40.5555 19.2427 41.8312L19.5656 41.9728L19.8392 42.0793ZM24.0306 44.4987C26.3164 44.5242 21.9596 44.1838 24.0306 44.4987V44.4987ZM14.1812 38.2188C14.0906 37.7957 13.6181 38.2602 14.1812 38.2188V38.2188ZM27.9007 46.6684C27.958 45.8985 27.1547 47.249 27.9007 46.6684V46.6684ZM18.0831 40.6128C17.9415 40.2071 17.3705 40.5968 18.0831 40.6128V40.6128ZM14.396 37.9532C15.7051 37.8784 12.5985 37.3726 14.396 37.9532V37.9532ZM10.0216 35.1281C9.86416 34.4982 8.5964 34.002 10.0216 35.1281V35.1281ZM21.4967 42.4182C21.2565 42.1366 21.3806 42.4754 21.4967 42.4182V42.4182ZM28.6292 46.7925C28.6133 46.3789 28.2475 46.95 28.6292 46.7925V46.7925ZM20.8668 41.7644C20.9909 41.2172 19.7406 41.599 20.8668 41.7644V41.7644ZM15.5476 38.3842C16.5163 38.284 13.9824 37.7305 15.5476 38.3842V38.3842ZM24.5444 43.977C26.0603 43.3726 23.0524 43.678 24.5444 43.977V43.977ZM19.8647 40.8036C21.6208 41.0279 17.7761 39.6106 19.4749 40.6796L19.8647 40.8036ZM25.9617 44.556C27.6016 43.5698 27.064 46.8513 28.7453 44.8296C30.4028 43.6207 27.3121 46.3296 29.3577 45.0443C30.8323 44.0581 33.0194 45.5168 34.3954 45.9892C35.3895 45.9399 36.3582 46.8513 37.3699 46.2962C39.3328 45.7665 33.5428 45.5168 35.0587 44.5815C33.2692 45.1032 31.9442 43.9595 31.0661 42.8079C29.0523 42.3434 26.7331 41.3158 25.731 39.5359C25.3175 38.8726 26.3196 39.6361 25.3747 38.5417C24.1658 37.4648 23.5598 36.2384 22.7485 34.9293C21.7798 34.4155 21.6637 32.8917 21.5635 34.88C21.5714 33.6202 20.3864 32.7756 20.1049 33.1319C20.0969 31.923 21.3647 32.5274 20.4771 31.6319C20.2862 30.3721 19.6563 29.0629 19.467 27.6473C19.1775 26.968 19.4256 25.5094 18.4649 27.0508C18.1165 28.6828 18.3488 25.0465 18.8959 26.2475C19.6086 25.0211 18.6399 25.1626 18.5969 25.336C19.0614 24.3005 18.8959 22.8339 18.4728 23.3891C18.721 22.2947 18.8705 19.3551 18.1006 19.8769C18.5651 18.7332 18.9787 14.6325 16.9744 16.1977C16.1536 16.2056 14.7459 16.4967 14.0826 16.8276C16.1711 17.9792 13.8679 17.2411 13.0216 17.0598C12.9135 18.1208 12.0688 17.6643 11.0174 17.6722C12.6987 17.879 10.1966 19.3869 9.22789 18.8079C7.97763 19.4044 10.3127 20.8965 9.25335 21.3594C9.38537 22.0561 7.33978 21.1112 7.49725 22.7178C6.27881 22.204 7.33182 24.6314 7.93628 23.8122C10.0073 24.3673 9.39491 25.643 9.44423 26.8615C9.11337 27.5661 7.78675 25.196 9.15473 25.3042C8.07785 23.5561 7.96173 24.6743 7.05823 25.4871C6.85144 25.5444 9.35356 26.6467 7.78675 27.1939C9.16268 27.4007 9.20404 28.6112 9.47763 29.3731C10.3064 30.2432 10.1409 28.4203 11.1351 29.4638C10.5052 28.5364 7.8122 26.8535 9.97551 27.3927C9.96755 26.4654 9.58579 25.7114 10.2491 25.7353C10.9124 24.5423 9.56193 28.6764 11.0444 27.1605C11.458 26.9776 11.5582 25.9675 12.3042 27.2512C13.3732 28.3122 12.686 29.0741 11.178 28.1038C11.4437 29.0232 13.1998 29.354 12.8689 30.7888C13.2173 32.0566 13.7056 31.5841 14.1367 31.5173C14.4675 32.7437 14.6584 31.8402 14.6759 31.2517C16.2093 31.5826 15.8435 32.4861 16.3238 33.1239C17.3753 33.5963 14.8159 29.8933 16.6308 32.0057C18.5285 33.7284 17.3435 34.441 15.6287 34.1674C16.7136 34.0847 17.0619 35.634 18.4124 35.5751C19.6467 36.1637 20.4834 38.416 18.3551 37.4807C17.6171 36.8174 15.0084 35.9887 17.1462 37.2565C19.1186 38.1679 20.6759 38.7151 22.5815 39.8572C23.932 40.8259 24.5285 41.9457 25.0423 42.1605C23.8986 42.7077 21.5953 41.7214 23.3021 41.4224C22.2411 41.2315 21.0402 40.6939 22.0598 42.0189C22.9299 42.7474 25.1329 42.6647 25.5306 42.7474C25.1902 43.4855 24.6192 43.5428 25.5465 43.6C24.511 44.1552 25.8774 44.2379 25.9696 44.5528L25.9617 44.556ZM23.8572 38.599C23.2273 37.9357 23.0619 36.7093 23.7411 37.7782C24.0895 37.9198 24.8593 39.792 23.8572 38.599ZM30.7257 42.9574C31.1154 42.9415 30.7337 43.2564 30.7257 42.9574V42.9574ZM22.8631 36.9845C22.8376 35.9982 23.0873 37.7543 22.8631 36.9845V36.9845ZM22.1759 36.073C21.3885 34.5491 23.178 36.5041 22.1759 36.073V36.073ZM13.9076 30.3562C14.3721 30.2321 14.1319 31.1515 13.9076 30.3562V30.3562ZM20.4946 33.9272C20.7761 32.8583 20.8254 34.8307 20.4946 33.9272V33.9272ZM15.8371 30.6966C15.5142 30.108 16.5243 31.2517 15.8371 30.6966V30.6966ZM19.8313 31.9723C19.0852 30.2989 20.3609 31.0608 19.9967 32.2538L19.8313 31.9723ZM12.9469 27.3816C12.616 26.8344 12.0609 25.2199 12.2422 24.73C12.3997 25.5253 13.941 28.1769 12.9962 25.8244C11.9527 23.8519 14.2464 26.4622 14.4882 26.9601C14.5964 27.4484 13.8424 26.8281 14.3466 27.9702C13.4193 26.661 13.7995 28.6907 12.9469 27.3816ZM10.817 25.915C10.9076 24.6393 11.3053 26.7931 10.817 25.915V25.915ZM11.7777 26.2475C12.2327 25.2788 12.5476 27.59 11.7777 26.2475V26.2475ZM9.47445 24.4659C8.67912 23.6786 8.10807 22.95 9.50785 23.9776C10.055 23.9935 8.31485 22.3297 9.63988 23.4479C11.0397 23.704 10.327 25.7432 9.47445 24.4675V24.4659ZM10.6849 24.4325C11.1494 23.9776 10.9251 24.8795 10.6849 24.4325V24.4325ZM11.431 24.6727C10.7343 23.3636 12.2756 25.2199 11.431 24.6727V24.6727ZM9.94688 23.257C7.64359 21.2114 12.8467 24.3339 10.3191 23.6388L9.94688 23.257ZM16.5497 27.0921C15.5476 26.4956 16.2841 22.8832 16.6245 25.3519C17.5932 25.037 16.5672 26.6276 17.2878 26.6117C17.1796 27.6139 16.8567 27.9781 16.5497 27.0921ZM18.9866 28.5333C19.0868 27.4484 19.1934 29.2793 18.9866 28.5333V28.5333ZM18.5635 28.1117C18.6717 27.6473 18.5715 28.6589 18.5635 28.1117V28.1117ZM10.4034 22.5858C8.9209 20.5402 14.703 24.6489 11.3482 23.0996C10.9999 23.0089 10.5784 22.9755 10.4034 22.5858ZM15.1006 25.0783C14.9591 23.3556 15.4156 25.3599 15.1006 25.0783V25.0783ZM18.6717 27.3657C18.9453 26.3875 18.6876 28.0115 18.6717 27.3657V27.3657ZM10.6261 21.8063C11.5041 21.6155 14.2719 23.3477 11.7284 22.3042C11.4469 21.9893 10.8504 22.1308 10.6261 21.8063ZM18.1738 25.5683C18.274 23.8122 18.7035 24.5168 18.1817 25.8164L18.1738 25.5683ZM11.2814 21.1939C11.6377 20.6722 10.3286 18.8159 11.4723 20.5306C11.9607 20.9203 12.8976 21.1844 12.0688 21.3514C13.37 22.4951 11.7539 21.6584 11.2814 21.1939ZM17.8016 25.0211C18.0497 23.0168 18.0259 26.1886 17.8016 25.0211V25.0211ZM10.5354 19.3456C10.809 19.2295 10.677 19.7098 10.5354 19.3456V19.3456ZM12.2342 20.3572C12.6733 19.4378 13.0375 21.3848 12.2342 20.3572V20.3572ZM17.0301 23.0327C17.0301 22.6764 17.1208 23.5386 17.0301 23.0327V23.0327ZM16.7581 22.4108C16.0948 20.7708 17.38 23.2809 16.7581 22.4108V22.4108ZM16.3429 21.3339C16.2348 20.6547 16.7326 22.1865 16.3429 21.3339V21.3339ZM17.0142 20.2491C16.5593 19.4458 17.5948 16.7035 17.7014 18.4023C17.221 19.7273 17.5693 20.4734 17.9002 18.6918C18.5221 17.292 17.7682 21.4596 17.0142 20.2491ZM17.6934 16.1722C17.8922 15.9241 17.7427 16.4617 17.6934 16.1722V16.1722ZM16.5593 38.6817C16.2857 38.4415 16.5927 38.8312 16.5593 38.6817V38.6817ZM18.9119 39.8667C20.213 40.2071 20.213 39.6679 19.028 39.5104C18.3901 38.9139 16.3859 38.284 18.1833 39.4357C18.2994 39.7347 18.6812 39.7252 18.9039 39.8667H18.9119ZM14.2639 36.7856C14.9845 37.3249 16.9728 38.3095 15.2836 36.9845C15.8546 36.3307 14.1987 35.9744 14.7443 35.5354C13.3525 34.6732 13.642 34.7559 14.6282 34.7814C12.9373 34.0274 14.8684 34.0847 14.7777 33.6966C14.124 33.5725 11.555 32.5529 13.0709 33.7793C11.5296 32.9998 12.6987 34.0783 12.2342 33.9622C10.6595 33.5311 13.634 35.1631 11.9861 34.7575C12.8896 35.4701 14.4214 36.5884 12.3679 35.5115C12.0943 35.9012 13.8345 36.4898 14.2655 36.7872L14.2639 36.7856ZM16.7247 38.2013C19.7151 39.1621 15.2581 37.0163 16.7247 38.2013V38.2013ZM29.3164 45.8317C29.3577 45.2352 28.9108 46.3376 29.3164 45.8317V45.8317ZM30.6175 46.3789C31.3047 45.7076 30.643 47.4399 31.7612 46.2135C31.7692 45.3354 31.7278 44.8137 30.4776 45.8826C30.1292 46.0735 29.9797 46.8847 30.6191 46.3805L30.6175 46.3789ZM10.055 33.4627C9.84825 32.634 8.57254 32.634 10.055 33.4627V33.4627ZM11.4389 34.3742C10.9251 33.5216 9.60806 33.6043 11.4389 34.3742V34.3742ZM19.3095 39.1223C20.0794 39.8015 22.8392 39.6202 20.2464 39.205C19.8567 38.634 17.8032 38.7739 19.3095 39.1223ZM30.1213 45.7983C31.3063 44.8042 28.9776 46.2373 30.1213 45.7983V45.7983ZM32.5804 47.4812C32.5884 47.1663 32.0746 47.6228 32.5804 47.4812V47.4812ZM32.5804 47.0422C33.8895 45.6504 31.3127 47.1249 32.5804 47.0422V47.0422ZM6.65897 30.6218C5.54074 29.0311 5.96226 28.3106 4.88538 27.0174C4.68655 26.0152 3.04658 23.7613 4.04074 26.1552C4.95219 27.547 5.22579 29.7088 6.65897 30.6202V30.6218ZM32.1748 46.5936C34.5863 45.0443 31.1886 45.9224 32.1748 46.5936V46.5936ZM34.0152 47.3158C35.2241 46.2882 33.2533 47.1011 34.0152 47.3158V47.3158ZM9.64942 31.7066C9.99778 31.1928 8.76342 31.6398 9.64942 31.7066V31.7066ZM33.6255 46.8259C34.793 46.0719 33.3598 46.188 33.4187 46.8927L33.6255 46.8259ZM17.7841 36.8349C17.7427 36.3291 17.1621 36.8763 17.7841 36.8349V36.8349ZM18.7623 37.398C18.4474 36.7681 18.2819 37.4982 18.7623 37.398V37.398ZM35.5057 47.3397C36.9977 46.2548 34.5942 47.1249 35.1907 47.5385L35.5057 47.3397ZM34.9346 47.0581C36.1531 46.0385 33.6414 47.5131 34.9346 47.0581V47.0581ZM37.8582 49.0051C38.679 48.4579 36.8641 48.8317 37.8582 49.0051V49.0051ZM10.4034 31.3344C11.4978 31.5826 14.7857 34.0354 12.8467 31.5078C11.8525 31.2087 12.449 28.7814 11.4294 29.2125C12.1086 30.3482 11.9925 30.8365 10.5672 30.116C8.76978 29.2459 9.55716 30.555 9.90393 30.9113C9.4315 31.0195 10.5418 31.3249 10.4018 31.3344H10.4034ZM5.40712 27.3912C5.598 26.5799 3.59217 22.9262 4.45431 25.5603C4.76927 26.1075 4.73586 27.1589 5.40712 27.3912ZM14.5709 33.0492C14.0078 32.5767 14.5455 32.9744 14.5709 33.0492V33.0492ZM15.9628 33.3721C15.9628 32.5099 14.4294 33.0237 15.9628 33.3721V33.3721ZM28.0168 40.9691C27.7846 40.3805 27.1054 40.9532 28.0168 40.9691V40.9691ZM28.5958 41.3922C28.5131 41.0613 28.265 41.4494 28.5958 41.3922V41.3922ZM33.3758 44.3985C33.8307 44.0581 32.8047 44.3572 33.3758 44.3985V44.3985ZM7.90128 28.029C9.21835 27.5152 6.49354 27.6648 7.90128 28.029V28.029ZM26.9558 40.0322C26.9399 39.1796 26.1191 40.2469 26.9558 40.0322V40.0322ZM7.37954 26.8185C8.22419 26.529 6.60012 26.6276 7.37954 26.8185V26.8185ZM9.83076 28.0036C9.81485 27.722 9.57466 28.1117 9.83076 28.0036V28.0036ZM39.7145 46.3296C40.7994 46.1149 43.2776 46.8847 43.6753 46.0401C42.3582 46.0146 39.1101 45.1127 38.9606 46.2548L39.2501 46.3041L39.7145 46.3296ZM10.6102 28.2024C10.6261 27.3403 9.93892 28.169 10.6102 28.2024V28.2024ZM4.16481 23.7279C3.87531 22.0879 3.05453 23.4797 4.16481 23.7279V23.7279ZM5.70617 24.1176C5.72207 23.5879 4.29843 23.6372 5.70617 24.1176V24.1176ZM6.58421 24.5486C6.32812 24.3419 6.38538 24.8047 6.58421 24.5486V24.5486ZM12.1006 28.0863C12.3663 27.854 11.4882 27.9129 12.1006 28.0863V28.0863ZM5.99567 23.5799C5.84614 22.3376 4.21412 23.3891 5.99567 23.5799V23.5799ZM2.84774 21.5327C2.80639 20.9617 2.54075 21.7475 2.84774 21.5327V21.5327ZM3.31063 21.1764C3.23587 20.4972 2.91296 21.2592 3.31063 21.1764V21.1764ZM5.905 22.7257C6.99938 22.2947 3.90872 21.8302 5.68072 22.643L5.905 22.7257ZM40.5433 44.117C41.2479 43.4791 39.6573 43.9182 40.5433 44.117V44.117ZM44.7347 46.2882C45.0083 45.4595 44.0221 46.3964 44.7347 46.2882V46.2882ZM6.16905 21.3673C6.28517 20.564 5.29896 21.5248 6.16905 21.3673V21.3673ZM2.48348 18.8986C2.28465 17.7629 2.31805 15.7745 4.20617 16.4458C1.67861 16.9516 5.95431 19.5858 5.41507 17.5068C6.47605 17.5561 7.49407 16.8769 6.93098 17.9124C9.02747 17.6802 10.4766 15.8668 12.4983 16.1149C14.0731 15.9082 15.7957 15.7507 17.4946 15.1208C18.8864 15.0126 20.2289 13.5142 19.467 12.6266C17.5614 12.4612 15.5731 12.7014 13.4686 13.115C11.1399 13.6033 9.02747 14.5227 6.67488 14.9204C4.37955 15.2274 7.12981 15.765 6.47605 15.8891C5.28305 16.3026 7.90128 16.5858 6.31857 17.0153C5.34986 16.8323 4.33024 16.4935 4.74381 15.466C2.5487 15.7475 0.617634 16.6669 2.35782 18.8954L2.48348 18.8986ZM7.77721 16.2056C8.29099 14.308 10.5354 17.7629 8.62185 16.4538C8.38962 16.2883 8.0174 16.1468 7.77721 16.2056ZM7.87583 15.2862C8.6139 14.739 8.26554 15.5932 7.87583 15.2862V15.2862ZM8.82069 15.3037C8.88749 14.4336 10.9744 15.7682 9.16109 15.6187L8.82069 15.3037ZM10.1044 14.7804C10.5768 14.2332 10.2459 15.2783 10.1044 14.7804V14.7804ZM10.4368 14.5656C11.2242 13.6208 14.8859 13.9612 12.2008 14.475C11.4882 13.9357 10.9331 14.7899 10.4368 14.5656ZM15.2167 13.8276C15.0927 11.2507 17.5868 14.747 15.2167 13.8276V13.8276ZM16.5672 13.8196C17.0651 12.5185 18.4887 13.2979 16.7995 13.554C16.8329 13.6955 16.7501 14.2252 16.5672 13.8196ZM5.63141 20.704C7.1139 19.7926 4.06619 19.9166 5.63141 20.704V20.704ZM6.72419 21.011C7.24593 20.4559 5.598 20.7788 6.72419 21.011V21.011ZM3.50151 18.7157C4.34615 18.0699 2.50734 18.4675 3.50151 18.7157V18.7157ZM47.2034 46.056C47.2288 45.302 46.5576 46.3964 47.2034 46.056V46.056ZM42.7639 43.0242C42.8879 42.1541 42.1928 43.099 42.7639 43.0242V43.0242ZM48.4218 46.3455C49.6069 46.3455 52.0008 45.9812 49.4319 45.9812C49.0263 46.048 47.0793 46.0306 48.4218 46.3455ZM7.68495 20.4734C8.64571 20.4066 9.18495 19.4219 7.50203 19.4792C4.89175 19.2056 9.79735 20.3652 7.17117 20.0343C6.81486 20.2666 7.66905 20.5402 7.68495 20.4734ZM8.53118 20.9028C8.43097 20.2809 8.23214 21.2257 8.53118 20.9028V20.9028ZM9.52535 18.2353C9.94847 17.7215 8.9543 18.0937 9.52535 18.2353V18.2353ZM6.34402 12.9177C8.05876 12.3371 10.3954 11.6834 11.1987 13.1993C10.3779 12.2131 10.8679 11.2443 11.6457 12.6855C12.7401 14.1521 13.2857 12.0222 12.5731 11.5338C13.3843 12.5439 14.3053 13.0163 13.1202 11.5911C14.4135 10.0418 10.5275 11.7979 9.63988 11.782C9.21676 11.9729 5.24965 12.7921 6.35038 12.9177H6.34402ZM7.34614 11.0026C8.3244 10.2645 10.7183 11.4336 9.17699 10.2645C9.03543 10.1404 5.81274 11.1505 7.34614 11.0026ZM10.8997 11.1441C12.0434 11.1775 10.4113 9.62027 11.7698 10.3233C11.5455 9.59482 10.1871 9.45325 9.51581 9.16375C9.14359 9.83501 10.2857 11.1521 10.8997 11.1441ZM7.97604 7.92144C8.36576 7.39175 7.27933 8.19504 7.97604 7.92144V7.92144ZM9.42514 8.2698C11.256 8.02961 8.95271 7.48242 9.05292 8.25389L9.42514 8.2698ZM6.71624 6.14785C5.42303 4.45698 9.14359 6.43735 7.83447 4.66535C6.72419 3.78731 5.66322 5.65952 6.71624 6.14785ZM23.31 15.0874C23.9065 14.036 20.8572 13.6701 22.9124 14.7152C23.1033 14.782 23.0539 15.1621 23.31 15.0874Z" fill="#ED6663"/>
</g>
<defs>
<clipPath id="clip0">
<rect x="0.7099" y="0.845703" width="50.9012" height="50.9012" fill="white"/>
</clipPath>
</defs>
</svg>
