<svg width="52" height="52" viewBox="0 0 52 52" fill="none" xmlns="http://www.w3.org/2000/svg">
<g clip-path="url(#clip0)">
<path d="M50.6512 24.0123L28.4272 1.78951C27.1481 0.509618 25.0723 0.509618 23.7916 1.78951L19.1767 6.40442L25.0309 12.2587C26.3914 11.799 27.9514 12.1073 29.0358 13.1918C30.1254 14.2832 30.4316 15.8565 29.9608 17.2213L35.6027 22.8634C36.9677 22.3932 38.5426 22.6974 39.6328 23.7894C41.1565 25.3124 41.1565 27.7809 39.6328 29.305C38.1088 30.8293 35.6403 30.8293 34.1154 29.305C32.9693 28.1577 32.6862 26.4746 33.2664 25.0627L28.0049 19.8012L28.0043 33.6473C28.3857 33.8359 28.7341 34.085 29.0358 34.385C30.5595 35.908 30.5595 38.3768 29.0358 39.902C27.5118 41.4255 25.0421 41.4255 23.5202 39.902C21.9966 38.3768 21.9966 35.9082 23.5202 34.3852C23.8853 34.0199 24.3193 33.7305 24.7969 33.534V19.5588C24.3186 19.3635 23.8844 19.0741 23.5202 18.7076C22.3658 17.5548 22.0882 15.8609 22.6797 14.4434L16.9088 8.67191L1.67026 23.9095C0.389779 25.1905 0.389779 27.2666 1.67026 28.5467L23.8946 50.7698C25.1741 52.0499 27.2495 52.0499 28.5306 50.7698L50.651 28.6498C51.931 27.3694 51.931 25.2922 50.651 24.0123" fill="#DE4C36"/>
</g>
<defs>
<clipPath id="clip0">
<rect x="0.7099" y="0.828613" width="50.9012" height="50.9012" fill="white"/>
</clipPath>
</defs>
</svg>
