<svg width="51" height="70" viewBox="0 0 51 70" fill="none" xmlns="http://www.w3.org/2000/svg">
<g clip-path="url(#clip0)">
<path d="M50.8884 13.7197L46.3498 64.1973L25.9487 69.8123L5.60376 64.205L1.06989 13.7197H50.8884Z" fill="#E44D26"/>
<path d="M25.9792 65.5204L42.4643 60.9831L46.3426 17.8477H25.9792V65.5204Z" fill="#F16529"/>
<path d="M17.1563 30.2314H25.9792V24.0396H10.3404L10.4896 25.7007L12.0226 42.7637H25.9792V36.5719H17.7264L17.1563 30.2314Z" fill="#EBEBEB"/>
<path d="M18.562 45.8599H12.3012L13.1749 55.582L25.9505 59.1027L25.9792 59.095V52.6529L25.9518 52.6601L19.006 50.7981L18.562 45.8599Z" fill="#EBEBEB"/>
<path d="M5.70496 0H8.87439V3.1088H11.7737V0H14.9434V9.41422H11.7739V6.2618H8.87458V9.41422H5.70515V0H5.70496Z" fill="black"/>
<path d="M19.1111 3.12198H16.3213V0H25.0727V3.12198H22.2811V9.41422H19.1117V3.12198H19.1115H19.1111Z" fill="black"/>
<path d="M26.4615 0H29.7662L31.7991 3.30791L33.8301 0H37.1362V9.41422H33.9797V4.74802L31.7991 8.09529H31.7445L29.5626 4.74802V9.41422H26.4615V0Z" fill="black"/>
<path d="M38.7136 0H41.884V6.30252H46.3411V9.41422H38.7134V0H38.7136Z" fill="black"/>
<path d="M25.9577 42.7636H33.6376L32.9135 50.7939L25.9575 52.6578V59.0995L38.7432 55.5817L38.837 54.5355L40.3028 38.2345L40.4549 36.5718H25.9577V42.7636Z" fill="white"/>
<path d="M25.9577 30.2162V30.2314H41.0224L41.1473 28.8397L41.4317 25.7007L41.5807 24.0396H25.9577V30.2164V30.2162Z" fill="white"/>
</g>
<defs>
<clipPath id="clip0">
<rect x="0.983032" width="49.9923" height="69.9892" fill="white"/>
</clipPath>
</defs>
</svg>
