<svg width="54" height="73" viewBox="0 0 54 73" fill="none" xmlns="http://www.w3.org/2000/svg">
<g clip-path="url(#clip0)">
<path d="M17.3493 56.4795C17.3493 56.4795 14.5846 58.0723 19.317 58.6113C25.0504 59.2592 27.9805 59.1665 34.2987 57.9816C34.2987 57.9816 35.96 59.0135 38.2796 59.9074C24.1161 65.9211 6.22445 59.5589 17.3493 56.4795Z" fill="#5382A1"/>
<path d="M15.6187 48.6313C15.6187 48.6313 12.5177 50.9055 17.2537 51.3907C23.3782 52.0167 28.2148 52.0679 36.5841 50.4714C36.5841 50.4714 37.7417 51.634 39.5619 52.2699C22.4372 57.2308 3.36339 52.6611 15.6187 48.6313Z" fill="#5382A1"/>
<path d="M30.2092 35.3193C33.6992 39.2998 29.2923 42.8819 29.2923 42.8819C29.2923 42.8819 38.1537 38.3499 34.084 32.6747C30.2832 27.3825 27.3682 24.7527 43.148 15.6863C43.148 15.6863 18.379 21.8148 30.2092 35.3191" fill="#E76F00"/>
<path d="M48.9417 62.2837C48.9417 62.2837 50.9878 63.9538 46.6883 65.2459C38.513 67.6996 12.6613 68.4405 5.47974 65.3437C2.89826 64.2313 7.73946 62.6872 9.2622 62.363C10.8503 62.0218 11.758 62.0856 11.758 62.0856C8.88701 60.0818 -6.79878 66.0198 3.79046 67.7201C32.6686 72.3598 56.4323 65.6311 48.9417 62.2837Z" fill="#5382A1"/>
<path d="M18.6787 40.5004C18.6787 40.5004 5.52917 43.5948 14.0223 44.7182C17.6083 45.1938 24.7569 45.0863 31.4158 44.5335C36.8578 44.079 42.3222 43.1119 42.3222 43.1119C42.3222 43.1119 40.4033 43.926 39.0151 44.8651C25.6617 48.3444 -0.134663 46.7259 7.29178 43.1669C13.5723 40.1593 18.6789 40.5004 18.6789 40.5004" fill="#5382A1"/>
<path d="M42.268 53.563C55.8426 46.5749 49.5662 39.8595 45.1855 40.7643C44.1117 40.9856 43.633 41.1773 43.633 41.1773C43.633 41.1773 44.0316 40.5589 44.7929 40.2912C53.4593 37.2726 60.1245 49.1938 41.9952 53.9152C41.9952 53.9154 42.2054 53.7295 42.268 53.563Z" fill="#5382A1"/>
<path d="M34.0841 1.04611C34.0841 1.04611 41.6019 8.49661 26.9538 19.9527C15.2078 29.1428 24.2754 34.3827 26.949 40.3694C20.0926 34.2409 15.0608 28.8458 18.4366 23.8247C23.3911 16.4537 37.1172 12.8802 34.0841 1.0459" fill="#E76F00"/>
<path d="M20.0127 72.499C33.0425 73.3254 53.051 72.0406 53.5249 65.9326C53.5249 65.9326 52.614 68.2483 42.7565 70.087C31.6354 72.1603 17.9192 71.9183 9.78381 70.5895C9.78402 70.5895 11.4492 71.9551 20.013 72.499" fill="#5382A1"/>
</g>
<defs>
<clipPath id="clip0">
<rect x="0.055542" y="0.969238" width="53.6281" height="71.8071" fill="white"/>
</clipPath>
</defs>
</svg>
