<svg width="51" height="84" viewBox="0 0 51 84" fill="none" xmlns="http://www.w3.org/2000/svg">
<g clip-path="url(#clip0)">
<path d="M49.8556 34.3228C49.8556 48.2514 38.9058 59.5536 25.3914 59.5536C11.8769 59.5536 0.927368 48.2514 0.927368 34.3228C0.927368 20.394 11.8771 9.0918 25.3914 9.0918C38.906 9.0918 49.8558 20.394 49.8558 34.3228" fill="#D33833"/>
<path d="M1.93341 40.5707C1.93341 40.5707 0.157834 14.2656 24.2077 13.5091L22.5307 10.6836L9.48966 15.101L5.76095 19.4189L2.50565 25.7067L0.65094 33.0293L1.2035 37.9244" fill="#EF3D3A"/>
<path d="M8.64127 17.1107C4.3602 21.548 1.69664 27.6569 1.69664 34.4222C1.69664 41.1875 4.3602 47.2962 8.64127 51.7334C12.9422 56.1707 18.8414 58.8968 25.3914 58.8968C31.9415 58.8968 37.8405 56.1707 42.1414 51.7336C46.4227 47.2962 49.0861 41.1875 49.0861 34.4222C49.0861 27.6567 46.4227 21.548 42.1414 17.1107C37.8407 12.6933 31.9415 9.94758 25.3914 9.94758C18.8611 9.94758 12.9424 12.6735 8.64127 17.1107ZM7.55624 52.7881C2.99899 48.0921 0.177551 41.5855 0.177551 34.4222C0.177551 27.2588 2.99899 20.752 7.55624 16.0362C12.1137 11.3403 18.427 8.41528 25.3916 8.41528C32.3559 8.41528 38.6692 11.3403 43.2267 16.0362C47.7839 20.7322 50.6054 27.2388 50.6054 34.4222C50.6054 41.5853 47.7839 48.0921 43.2267 52.7881C38.6692 57.5039 32.3559 60.409 25.3914 60.409C18.427 60.409 12.1137 57.5039 7.55624 52.7881Z" fill="#231F20"/>
<path d="M35.6901 34.4621L31.9612 35.0192L26.9303 35.5963L23.675 35.6759L20.4987 35.5765L18.0719 34.8205L15.9214 32.4722L14.2444 27.6768L13.8696 26.642L11.6403 25.886L10.3379 23.7172L9.41077 20.6129L10.4367 17.887L12.8635 17.0313L14.8166 17.9666L15.7438 20.0361L16.8684 19.8569L17.2432 19.3794L16.8684 17.2104L16.7698 14.4843L17.3221 10.7237L17.3024 8.57472L18.9991 5.82878L21.9782 3.65979L27.1868 1.41138L32.9675 2.26686L37.9984 5.92825L40.3265 9.6889L41.8257 12.415L42.2007 19.1803L41.0761 25.0104L39.0241 30.1841L37.0909 32.9499" fill="#F0D6B7"/>
<path d="M32.5335 50.7189L19.2162 51.276V53.5244L20.3408 61.4241L19.7883 62.0807L10.4761 58.8771L9.82516 57.7429L8.8978 47.1173L6.70786 40.7499L6.23444 39.2376L13.6921 34.0642L16.0202 33.1289L18.072 35.6757L19.8475 37.2678L21.8995 37.9243L22.8266 38.2031L23.9512 43.0979L24.7997 44.1327L26.95 43.3765L25.4506 46.3013L33.5396 50.1616L32.5335 50.7187" fill="#335061"/>
<path d="M10.4368 17.9266L12.8635 17.0711L14.8166 18.0062L15.7438 20.0757L16.8684 19.8966L17.1448 18.7624L16.5922 16.5934L17.1446 11.42L16.6712 8.59444L18.3481 6.62458L21.9782 3.71942L20.9522 2.30664L15.8227 4.85345L13.6724 6.54497L12.4688 9.17138L10.6143 11.7184L10.062 14.723L10.4368 17.9266Z" fill="#6D6B6D"/>
<path d="M14.2643 9.09178C14.2643 9.09178 15.6649 5.60968 21.2483 3.91836C26.8315 2.22704 21.5247 2.70451 21.5247 2.70451L15.4674 5.05259L13.1397 7.40046L12.1137 9.27086L14.2643 9.09178Z" fill="#DCD9D8"/>
<path d="M11.4627 17.27C11.4627 17.27 9.50939 10.6836 16.967 9.74849L16.6908 8.61426L11.5614 9.8281L10.062 14.7232L10.4368 17.9265L11.4627 17.27Z" fill="#DCD9D8"/>
<path d="M14.4418 26.0053L15.6649 24.8113C15.6649 24.8113 16.2174 24.871 16.316 25.5276C16.4147 26.1843 16.6908 32.114 20.6959 35.2977C21.0707 35.5961 17.7168 34.82 17.7168 34.82L14.7375 30.1241" fill="#F7E4CD"/>
<path d="M31.5864 24.2141C31.5864 24.2141 31.8034 21.3687 32.5729 21.5877C33.3423 21.8065 33.3423 22.5824 33.3423 22.5824C33.3423 22.5824 31.4878 23.7764 31.5864 24.2141Z" fill="#F7E4CD"/>
<path d="M39.3202 13.7878C39.3202 13.7878 37.7812 14.1061 37.6432 15.4792C37.505 16.852 39.3202 15.7577 39.5964 15.6582" fill="#F7E4CD"/>
<path d="M28.055 13.8875C28.055 13.8875 26.003 14.166 26.003 15.4793C26.003 16.7924 28.3311 16.6929 28.9821 16.1359" fill="#F7E4CD"/>
<path d="M15.3887 19.9961C15.3887 19.9961 11.8574 17.8271 11.4826 19.8966C11.1078 21.966 10.2791 23.4582 12.035 25.6271L10.8314 25.2491L9.70703 22.344L9.33203 19.5184L11.4826 17.27L13.9092 17.4491L15.3099 18.5833L15.3889 19.9961" fill="#F7E4CD"/>
<path d="M17.0659 14.0665C17.0659 14.0665 18.644 5.78881 26.6542 4.19696C33.2435 2.88365 36.716 4.4757 38.0181 5.98774C38.0181 5.98774 32.1388 -1.05608 26.5554 1.09286C20.9722 3.26186 16.8685 7.20159 16.9671 9.72874C17.1249 14.0663 17.0657 14.0663 17.0657 14.0663" fill="#F7E4CD"/>
<path d="M38.669 6.92317C38.669 6.92317 35.9663 6.8237 35.8674 9.27105C35.8674 9.27105 35.8674 9.64926 36.0452 10.0273C36.0452 10.0273 38.1956 7.57972 39.4977 8.89303" fill="#F7E4CD"/>
<path d="M26.8514 10.2857C26.8514 10.2857 26.378 6.5449 23.2213 8.7137C21.1693 10.1265 21.3666 12.0963 21.7219 12.4745C22.0967 12.8526 21.9981 13.6086 22.2743 13.0914C22.5504 12.574 22.4715 10.8827 23.4975 10.405C24.5036 9.92754 26.2004 9.41036 26.8514 10.2857Z" fill="#F7E4CD"/>
<path d="M18.0918 35.6756L9.33158 39.6152C9.33158 39.6152 12.9619 54.1807 11.1072 58.6976L9.8052 58.2201L9.70658 52.6685L7.27982 42.1624L6.25385 39.257L15.3884 33.0488L18.0914 35.6754" fill="#49728B"/>
<path d="M18.9794 43.7344L20.2223 45.2667V50.8977H18.7428C18.7428 50.8977 18.5652 46.958 18.5652 46.4805C18.5652 46.0028 18.7428 44.3115 18.7428 44.3115" fill="#49728B"/>
<path d="M19.019 51.7532L14.8167 51.9323L16.0202 52.7879L18.9991 53.2656" fill="#49728B"/>
<path d="M33.3622 50.8182L36.8145 50.7188L37.663 59.3544L34.1315 59.8321L33.362 50.818" fill="#335061"/>
<path d="M34.2894 50.8183L39.4978 50.5395C39.4978 50.5395 41.6484 45.0876 41.6484 44.809C41.6484 44.5303 43.5029 36.9095 43.5029 36.9095L39.3006 32.4921L38.4521 31.7361L36.2228 33.9845V42.7198L34.2894 50.8183Z" fill="#335061"/>
<path d="M36.6173 50.1614L33.362 50.8181L33.8356 53.4448C35.039 54.0019 37.0909 52.5095 37.0909 52.5095" fill="#49728B"/>
<path d="M36.7159 33.7059L43.2464 38.6008L43.4239 36.3521L38.4917 31.7559L36.7161 33.7059" fill="#49728B"/>
<path d="M22.2546 69.3232L20.3211 61.4237L19.3544 55.5935L19.1965 51.2756L27.9364 50.7981H33.362L32.8689 60.6675L33.7171 68.2884L33.6185 69.7012L26.5357 70.2585L22.2546 69.3232Z" fill="white"/>
<path d="M32.1584 50.7187C32.1584 50.7187 31.685 60.4888 33.0858 67.453C33.0858 67.453 30.2842 69.2438 26.2002 69.7014L34.0328 69.4229L34.96 68.8658L33.8356 53.4646L33.5395 50.1614" fill="#DCD9D8"/>
<path d="M37.8011 58.6184L41.4312 57.5836L48.3168 57.2056L49.3428 54.0021L47.4881 48.4504L45.3377 48.1719L42.3586 49.1072L39.5174 50.52L37.9984 50.2412L36.8145 50.7189" fill="white"/>
<path d="M37.7419 56.7281C37.7419 56.7281 40.1686 55.5939 40.5434 55.6933L39.5175 50.5199L40.721 50.0422C40.721 50.0422 41.5694 54.9373 41.5694 55.4944C41.5694 55.4944 46.7778 55.773 47.2513 55.773C47.2513 55.773 48.3759 53.604 48.0997 51.3555L49.1257 54.3602L49.2243 56.0515L47.7249 58.2999L46.0479 58.6781L43.2464 58.5787L42.319 57.3648L39.0637 57.8423L38.0377 58.2205" fill="#DCD9D8"/>
<path d="M34.0722 50.0618L32.0203 44.8088L29.8699 41.7045C29.8699 41.7045 30.3435 40.3914 30.9945 40.3914H33.145L35.197 41.1474L35.0192 44.6297L34.0722 50.0618Z" fill="white"/>
<path d="M34.4866 48.2713C34.4866 48.2713 31.8823 43.1973 31.8823 42.4411C31.8823 42.4411 32.3559 41.3069 33.0069 41.5856C33.658 41.8642 35.0588 42.6204 35.0588 42.6204V40.8294L31.8823 40.1729L29.7319 40.4514L33.362 49.127L34.1116 49.2265" fill="#DCD9D8"/>
<path d="M23.0831 35.8746L20.4987 35.5959L18.0719 34.8398V35.6955L19.2556 37.0088L22.9845 38.7002" fill="white"/>
<path d="M18.9203 36.1533C18.9203 36.1533 21.8006 37.3672 22.7478 37.0886L22.8463 38.2228L20.2422 37.6656L18.6638 36.5313L18.9203 36.1533Z" fill="#DCD9D8"/>
<path d="M37.8011 40.7101C36.2228 40.6701 34.7825 40.4712 33.5396 40.1131C33.6185 39.5957 33.4606 39.0984 33.5988 38.7201C33.9539 38.4614 34.526 38.4615 35.0586 38.4019C34.6049 38.1829 33.9539 38.0834 33.4409 38.2228C33.421 37.8647 33.2634 37.6457 33.1646 37.3671C34.0525 37.0487 36.1439 34.9595 37.3275 35.6359C37.8998 35.9742 38.1366 37.8446 38.1759 38.7799C38.2153 39.5359 38.097 40.2921 37.8011 40.7101Z" fill="#D33833"/>
<path d="M37.8011 40.7101C36.2228 40.6701 34.7825 40.4712 33.5396 40.1131C33.6185 39.5957 33.4606 39.0984 33.5988 38.7201C33.9539 38.4614 34.526 38.4615 35.0586 38.4019C34.6049 38.1829 33.9539 38.0834 33.4409 38.2228C33.421 37.8647 33.2634 37.6457 33.1646 37.3671C34.0525 37.0487 36.1439 34.9595 37.3275 35.6359C37.8998 35.9742 38.1366 37.8446 38.1759 38.7799C38.2153 39.5359 38.097 40.2921 37.8011 40.7101Z" fill="black" stroke="#D33833" stroke-width="2"/>
<path d="M30.2449 38.1032C30.2449 38.2227 30.2449 38.3418 30.225 38.4614C29.7319 38.7798 28.9425 38.7798 28.3902 39.0584C29.1795 39.0981 29.8108 39.297 30.3632 39.5557C30.3433 39.8543 30.3433 40.1727 30.3238 40.4711C29.4161 41.088 28.5876 42.0233 27.5223 42.6201C27.0093 42.8988 25.2534 43.6151 24.7207 43.4758C24.4246 43.3962 24.3853 43.0181 24.267 42.66C24.0105 41.904 23.4186 40.6701 23.3593 39.516C23.3 38.0635 23.1424 35.616 24.7008 35.9144C25.9634 36.1532 27.4234 36.7303 28.3902 37.2676C29.0018 37.6257 29.3372 38.0236 30.2449 38.1032Z" fill="#D33833"/>
<path d="M30.2449 38.1032C30.2449 38.2227 30.2449 38.3418 30.225 38.4614C29.7319 38.7798 28.9425 38.7798 28.3902 39.0584C29.1795 39.0981 29.8108 39.297 30.3632 39.5557C30.3433 39.8543 30.3433 40.1727 30.3238 40.4711C29.4161 41.088 28.5876 42.0233 27.5223 42.6201C27.0093 42.8988 25.2534 43.6151 24.7207 43.4758C24.4246 43.3962 24.3853 43.0181 24.267 42.66C24.0105 41.904 23.4186 40.6701 23.3593 39.516C23.3 38.0635 23.1424 35.616 24.7008 35.9144C25.9634 36.1532 27.4234 36.7303 28.3902 37.2676C29.0018 37.6257 29.3372 38.0236 30.2449 38.1032Z" fill="black" stroke="#D33833" stroke-width="2"/>
<path d="M31.1327 39.8344C30.9945 39.0383 30.8366 38.8197 30.8959 38.123C33.0069 36.7103 33.3817 40.5507 31.1325 39.8344" fill="#D33833"/>
<path d="M31.1327 39.8344C30.9945 39.0383 30.8366 38.8197 30.8959 38.123C33.0069 36.7103 33.3817 40.5507 31.1325 39.8344H31.1327Z" fill="black" stroke="#D33833" stroke-width="2"/>
<path d="M34.1708 40.4712C34.1708 40.4712 33.5198 39.5359 33.9933 39.2573C34.4669 38.9788 34.9206 39.2573 35.1968 38.7799C35.4732 38.3022 35.1968 38.0238 35.2954 37.4665C35.394 36.9095 35.8478 36.81 36.3214 36.7105C36.7948 36.6109 38.097 36.4318 38.2745 36.8896L37.7222 35.1981L36.5976 34.8201L33.0661 36.8896L32.8885 37.9244V39.9937" fill="#EF3D3A"/>
<path d="M24.3853 43.5752C24.267 42.1027 24.1487 40.6502 24.0302 39.1777C23.8329 36.989 24.5432 37.3668 26.437 37.3668C26.7331 37.3668 28.2126 37.7053 28.3114 37.9243C28.8244 38.9787 27.463 38.7399 28.9032 39.5358C30.1067 40.1926 32.2573 39.138 31.764 37.6456C31.4876 37.3073 30.3435 37.5461 29.9291 37.3271L27.7392 36.1931C26.812 35.7154 24.6811 34.9991 23.6947 35.6757C21.189 37.3869 23.8526 41.685 24.7404 43.4758" fill="#EF3D3A"/>
<path d="M26.8514 10.2859C24.3063 9.6889 23.0437 11.3604 22.2742 13.0914C21.5837 12.9324 21.8599 11.9772 22.0376 11.4997C22.4912 10.2462 24.3262 8.55467 25.8254 8.79351C26.4567 8.87312 27.3248 9.47012 26.8514 10.2859Z" fill="#231F20"/>
<path d="M39.2216 13.1907H39.3399C39.9121 14.3847 40.4052 15.6583 41.1353 16.7327C40.6422 17.8868 37.4657 18.8817 37.5051 16.8521C38.1956 16.5537 39.3795 16.7923 39.9911 16.3944C39.6359 15.4194 39.1426 14.5836 39.2216 13.1909" fill="#231F20"/>
<path d="M28.1339 13.2307C28.6863 14.2454 28.8636 15.3 29.6331 16.0563C29.9884 16.3944 30.6591 16.8123 30.3238 17.7672C30.2449 17.9862 29.6727 18.4838 29.3372 18.5832C28.1339 18.9414 25.3125 18.6628 26.2595 17.1305C27.2656 17.1704 28.6073 17.7873 29.3571 17.0509C28.7849 16.1357 27.7589 14.305 28.1339 13.2307Z" fill="#231F20"/>
<path d="M38.7678 23.4582C36.9527 24.6323 34.9204 25.9258 31.9218 25.6272C31.2905 25.0701 31.034 23.8163 31.6653 23.0008C31.9809 23.5579 31.7836 24.5926 32.6913 24.7516C34.388 25.0502 36.3608 23.697 37.584 23.2396C38.3336 21.9462 37.5249 21.4885 36.8344 20.6527C35.4336 18.9614 33.5791 16.8521 33.6382 14.3252C34.2104 13.9073 34.2498 14.9619 34.3287 15.141C35.0586 16.8521 36.8936 19.0608 38.2153 20.5334C38.5507 20.8915 39.0834 21.2497 39.1426 21.4885C39.3202 22.1649 38.6889 23.0006 38.7678 23.4584" fill="#231F20"/>
<path d="M14.7375 22.2246C14.1654 21.8863 14.0274 20.4537 13.3566 20.4138C12.3898 20.3542 12.5674 22.2844 12.5674 23.4184C11.9164 22.8216 11.7979 20.951 12.2715 19.9961C11.7192 19.7173 11.4822 20.2945 11.1666 20.4934C11.581 17.6083 15.369 19.1602 14.7377 22.2246" fill="#231F20"/>
<path d="M39.9121 24.6719C39.0637 26.3036 37.8602 28.0944 35.3744 28.1542C35.3151 27.6368 35.2757 26.821 35.3744 26.5026C37.2881 26.3036 38.4718 25.3286 39.9121 24.6719Z" fill="#231F20"/>
<path d="M27.9957 25.7266C29.574 26.5624 32.4939 26.6619 34.6641 26.6021C34.7824 27.0798 34.7824 27.6766 34.7824 28.2537C32.0008 28.373 28.7256 27.6766 27.9957 25.7266Z" fill="#231F20"/>
<path d="M27.6998 27.2788C28.8045 30.0645 32.5728 29.7462 35.7492 29.6666C35.6112 30.0248 35.3151 30.4625 34.9206 30.6017C33.8947 31.0196 31.0931 31.3381 29.6726 30.5818C28.7848 30.1044 28.1929 29.0098 27.6998 28.3731C27.4827 28.0747 26.299 27.2987 27.6998 27.2788Z" fill="#231F20"/>
<path d="M38.6296 42.6201C37.3472 44.8487 36.1045 47.137 34.5854 49.087C35.2165 47.1968 35.4927 44.0131 35.5915 41.5856C36.933 40.9487 38.0773 41.7248 38.6296 42.6203" fill="#81B0C4"/>
<path d="M45.5546 50.6194C44.1145 50.9178 43.1082 52.3306 41.6877 52.2311C42.4769 51.1366 43.8184 50.6591 45.5546 50.6194Z" fill="#231F20"/>
<path d="M46.186 52.8875C45.0023 53.007 43.6212 53.2059 42.4376 53.1064C43.0096 52.2309 45.1799 52.5492 46.186 52.8875Z" fill="#231F20"/>
<path d="M46.6003 54.8574C45.2785 54.8773 43.6409 54.8574 42.3783 54.7578C43.1279 53.942 45.7519 54.4594 46.6003 54.8574Z" fill="#231F20"/>
<path d="M36.1439 60.2299C36.3411 61.9014 36.9923 63.5929 36.9134 65.4234C36.1833 65.662 35.7691 65.881 34.7825 65.881C34.7234 64.3289 34.5063 61.9413 34.5656 60.4489C35.039 60.4886 35.7492 60.1106 36.1439 60.2299Z" fill="#DCD9D8"/>
<path d="M34.0132 35.5566C33.3423 35.9942 32.79 36.5314 32.1388 37.0091C30.7184 37.0887 29.9489 36.9096 28.9231 36.0938C28.9428 36.0341 29.0414 36.0539 29.0414 35.9743C30.5605 36.6509 32.4939 35.6958 34.0132 35.5564" fill="#F0D6B7"/>
<path d="M26.0819 45.9628C26.4963 44.152 28.1339 43.197 29.6134 42.2021C31.1325 44.1522 32.0598 46.6593 33.0858 49.0867C30.659 48.3506 28.1929 47.1766 26.0819 45.9628Z" fill="#81B0C4"/>
<path d="M34.5655 60.4683C34.5063 61.9607 34.7035 64.3287 34.7824 65.9005C35.7691 65.9005 36.1832 65.6817 36.9133 65.4428C36.9923 63.6121 36.3411 61.9208 36.1439 60.2493C35.7492 60.1102 35.0389 60.4882 34.5655 60.4683ZM19.3345 52.0316C19.9857 58.0208 20.9129 63.035 22.6292 68.348C26.437 69.5219 31.0142 69.6214 34.388 68.5668C33.7764 65.5822 34.0328 61.9409 33.6777 58.7371C33.4014 56.3295 33.5395 53.9218 33.1647 51.4743C29.0807 50.6188 23.3199 51.2754 19.3345 52.0316ZM34.1315 51.5142C34.0919 54.0811 34.2498 56.6279 34.4472 59.1947C35.4334 59.0556 36.0846 58.9561 36.9923 58.7371C36.6962 56.2697 36.7358 53.4642 36.1242 51.2754C35.4336 51.2954 34.8218 51.2754 34.1315 51.514V51.5142ZM39.0834 51.0963C38.61 50.9968 38.0773 51.0963 37.6433 51.0963C37.8602 53.1857 38.3535 55.4938 38.531 57.7025C39.2216 57.7224 39.5964 57.3841 40.1686 57.2846C40.208 55.3545 40.0108 52.6881 39.0834 51.0963ZM46.6003 58.0208C48.0603 57.6626 48.9678 55.8719 48.5534 54.0213C48.2772 52.7876 47.8038 50.4397 47.2709 49.6436C46.8961 49.0667 45.8505 48.2906 45.0023 48.8278C43.6409 49.7034 41.2537 49.9621 40.2673 51.0167C40.7604 52.6881 40.9182 54.9566 41.1155 57.0656C42.8123 57.1653 44.8838 56.5884 46.3044 57.205C45.3178 57.5235 44.0552 57.5235 43.2068 58.0009C43.917 58.3392 45.5349 58.2797 46.6003 58.021V58.0208ZM33.0661 49.0865C32.0401 46.659 31.113 44.1519 29.5937 42.2019C28.114 43.1966 26.4963 44.1519 26.0622 45.9626C28.1929 47.1764 30.6592 48.3503 33.0661 49.0865ZM35.5913 41.5851C35.4927 44.0126 35.2165 47.1963 34.5852 49.0865C36.1043 47.1166 37.3474 44.8482 38.6297 42.6196C38.0773 41.7242 36.933 40.9482 35.5915 41.5849L35.5913 41.5851ZM32.7307 40.5704C32.1584 40.5104 31.6653 41.2468 30.9155 40.9283C30.738 41.1272 30.5801 41.3264 30.4026 41.5253C32.0598 43.5547 32.8293 46.4204 34.1118 48.7881C34.8023 46.5 34.7234 44.0126 34.8813 41.5253C33.9342 41.565 33.4016 40.6299 32.7307 40.5702V40.5704ZM30.8959 38.1226C30.8366 38.8191 30.9945 39.0381 31.1325 39.834C33.3817 40.5503 33.0069 36.7098 30.8959 38.1226ZM28.3902 37.287C27.4234 36.7495 25.9636 36.1726 24.7008 35.934C23.1424 35.6354 23.3 38.0829 23.3593 39.5356C23.4185 40.6895 24.0105 41.9033 24.267 42.6794C24.3853 43.0376 24.4246 43.4156 24.7207 43.4952C25.2534 43.6147 27.029 42.9182 27.5223 42.6395C28.5876 42.0625 29.4161 41.1274 30.3238 40.4905C30.3435 40.1921 30.3435 39.8737 30.3632 39.5753C29.8108 39.2966 29.1992 39.1177 28.3902 39.078C28.923 38.7992 29.7319 38.7992 30.225 38.481C30.225 38.3615 30.225 38.2421 30.2449 38.1226C29.3372 38.0232 29.0018 37.6253 28.3902 37.287ZM19.1176 35.5957C18.3087 36.4313 21.3863 37.5457 22.3532 37.6054C22.3532 37.0881 22.6491 36.5907 22.5898 36.2125C21.4258 36.0136 19.9068 36.1528 19.1176 35.5957ZM29.0612 35.9737C29.0612 36.0533 28.9624 36.0334 28.9427 36.0932C29.9884 36.909 30.7577 37.0879 32.1584 37.0084C32.7899 36.5508 33.362 35.9937 34.0328 35.5558C32.4939 35.6951 30.5604 36.6503 29.061 35.9737H29.0612ZM38.1759 38.7595C38.1366 37.8441 37.8996 35.9538 37.3275 35.6155C36.1439 34.9191 34.0525 37.0283 33.1647 37.3467C33.2634 37.6253 33.4212 37.8441 33.4409 38.2022C33.9738 38.0631 34.6049 38.1625 35.0586 38.3813C34.526 38.4411 33.9539 38.4411 33.5988 38.6998C33.4803 39.0778 33.6382 39.5753 33.5395 40.0927C34.7824 40.4508 36.2228 40.6299 37.8011 40.6895C38.097 40.2916 38.2153 39.5354 38.1759 38.7595ZM17.7562 36.3916C17.4997 36.2125 15.7834 33.9639 15.5465 34.0634C12.4491 35.2973 9.54895 37.4264 6.96432 39.4558C9.43045 44.8085 10.4367 51.355 10.6143 57.6626C13.4357 58.9958 15.9213 60.926 19.7686 61.1249C19.3148 57.9612 18.9203 55.1156 18.6639 52.1309C17.6971 51.7131 16.316 52.1509 15.4086 52.0115C15.4086 50.9172 16.7895 51.5341 16.9078 50.7979C16.9869 50.2406 16.1383 50.2009 16.4147 49.3254C17.1249 49.584 17.4997 50.161 18.2495 50.38C18.94 48.8677 18.2495 46.1816 18.3481 44.908C18.368 44.6693 18.4664 43.5946 18.9991 43.7737C19.4727 43.9329 18.9794 46.659 19.019 47.8528C19.0583 48.9672 18.8808 50.0218 19.3345 50.7183C23.0437 50.2009 26.812 49.8824 30.8366 49.7631C29.9488 49.3851 28.9032 49.027 27.7589 48.3702C27.1276 48.012 25.1744 47.2759 24.9969 46.6789C24.7008 45.7237 25.7465 45.2264 25.924 44.4104C24.0498 45.4452 23.6947 43.4158 23.241 42.0028C22.8463 40.7093 22.6097 39.7345 22.5111 38.9982C20.8735 38.1625 19.1373 37.3865 17.7562 36.3916ZM36.5383 34.3221C39.123 33.0687 39.5964 39.0381 38.5704 40.9682C38.7283 41.5452 39.261 41.7641 39.4781 42.2813C38.0377 44.8881 36.4399 47.3156 34.96 49.8824C36.0452 49.186 37.6236 49.7631 38.9058 49.2457C39.3795 49.0667 39.7149 47.9723 40.07 47.0968C41.0562 44.709 42.0822 41.6843 42.5361 39.4163C42.6348 38.8989 42.9306 37.7645 42.8517 37.3068C42.7334 36.4712 41.6285 35.8544 41.0562 35.3568C40.0108 34.4017 39.3596 33.5861 38.2547 32.6905C37.8405 33.3473 36.8935 33.7848 36.5383 34.3223V34.3221ZM11.8572 11.2203C10.634 12.5934 10.8905 15.1404 11.0287 16.9709C13.258 15.5583 16.1977 17.0904 16.1778 19.4782C17.2432 19.4581 16.5725 18.145 16.3753 17.2893C15.7438 14.5236 17.4406 11.5388 16.454 9.01183C14.5405 9.17085 12.9818 9.94693 11.8572 11.2205V11.2203ZM20.6564 3.28111C17.8747 4.07704 14.3036 6.12652 13.1594 8.65347C14.0471 8.5143 14.6588 8.07653 15.5269 8.01677C15.8623 7.99692 16.2963 8.15614 16.6711 8.05667C17.4207 7.85774 18.0719 6.14637 18.644 5.50967C19.1965 4.89282 19.8672 4.61428 20.3211 4.05719C20.617 3.91781 21.0508 3.91781 21.0707 3.48004C20.9524 3.34067 20.8142 3.24141 20.6564 3.28111ZM35.1572 4.03713C32.2573 2.38572 27.3644 1.15202 24.2866 2.70397C21.8006 3.95752 18.4469 6.02685 17.3024 8.63382C18.3678 11.1606 16.9869 13.4687 16.8881 16.0356C16.8487 17.4087 17.5196 18.5828 17.5786 20.0752C17.2038 20.692 16.0989 20.7516 15.3296 20.7119C15.0731 19.3984 14.6194 17.926 13.2777 17.7668C11.3838 17.548 9.983 19.1399 9.90407 20.7915C9.80545 22.7415 11.3838 25.9649 13.6328 25.7461C14.5009 25.6665 14.718 24.791 15.6649 24.791C16.1778 25.8258 14.8759 26.144 14.7377 26.8802C14.6981 27.0793 14.8363 27.8155 14.9349 28.1736C15.3493 29.865 16.2568 32.0737 17.1446 33.3671C18.2889 35.0185 20.5184 35.2574 22.9252 35.4166C23.3593 34.4813 24.9376 34.5609 25.9634 34.7997C24.7207 34.3024 23.5764 33.1084 22.6294 32.0538C21.5441 30.84 20.4394 29.5467 20.3802 27.9548C22.4518 30.84 24.1485 33.3671 27.8971 34.6407C30.738 35.5957 34.0525 34.2027 36.2425 32.6508C37.15 32.0139 37.6826 30.9793 38.3338 30.0639C40.7407 26.5619 41.8653 21.5872 41.6285 16.7521C41.5298 14.7624 41.5298 12.7725 40.859 11.4393C40.1686 10.0464 37.8208 8.77299 36.4397 10.0464C36.1832 8.67352 37.584 7.83769 39.2214 8.33522C38.0576 6.80312 36.8344 4.99229 35.1572 4.03713ZM40.5631 49.027C42.832 47.8927 47.054 45.9824 48.4548 49.027C48.9877 50.161 49.5991 52.0514 49.8556 53.2254C50.2304 54.8571 49.4412 58.3194 47.7643 58.8564C46.2845 59.3341 44.5682 59.3143 42.7926 58.9561C42.5755 58.777 42.3586 58.4784 42.181 58.16C40.9184 58.1203 39.7149 58.2199 38.7283 58.7572C38.8269 59.7121 38.1956 59.8515 37.584 60.0506C37.1499 61.8213 38.4718 64.1295 38.1562 65.7214C37.9391 66.8755 36.5383 67.0545 35.5126 67.2535C35.473 67.8904 35.5519 68.4276 35.6309 68.9648C35.3943 69.8404 34.3484 70.3377 33.3423 70.4572C30.0476 70.8551 25.0561 71.0342 21.8995 69.8801C21.0115 67.6914 20.3211 65.045 19.591 62.5577C16.5133 62.8958 14.0078 61.2243 11.66 60.1102C10.8511 59.7322 9.72651 59.5132 9.41076 58.8566C9.1149 58.2199 9.23321 57.0061 9.15427 55.8719C8.97671 52.9468 8.79915 50.1213 8.04955 47.1365C7.71412 45.7835 7.10251 44.6096 6.68814 43.3163C6.29366 42.1223 5.6228 40.6299 5.44524 39.4359C5.18874 37.6652 6.84602 37.5655 7.89168 36.7895C9.52927 35.5957 10.8115 34.9389 12.5871 33.8644C13.12 33.5462 14.6981 32.7503 14.8757 32.372C15.231 31.6361 14.2643 30.6013 14.0078 30.0242C13.5934 29.1089 13.3763 28.3329 13.3172 27.4373C11.8375 27.1986 10.6932 26.3032 10.0226 25.3084C8.89777 23.6369 8.10861 20.5527 9.09521 18.2246C9.17415 18.0456 9.54895 17.6674 9.6082 17.3888C9.72651 16.8317 9.39108 16.0954 9.37139 15.4986C9.27277 12.454 9.88438 9.82741 11.9165 8.91216C12.745 5.58928 15.7042 4.49496 18.4863 2.84334C19.532 2.2265 20.6762 1.82863 21.8599 1.39066C26.1016 -0.181139 32.6321 0.117258 36.1635 2.80344C37.6629 3.93767 40.0501 6.3453 40.8985 8.09638C43.1672 12.6929 42.9899 20.3934 41.4115 26.0048C41.1944 26.7609 40.8985 27.8552 40.4645 28.7706C40.1686 29.4073 39.2413 30.6609 39.3399 31.218C39.4584 31.7951 41.4708 33.3272 41.9048 33.7451C42.6743 34.5011 44.1538 35.4962 44.2721 36.4514C44.4103 37.4661 43.8383 38.859 43.5424 39.834C42.5952 43.0973 41.6483 46.1019 40.5631 49.027Z" fill="#231F20"/>
<path d="M25.4705 26.4232C25.5888 26.264 26.2594 26.0055 27.2065 26.4631C27.2065 26.4631 26.0819 26.6422 26.1805 28.5327L25.7071 28.433C25.727 28.453 25.2337 26.7417 25.4705 26.4232Z" fill="#F7E4CD"/>
<path d="M33.6382 42.5804C33.6382 42.8589 33.4016 43.0978 33.1252 43.0978C32.8491 43.0978 32.6122 42.8589 32.6122 42.5804C32.6122 42.3016 32.8491 42.063 33.1252 42.063C33.4213 42.063 33.6382 42.3016 33.6382 42.5804Z" fill="#1D1919"/>
<path d="M34.1512 44.9881C34.1512 45.2668 33.9145 45.5055 33.6382 45.5055C33.362 45.5055 33.1252 45.2668 33.1252 44.9881C33.1252 44.7093 33.362 44.4707 33.6382 44.4707C33.9342 44.4707 34.1512 44.6897 34.1512 44.9881Z" fill="#1D1919"/>
<path d="M7.28009 75.4326C7.12222 75.4526 6.98423 75.4723 6.86573 75.4923C6.74742 75.5122 6.62912 75.5321 6.47124 75.572C6.29368 75.6117 6.19486 75.6913 6.15549 75.8106C6.11613 75.9301 6.07656 76.0492 6.07656 76.2087V81.0636C6.07651 81.4905 5.98217 81.912 5.80038 82.2975C5.62282 82.6756 5.38601 82.9739 5.07046 83.2326C4.75472 83.4713 4.3996 83.6704 4.00512 83.7897C3.61043 83.9093 3.19606 83.9889 2.76201 83.9889C1.99253 83.9889 1.38112 83.8098 0.907497 83.4316C0.434076 83.0536 0.197266 82.556 0.197266 81.8995C0.197266 81.5215 0.295887 81.203 0.513012 80.9443C0.729939 80.6856 1.026 80.5663 1.4008 80.5663C1.75592 80.5663 2.0321 80.6658 2.24922 80.8848C2.46615 81.1035 2.56477 81.3622 2.56477 81.6608C2.56477 81.9195 2.46615 82.1782 2.28859 82.3968C2.11103 82.6158 1.89411 82.8348 1.6573 83.0139V83.0935C1.69667 83.1729 1.7756 83.2525 1.89391 83.3123C2.01241 83.372 2.1504 83.3919 2.26891 83.3919C2.76201 83.3919 3.1567 83.2128 3.43287 82.8544C3.70925 82.4965 3.84724 81.9592 3.84724 81.2429V76.2682C3.84724 76.129 3.82736 75.9897 3.78799 75.8902C3.74862 75.7907 3.63012 75.7111 3.45256 75.6315C3.33425 75.572 3.17638 75.5321 2.99882 75.4923C2.82126 75.4524 2.68327 75.4326 2.56477 75.4127V74.9351H7.22084V75.4326H7.28009Z" fill="#231F20"/>
<path d="M14.5798 82.2777C14.4418 82.5163 14.2643 82.7351 14.0668 82.9541C13.8696 83.1729 13.6328 83.3321 13.3763 83.4913C13.1001 83.6505 12.8239 83.7701 12.5478 83.8495C12.2714 83.9291 11.9361 83.9688 11.581 83.9688C10.9694 83.9688 10.4564 83.8894 10.0027 83.7101C9.56864 83.531 9.19384 83.3122 8.91767 83.0138C8.6216 82.7152 8.42436 82.3769 8.26649 81.9791C8.12266 81.5633 8.04932 81.126 8.04956 80.6856C8.04956 80.2679 8.1285 79.85 8.28617 79.472C8.44405 79.0938 8.66117 78.7356 8.93735 78.4372C9.21353 78.1388 9.56864 77.8998 10.0027 77.7209C10.4535 77.5351 10.9361 77.4404 11.4232 77.4422C11.9954 77.4422 12.469 77.522 12.8436 77.6611C13.2186 77.8005 13.5145 77.9995 13.7513 78.2383C13.9879 78.4769 14.1458 78.7557 14.2643 79.0739C14.3629 79.3924 14.422 79.7307 14.422 80.0886V80.4867H10.2592C10.2592 81.3424 10.4171 81.9791 10.7523 82.4169C11.068 82.8546 11.6007 83.0734 12.2913 83.0734C12.6859 83.0734 13.0212 82.9739 13.3369 82.7552C13.6521 82.54 13.9206 82.2623 14.1261 81.9392L14.5798 82.2775V82.2777ZM12.2322 79.9096C12.2322 79.6707 12.2125 79.412 12.1928 79.1533C12.173 78.8946 12.1336 78.6759 12.0547 78.5166C11.9757 78.3177 11.897 78.1783 11.7588 78.0789C11.6405 77.9794 11.4824 77.9395 11.3051 77.9395C10.9893 77.9395 10.7328 78.0987 10.5555 78.4172C10.358 78.7354 10.2592 79.2528 10.2397 79.9493L12.2322 79.9096Z" fill="#231F20"/>
<path d="M23.2804 83.7497H19.5713V83.2921C19.6503 83.2921 19.7489 83.272 19.8477 83.2522C19.966 83.2323 20.0448 83.2125 20.1042 83.1926C20.183 83.1527 20.2422 83.0731 20.2816 82.9935C20.3211 82.9139 20.3408 82.7747 20.3408 82.6155V79.7105C20.3408 79.2928 20.2619 78.9743 20.1042 78.7556C19.9461 78.5366 19.7292 78.4371 19.4135 78.4371C19.2556 78.4371 19.0979 78.4572 18.9597 78.5167C18.8216 78.5564 18.6834 78.636 18.5454 78.7355C18.4271 78.8151 18.3284 78.8947 18.2495 78.9942C18.1706 79.0738 18.1113 79.1534 18.0719 79.2328V82.5559C18.0719 82.6953 18.0918 82.8146 18.1312 82.9141C18.1706 83.0137 18.2495 83.0933 18.3284 83.1331C18.3877 83.1728 18.4664 83.2127 18.5651 83.2325L18.8611 83.2923V83.7499H15.1125V83.2923C15.2111 83.2923 15.3098 83.2722 15.4283 83.2524C15.5269 83.2325 15.6255 83.2127 15.7044 83.1928C15.8426 83.1529 15.9214 83.0733 15.9808 82.9738C16.0202 82.8744 16.0596 82.755 16.0596 82.5958V78.9743C16.0596 78.855 16.0202 78.7156 15.9609 78.5963C15.9017 78.4768 15.8031 78.3773 15.7044 78.2977C15.6255 78.258 15.5466 78.1983 15.4281 78.1784C15.3073 78.1377 15.1808 78.1175 15.0535 78.1187V77.661L17.993 77.5018L18.0916 77.6013V78.4969H18.1115C18.2554 78.3774 18.3936 78.2512 18.5257 78.1187C18.671 77.9918 18.8224 77.8723 18.9794 77.7605C19.1373 77.661 19.3345 77.5814 19.5713 77.5018C19.808 77.4222 20.0843 77.4023 20.3605 77.4023C21.0314 77.4023 21.5245 77.6013 21.8599 77.9795C22.1953 78.3575 22.353 78.8749 22.353 79.5116V82.5559C22.353 82.7151 22.3729 82.8347 22.4123 82.9141C22.4518 83.0137 22.5505 83.0733 22.6688 83.1331C22.728 83.1531 22.807 83.1928 22.9056 83.2127C23.0042 83.2327 23.1028 83.2524 23.241 83.2724V83.7497H23.2804Z" fill="#231F20"/>
<path d="M31.764 83.7499H28.8638C28.5579 83.1987 28.2288 82.661 27.8774 82.1382C27.5813 81.7004 27.3051 81.2825 27.0486 80.9243L26.6935 81.2428V82.5958C26.6935 82.735 26.7134 82.8743 26.7528 82.954C26.7922 83.0534 26.8711 83.1132 27.0093 83.1727C27.0882 83.2126 27.1672 83.2325 27.2658 83.2524C27.3644 83.2724 27.463 83.2923 27.5616 83.2923V83.7499H23.7341V83.2923C23.8329 83.2923 23.9315 83.2722 24.0499 83.2524C24.1485 83.2325 24.2471 83.2126 24.3262 83.1928C24.4642 83.1529 24.543 83.0733 24.6022 82.9738C24.6418 82.8743 24.6811 82.755 24.6811 82.5958V75.6713C24.6811 75.5319 24.6418 75.3925 24.5825 75.2534C24.5233 75.114 24.4445 74.9947 24.326 74.9151C24.2471 74.8754 24.1288 74.8156 23.9709 74.7958C23.813 74.7558 23.6751 74.736 23.5369 74.736V74.2784L26.5949 74.1191L26.6935 74.2186V80.6257C26.9896 80.3472 27.3447 80.0289 27.7195 79.6708C28.0943 79.3126 28.4101 79.014 28.627 78.7754C28.7652 78.636 28.8441 78.5365 28.8441 78.4569C28.8638 78.3773 28.8638 78.3376 28.8638 78.3178C28.8638 78.2382 28.8045 78.1784 28.6665 78.1387C28.5284 78.0988 28.3508 78.039 28.0746 77.9993V77.5615H31.1917V77.9993C30.7776 78.1186 30.462 78.2181 30.2449 78.3178C30.0278 78.4172 29.7909 78.5564 29.5347 78.7156C29.3669 78.8303 29.2024 78.9497 29.0414 79.0738C28.8835 79.1931 28.7059 79.3525 28.489 79.5314C28.8835 80.1284 29.2585 80.6656 29.5937 81.1632C29.9291 81.6605 30.2843 82.1979 30.6591 82.755C30.7776 82.954 30.9354 83.0733 31.1327 83.1529C31.3299 83.2126 31.5075 83.2524 31.7047 83.2724V83.7497H31.764V83.7499Z" fill="#231F20"/>
<path d="M35.7099 83.7496H31.8233V83.2919C31.9219 83.2919 32.0402 83.2719 32.1388 83.252C32.2374 83.2322 32.3361 83.2123 32.3953 83.1925C32.5335 83.1526 32.6124 83.073 32.6717 82.9735C32.7308 82.874 32.7504 82.7547 32.7504 82.5955V78.974C32.7504 78.8346 32.7111 78.6953 32.6518 78.596C32.6001 78.488 32.5178 78.398 32.4152 78.3373C32.3361 78.2974 32.2374 78.2378 32.0798 78.1979C31.9219 78.1582 31.7837 78.1183 31.6654 78.1183V77.6607L34.6839 77.5015L34.7825 77.6009V82.5359C34.7825 82.6753 34.8221 82.7946 34.8811 82.9139C34.9404 83.0136 35.039 83.0932 35.1376 83.1329C35.2166 83.1726 35.3152 83.2125 35.414 83.2324C35.5126 83.2524 35.6112 83.2723 35.7296 83.2921V83.7498H35.7097L35.7099 83.7496ZM34.8221 75.293C34.8221 75.6112 34.7036 75.8699 34.467 76.0887C34.2302 76.3077 33.9341 76.427 33.6185 76.427C33.2831 76.427 33.0069 76.3077 32.7504 76.0887C32.5138 75.8699 32.3953 75.5914 32.3953 75.2928C32.3953 74.9745 32.5136 74.7158 32.7504 74.477C32.987 74.2582 33.2833 74.1387 33.6185 74.1387C33.954 74.1387 34.2302 74.2582 34.467 74.477C34.7036 74.696 34.8221 74.9743 34.8221 75.2928V75.293Z" fill="#231F20"/>
<path d="M44.4103 83.7497H40.7013V83.2921C40.7802 83.2921 40.8789 83.272 40.9775 83.2522C41.0958 83.2323 41.1747 83.2125 41.234 83.1926C41.3129 83.1527 41.372 83.0731 41.4115 82.9935C41.4509 82.9139 41.4708 82.7747 41.4708 82.6155V79.7105C41.4708 79.2928 41.3919 78.9743 41.234 78.7556C41.0761 78.5366 40.8592 78.4371 40.5434 78.4371C40.3856 78.4371 40.2277 78.4572 40.0897 78.5167C39.9515 78.5763 39.8133 78.636 39.6753 78.7355C39.557 78.8151 39.4584 78.8947 39.3795 78.9942C39.3005 79.0738 39.2413 79.1534 39.2019 79.2328V82.5559C39.2019 82.6953 39.2216 82.8146 39.261 82.9141C39.3005 83.0137 39.3795 83.0933 39.4584 83.1331C39.5175 83.1728 39.5964 83.2127 39.695 83.2325L39.9911 83.2923V83.7499H36.2425V83.2923C36.3411 83.2923 36.4397 83.2722 36.5582 83.2524C36.6568 83.2325 36.7555 83.2127 36.8344 83.1928C36.9724 83.1529 37.0513 83.0733 37.1106 82.9738C37.15 82.8744 37.1895 82.755 37.1895 82.5958V78.9743C37.1895 78.855 37.15 78.7156 37.0909 78.5963C37.0316 78.4768 36.933 78.3773 36.8344 78.2977C36.7555 78.258 36.6765 78.1983 36.558 78.1784C36.4372 78.1377 36.3106 78.1175 36.1832 78.1187V77.661L39.123 77.5018L39.2216 77.6013V78.4969H39.2415C39.3854 78.3774 39.5236 78.2512 39.6556 78.1187C39.801 77.9918 39.9524 77.8723 40.1094 77.7605C40.2673 77.661 40.4645 77.5814 40.7013 77.5018C40.9379 77.4222 41.2143 77.4023 41.4905 77.4023C42.1611 77.4023 42.6544 77.6013 42.9897 77.9795C43.3253 78.3575 43.483 78.8749 43.483 79.5116V82.5559C43.483 82.7151 43.5029 82.8347 43.5422 82.9141C43.5818 83.0137 43.6804 83.0733 43.7987 83.1331C43.858 83.1531 43.9369 83.1928 44.0353 83.2127C44.1342 83.2327 44.2328 83.2524 44.371 83.2724V83.7497H44.4103Z" fill="#231F20"/>
<path d="M47.8233 83.9688C47.4288 83.9688 47.0343 83.9092 46.6595 83.7897C46.2845 83.6704 45.9887 83.5511 45.7717 83.4117L45.5942 83.8296H45.1206L45.0416 81.5214H45.4954C45.5546 81.7005 45.6532 81.9193 45.8111 82.1581C45.9493 82.3968 46.1269 82.5959 46.3042 82.7949C46.5079 82.9809 46.7331 83.1413 46.9751 83.2725C47.2316 83.3918 47.4881 83.4715 47.7644 83.4715C48.1392 83.4715 48.4154 83.3918 48.593 83.2525C48.7705 83.1133 48.8692 82.8745 48.8692 82.5761C48.8692 82.4168 48.8296 82.2775 48.7507 82.1581C48.6719 82.0587 48.5534 81.9592 48.4154 81.8794C48.2576 81.8 48.08 81.7204 47.8826 81.6608C47.6853 81.6011 47.4487 81.5413 47.1725 81.4418C46.8961 81.3622 46.6595 81.2826 46.4621 81.1831C46.2648 81.1035 46.0479 80.9642 45.8505 80.7851C45.6729 80.6261 45.5152 80.4269 45.4166 80.2081C45.2981 79.9891 45.2588 79.7108 45.2588 79.3924C45.2588 78.8152 45.4954 78.3375 45.9887 77.9796C46.4818 77.6214 47.1133 77.4421 47.9024 77.4421C48.2772 77.4421 48.6127 77.4822 48.9284 77.5617C49.244 77.6413 49.5005 77.7209 49.7176 77.8204L49.8556 77.4622H50.329L50.4278 79.5714H49.9938C49.8556 79.1337 49.5991 78.7753 49.2636 78.4571C48.9085 78.1388 48.5337 77.9796 48.1392 77.9796C47.8235 77.9796 47.567 78.0391 47.3894 78.1785C47.2119 78.3179 47.1131 78.497 47.1131 78.7356C47.1131 79.0541 47.2513 79.273 47.5078 79.4122C47.7642 79.5516 48.1392 79.691 48.6127 79.8101C49.3426 80.0092 49.8753 80.2679 50.2304 80.5861C50.5658 80.9245 50.7434 81.3422 50.7434 81.8397C50.7434 82.5163 50.4869 83.0535 49.9542 83.4119C49.3623 83.7699 48.6717 83.9688 47.8235 83.9688H47.8233Z" fill="#231F20"/>
</g>
<defs>
<clipPath id="clip0">
<rect y="0.376465" width="50.9012" height="83.6235" fill="white"/>
</clipPath>
</defs>
</svg>
