<svg width="51" height="50" viewBox="0 0 51 50" fill="none" xmlns="http://www.w3.org/2000/svg">
<g clip-path="url(#clip0)">
<path d="M0.966064 0.907471H50.9583V49.9908H0.966064V0.907471Z" fill="#F7DF1E"/>
<path d="M14.1109 41.9254L17.9365 39.6522C18.6747 40.937 19.346 42.0242 20.9565 42.0242C22.5002 42.0242 23.4737 41.4313 23.4737 39.1252V23.4419H28.1716V39.1904C28.1716 43.9678 25.3193 46.1424 21.1579 46.1424C17.3997 46.1424 15.2182 44.2314 14.1107 41.925" fill="black"/>
<path d="M30.7233 41.431L34.5485 39.2566C35.5556 40.8712 36.8644 42.0572 39.1797 42.0572C41.1264 42.0572 42.3676 41.1016 42.3676 39.7837C42.3676 38.2023 41.0924 37.642 38.9447 36.7198L37.7705 36.2251C34.381 34.8088 32.1327 33.0295 32.1327 29.2735C32.1327 25.8139 34.8172 23.178 39.0121 23.178C41.9988 23.178 44.1465 24.1995 45.69 26.8682L42.0319 29.1748C41.2264 27.7581 40.3543 27.198 39.0119 27.198C37.6359 27.198 36.7634 28.0547 36.7634 29.1748C36.7634 30.5585 37.6359 31.1189 39.6493 31.9756L40.8237 32.4697C44.8173 34.1502 47.0655 35.8633 47.0655 39.7179C47.0655 43.8697 43.7434 46.1428 39.2802 46.1428C34.9178 46.1428 32.0989 44.1001 30.7231 41.4312" fill="black"/>
</g>
<defs>
<clipPath id="clip0">
<rect x="0.966064" y="0.907471" width="49.9923" height="49.0833" fill="white"/>
</clipPath>
</defs>
</svg>
