<svg width="53" height="52" viewBox="0 0 53 52" fill="none" xmlns="http://www.w3.org/2000/svg">
<g clip-path="url(#clip0)">
<path d="M35.9252 12.8838C35.6769 12.8838 35.5085 12.9135 35.3337 12.9538V12.9814H35.3639C35.4805 13.202 35.6791 13.3632 35.8259 13.5604C35.9424 13.7873 36.0417 14.0143 36.1583 14.2391L36.1885 14.2073C36.3915 14.0673 36.4908 13.8425 36.4908 13.501C36.4044 13.4013 36.3915 13.3017 36.3181 13.2041C36.2317 13.062 36.0461 12.992 35.9295 12.8796L35.9252 12.8838ZM12.9668 40.8668H10.9656C10.9093 37.7423 10.7149 34.6216 10.3827 31.5137H10.3655L7.32162 40.8668H5.7997L2.77744 31.5137H2.75585C2.51945 34.6265 2.37907 37.7456 2.33489 40.8668H0.510742C0.629474 36.6971 0.925224 32.7862 1.39583 29.1383H3.8784L6.76035 37.7576H6.77762L9.68546 29.1383H12.0493C12.5717 33.4119 12.8783 37.3249 12.9732 40.8668H12.9668ZM21.6385 32.2136C20.8225 36.5508 19.7474 39.7067 18.4176 41.6727C17.3771 43.1913 16.2373 43.9484 15.0003 43.9484C14.67 43.9484 14.2663 43.8509 13.7785 43.6557V42.608C14.0159 42.6441 14.2966 42.6632 14.6117 42.6632C15.1903 42.6632 15.6544 42.5041 16.0085 42.1923C16.4337 41.8106 16.6453 41.3822 16.6453 40.9092C16.6453 40.5805 16.4791 39.9124 16.1488 38.9071L13.9598 32.2136H15.9243L17.4937 37.2189C17.8477 38.3557 17.9967 39.1489 17.9362 39.6006C18.7997 37.344 19.3999 34.8774 19.7388 32.2136H21.6385ZM48.2452 40.8668H42.5677V29.1383H44.4782V39.4246H48.2452V40.8668ZM41.0781 41.1531L38.8848 40.0927C39.0791 39.9315 39.2669 39.7576 39.4353 39.5624C40.37 38.4893 40.8342 36.8944 40.8342 34.7841C40.8342 30.9029 39.2842 28.9601 36.1821 28.9601C34.6623 28.9601 33.475 29.4522 32.6201 30.4384C31.6918 31.5158 31.2255 33.1022 31.2255 35.1998C31.2255 37.2613 31.6357 38.7756 32.4647 39.7385C33.2202 40.608 34.3579 41.0428 35.882 41.0428C36.4519 41.0428 36.9743 40.9728 37.4471 40.835L40.3074 42.4723L41.0846 41.1531H41.0781ZM33.9715 38.519C33.4858 37.7554 33.244 36.5253 33.244 34.8371C33.244 31.8827 34.1593 30.4045 35.9856 30.4045C36.9419 30.4045 37.6479 30.7586 38.0947 31.4649C38.5783 32.2327 38.8201 33.4501 38.8201 35.1192C38.8201 38.0969 37.9047 39.59 36.0784 39.59C35.1178 39.59 34.4162 39.2358 33.9672 38.5296L33.9715 38.519ZM30.3923 37.6176C30.3923 38.6144 30.021 39.4331 29.2783 40.0693C28.5357 40.7056 27.5449 41.0237 26.2906 41.0237C25.1184 41.0237 23.9937 40.6589 22.8949 39.9315L23.4065 38.9219C24.3521 39.3885 25.2048 39.6176 25.9754 39.6176C26.6922 39.6176 27.2556 39.4628 27.6658 39.151C27.8708 38.9992 28.0363 38.8018 28.1488 38.5752C28.2614 38.3485 28.3178 38.0988 28.3134 37.8466C28.3134 37.1468 27.8169 36.5529 26.9145 36.0545C26.0769 35.6027 24.4039 34.6611 24.4039 34.6611C23.4929 34.01 23.0395 33.3122 23.0395 32.1648C23.0395 31.2104 23.3785 30.4469 24.0542 29.8636C24.7342 29.274 25.6085 28.9835 26.6878 28.9835C27.7931 28.9835 28.8034 29.2719 29.7101 29.853L29.2503 30.8626C28.5258 30.5499 27.7446 30.384 26.9534 30.3748C26.3424 30.3748 25.8697 30.519 25.5415 30.8117C25.375 30.9472 25.2408 31.1169 25.1483 31.309C25.0558 31.501 25.0073 31.7106 25.0062 31.923C25.0062 32.6187 25.5113 33.2168 26.4439 33.7258C27.2923 34.1818 29.0063 35.1468 29.0063 35.1468C29.9411 35.7936 30.4052 36.4829 30.4052 37.624L30.3923 37.6176ZM50.6457 25.2062C49.4908 25.1765 48.5949 25.291 47.8458 25.6049C47.6299 25.6897 47.2845 25.6897 47.2543 25.9591C47.3731 26.0715 47.3903 26.256 47.4918 26.413C47.6645 26.6972 47.9624 27.0768 48.2387 27.2762C48.5409 27.5095 48.8432 27.7343 49.1605 27.9336C49.7218 28.273 50.3586 28.4745 50.9091 28.8159C51.2221 29.0153 51.5416 29.2677 51.859 29.4798C52.0165 29.5858 52.118 29.7767 52.3209 29.8445V29.8021C52.2216 29.6749 52.1914 29.4904 52.0943 29.3483C51.9496 29.2062 51.805 29.0789 51.6625 28.9389C51.2387 28.3902 50.7328 27.9075 50.1622 27.5073C49.7002 27.1977 48.6899 26.765 48.4999 26.2454L48.4719 26.2157C48.787 26.1881 49.1627 26.0757 49.4649 25.9909C49.9549 25.8636 50.4039 25.8912 50.9113 25.7661C51.1401 25.7088 51.3711 25.6388 51.6021 25.5667V25.4395C51.343 25.185 51.1487 24.8393 50.881 24.6017C50.1339 23.9601 49.337 23.3765 48.4978 22.8562C48.0444 22.572 47.4702 22.3896 46.9931 22.1479C46.8204 22.063 46.5311 22.0206 46.4318 21.8785C46.1728 21.5689 46.0217 21.1574 45.8382 20.7884C45.4143 19.9805 45.0204 19.1578 44.6573 18.3218C44.3983 17.7661 44.2407 17.2126 43.9234 16.7035C42.4338 14.2921 40.8212 12.8308 38.3408 11.4013C37.8076 11.1044 37.1686 10.9772 36.4929 10.8202C36.1324 10.8032 35.7719 10.7778 35.4135 10.763C35.1761 10.6633 34.9472 10.3939 34.7443 10.2645C33.924 9.75553 31.7998 8.65267 31.1953 10.1118C30.8067 11.0323 31.7717 11.94 32.1063 12.4066C32.3546 12.7311 32.6676 13.1023 32.8403 13.4671C32.9418 13.7131 32.9698 13.9655 33.0713 14.2221C33.3001 14.8457 33.5181 15.5413 33.8204 16.1245C33.978 16.4215 34.1507 16.7332 34.3536 17.0005C34.4702 17.1553 34.6688 17.2274 34.7141 17.4819C34.5112 17.7704 34.4982 18.1903 34.3816 18.5424C33.8635 20.1479 34.0665 22.133 34.8004 23.3143C35.0314 23.6664 35.5819 24.4469 36.3181 24.1479C36.9657 23.8933 36.8232 23.0874 37.0089 22.3769C37.052 22.2072 37.024 22.0948 37.1125 21.9803V22.0121C37.3154 22.4108 37.5183 22.7905 37.704 23.1892C38.1487 23.8849 38.9258 24.606 39.5756 25.0874C39.921 25.3419 40.1952 25.7831 40.6269 25.94V25.8976H40.5946C40.5017 25.7746 40.3787 25.7152 40.2621 25.6155C39.9884 25.3523 39.7358 25.0686 39.5065 24.7672C38.8983 23.9507 38.359 23.0867 37.8939 22.1839C37.6565 21.7385 37.4579 21.2592 37.2679 20.8202C37.1816 20.6505 37.1816 20.396 37.0369 20.3112C36.821 20.6208 36.5037 20.8902 36.3461 21.2719C36.072 21.8827 36.0439 22.6335 35.9403 23.414C35.882 23.4289 35.91 23.414 35.882 23.4437C35.42 23.3334 35.2624 22.8626 35.0897 22.4681C34.658 21.4607 34.5867 19.8425 34.9602 18.6823C35.0617 18.3854 35.4934 17.448 35.3207 17.1638C35.23 16.8944 34.9451 16.7396 34.7875 16.5212C34.5848 16.2368 34.4112 15.9335 34.2694 15.6155C33.924 14.8223 33.7513 13.9443 33.3757 13.1511C33.203 12.7842 32.9007 12.4003 32.6546 12.0631C32.3805 11.6813 32.0783 11.4119 31.8602 10.9602C31.789 10.8054 31.6875 10.5487 31.8019 10.3791C31.8322 10.2645 31.8926 10.22 32.0049 10.1882C32.1948 10.0355 32.728 10.2349 32.9159 10.3197C33.4491 10.5318 33.8981 10.7311 34.345 11.0281C34.5479 11.168 34.7659 11.4374 35.025 11.5074H35.3272C35.7892 11.6071 36.3094 11.5371 36.7412 11.6622C37.5075 11.904 38.1983 12.2561 38.8179 12.6378C40.727 13.8359 42.2797 15.5085 43.3189 17.4862C43.4916 17.8128 43.5672 18.1118 43.7248 18.4512C44.027 19.151 44.4004 19.8573 44.707 20.5339C45.0092 21.2019 45.3006 21.8827 45.7346 22.4363C45.9504 22.7332 46.8183 22.888 47.2068 23.0429C47.4939 23.1701 47.9408 23.2868 48.1999 23.4416C48.6964 23.7385 49.1799 24.0779 49.6462 24.4045C49.8837 24.5657 50.6026 24.9199 50.6457 25.2062Z" fill="#ED6663"/>
</g>
<defs>
<clipPath id="clip0">
<rect x="0.510742" y="0.845703" width="51.8102" height="50.9012" fill="white"/>
</clipPath>
</defs>
</svg>
