<svg width="54" height="54" viewBox="0 0 54 54" fill="none" xmlns="http://www.w3.org/2000/svg">
<g clip-path="url(#clip0)">
<path d="M26.588 0.0744629C13.0067 0.0744629 13.8547 5.98722 13.8547 5.98722L13.8698 12.113H26.8302V13.9521H8.72212C8.72212 13.9521 0.0314331 12.9627 0.0314331 26.7198C0.0314331 40.4774 7.61687 39.9895 7.61687 39.9895H12.1438V33.6055C12.1438 33.6055 11.8998 25.9903 19.6082 25.9903H32.4626C32.4626 25.9903 39.6846 26.1074 39.6846 18.9831V7.20342C39.6846 7.20342 40.7814 0.0744629 26.588 0.0744629ZM19.4417 4.19394C19.7479 4.19366 20.0512 4.25402 20.3342 4.37155C20.6172 4.48909 20.8744 4.66149 21.0909 4.8789C21.3075 5.09631 21.4792 5.35446 21.5963 5.63857C21.7134 5.92268 21.7735 6.22718 21.7732 6.53465C21.7735 6.84211 21.7134 7.14661 21.5963 7.43073C21.4792 7.71484 21.3075 7.97299 21.0909 8.1904C20.8744 8.40781 20.6172 8.58021 20.3342 8.69774C20.0512 8.81528 19.7479 8.87563 19.4417 8.87536C19.1354 8.87563 18.8321 8.81528 18.5491 8.69774C18.2661 8.58021 18.0089 8.40781 17.7924 8.1904C17.5758 7.97299 17.4041 7.71484 17.287 7.43073C17.1699 7.14661 17.1098 6.84211 17.1101 6.53465C17.1098 6.22718 17.1699 5.92268 17.287 5.63857C17.4041 5.35446 17.5758 5.09631 17.7924 4.8789C18.0089 4.66149 18.2661 4.48909 18.5491 4.37155C18.8321 4.25402 19.1354 4.19366 19.4417 4.19394Z" fill="url(#paint0_linear)"/>
<path d="M26.9726 53.5029C40.5539 53.5029 39.7059 47.5901 39.7059 47.5901L39.6909 41.4646H26.7302V39.6254H44.8383C44.8383 39.6254 53.529 40.6149 53.529 26.8573C53.529 13.0999 45.9436 13.5878 45.9436 13.5878H41.4166V19.9717C41.4166 19.9717 41.6606 27.5869 33.9522 27.5869H21.0978C21.0978 27.5869 13.8758 27.4697 13.8758 34.5943V46.3741C13.8758 46.3741 12.7792 53.5029 26.9724 53.5029H26.9726ZM34.119 49.3838C33.8127 49.3841 33.5094 49.3238 33.2264 49.2062C32.9434 49.0887 32.6863 48.9163 32.4697 48.6989C32.2531 48.4815 32.0814 48.2233 31.9643 47.9392C31.8473 47.6551 31.7871 47.3506 31.7874 47.0431C31.7871 46.7356 31.8472 46.4311 31.9643 46.147C32.0813 45.8629 32.2531 45.6047 32.4696 45.3872C32.6862 45.1698 32.9433 44.9974 33.2264 44.8798C33.5094 44.7623 33.8127 44.7019 34.119 44.7022C34.4252 44.7019 34.7286 44.7623 35.0116 44.8798C35.2946 44.9974 35.5517 45.1698 35.7683 45.3872C35.9848 45.6046 36.1566 45.8627 36.2736 46.1468C36.3907 46.431 36.4508 46.7355 36.4506 47.0429C36.4508 47.3504 36.3907 47.6549 36.2736 47.939C36.1566 48.2231 35.9848 48.4813 35.7683 48.6987C35.5517 48.9161 35.2946 49.0885 35.0116 49.206C34.7286 49.3236 34.4252 49.3839 34.119 49.3836V49.3838Z" fill="url(#paint1_linear)"/>
</g>
<defs>
<linearGradient id="paint0_linear" x1="5.17263" y1="4.88009" x2="31.7876" y2="31.1267" gradientUnits="userSpaceOnUse">
<stop stop-color="#387EB8"/>
<stop offset="1" stop-color="#366994"/>
</linearGradient>
<linearGradient id="paint1_linear" x1="21.4448" y1="21.8003" x2="50.0211" y2="48.7088" gradientUnits="userSpaceOnUse">
<stop stop-color="#FFE052"/>
<stop offset="1" stop-color="#FFC331"/>
</linearGradient>
<clipPath id="clip0">
<rect y="0.0585938" width="53.6281" height="53.6281" fill="white"/>
</clipPath>
</defs>
</svg>
