<svg width="50" height="38" viewBox="0 0 50 38" fill="none" xmlns="http://www.w3.org/2000/svg">
<g clip-path="url(#clip0)">
<path d="M43.0188 21.707C41.2796 21.7159 39.7679 22.1323 38.5023 22.7477C38.0377 21.8335 37.5733 21.0191 37.4915 20.4217C37.4003 19.7248 37.2912 19.2994 37.4003 18.4667C37.5097 17.634 38.0014 16.4483 37.9922 16.3578C37.9832 16.2674 37.8829 15.8419 36.8813 15.833C35.8797 15.8238 35.0146 16.023 34.9144 16.2854C34.8142 16.5478 34.623 17.1453 34.4955 17.7606C34.3225 18.6658 32.4923 21.8968 31.4452 23.5894C31.1081 22.9288 30.8168 22.3494 30.7529 21.8879C30.6619 21.1911 30.5526 20.7656 30.6619 19.9329C30.7713 19.1002 31.263 17.9147 31.2538 17.824C31.2446 17.7336 31.1445 17.3081 30.1429 17.2992C29.1411 17.2901 28.276 17.4892 28.176 17.7516C28.0758 18.0143 27.9664 18.6295 27.7571 19.227C27.5476 19.8244 25.1163 25.2188 24.4789 26.6124C24.2213 27.1765 23.9511 27.7348 23.6685 28.2869C23.6685 28.2869 23.6593 28.3141 23.6319 28.3593C23.5432 28.5324 23.4521 28.7044 23.3589 28.8752V28.8842C23.2222 29.1287 23.0766 29.3549 23.0037 29.3549C22.949 29.3549 22.8489 28.7033 23.0219 27.8162C23.3861 25.9428 24.2512 23.0284 24.2422 22.9288C24.2422 22.8745 24.406 22.3677 23.6776 22.1051C22.9672 21.8427 22.7124 22.277 22.6485 22.277C22.5848 22.277 22.5391 22.431 22.5391 22.431C22.5391 22.431 23.3316 19.1546 21.0277 19.1546C19.589 19.1546 17.6038 20.7204 16.6203 22.1323C15.5024 22.7369 14.3854 23.3434 13.2693 23.9515C12.7323 24.2503 12.1767 24.549 11.6576 24.8294C11.6211 24.7933 11.5848 24.7479 11.5483 24.7118C8.76178 21.7522 3.60789 19.6614 3.82641 15.6882C3.90843 14.24 4.40913 10.4386 13.7247 5.82271C21.3919 2.06651 27.4931 3.10727 28.5494 5.4153C30.0608 8.70993 25.2803 14.8283 17.3579 15.7151C14.3347 16.0502 12.7502 14.8916 12.3497 14.4572C11.9308 14.0046 11.867 13.9774 11.7121 14.068C11.4573 14.2039 11.6211 14.6111 11.7121 14.8464C11.949 15.4617 12.9232 16.5478 14.5714 17.082C16.0284 17.5525 19.5707 17.8151 23.8596 16.1678C28.6585 14.3213 32.4103 9.18955 31.3085 4.89045C30.2065 0.527887 22.9217 -0.911162 16.0284 1.52342C11.9308 2.97179 7.48698 5.25245 4.29079 8.22119C0.493525 11.7509 -0.107554 14.8192 0.138306 16.1045C1.02176 20.666 7.35047 23.6348 9.88192 25.8341C9.7544 25.9065 9.63586 25.97 9.53588 26.0243C8.27006 26.6487 3.44385 29.1557 2.24189 31.8077C0.876083 34.8125 2.4606 36.9668 3.50771 37.2562C6.75857 38.1524 10.1004 36.5414 11.8943 33.8803C13.6882 31.2194 13.4696 27.7619 12.6411 26.178C12.6319 26.16 12.6229 26.1418 12.6045 26.1237C12.9324 25.9337 13.2693 25.7345 13.5972 25.5445C14.1998 25.1904 14.8101 24.8494 15.4275 24.5216C15.1178 25.3634 14.8901 26.3681 14.781 27.8162C14.6443 29.5179 15.3453 31.7262 16.2651 32.595C16.675 32.9754 17.1576 32.9843 17.4673 32.9843C18.5417 32.9843 19.0245 32.0973 19.5617 31.0474C20.2172 29.7623 20.8091 28.2689 20.8091 28.2689C20.8091 28.2689 20.0716 32.3056 22.075 32.3056C22.8034 32.3056 23.5409 31.3642 23.8688 30.8846V30.8935C23.8688 30.8935 23.887 30.8663 23.9235 30.803C23.9963 30.6854 24.0418 30.6128 24.0418 30.6128V30.595C24.3332 30.088 24.989 28.9385 25.9632 27.0288C27.2199 24.567 28.431 21.4898 28.431 21.4898C28.431 21.4898 28.5404 22.2409 28.9136 23.49C29.1323 24.2231 29.5873 25.0286 29.9517 25.8069C29.6603 26.2143 29.4781 26.4405 29.4781 26.4405L29.4873 26.4496C29.2504 26.7572 28.9956 27.0921 28.7132 27.4181C27.7206 28.5946 26.537 29.9434 26.3729 30.3323C26.1816 30.7939 26.2272 31.1289 26.5916 31.4005C26.8557 31.5996 27.329 31.6266 27.8118 31.5996C28.7042 31.5361 29.3324 31.3189 29.642 31.1833C30.1247 31.0113 30.6893 30.7487 31.2173 30.3595C32.1918 29.6445 32.7835 28.6218 32.729 27.2733C32.7016 26.5311 32.4558 25.7889 32.1552 25.0919C32.2464 24.9653 32.3283 24.8386 32.4195 24.7118C33.9583 22.4762 35.1513 20.0234 35.1513 20.0234C35.1513 20.0234 35.2606 20.7745 35.6338 22.0238C35.816 22.6573 36.1894 23.3452 36.5171 24.0148C35.0692 25.1825 34.1768 26.54 33.8581 27.4271C33.2846 29.0744 33.7306 29.8164 34.5775 29.9884C34.9599 30.0699 35.5063 29.8888 35.907 29.7169C36.4169 29.554 37.018 29.2735 37.5917 28.857C38.5662 28.1421 39.5039 27.1464 39.4492 25.798C39.4219 25.1825 39.258 24.576 39.0303 23.9876C40.2597 23.481 41.8442 23.2004 43.8655 23.4356C48.2002 23.9424 49.0561 26.6305 48.8921 27.7621C48.7283 28.8933 47.8177 29.5088 47.5173 29.6988C47.2166 29.889 47.1166 29.9523 47.1439 30.088C47.1803 30.2871 47.3259 30.2782 47.581 30.2419C47.9362 30.1786 49.8576 29.3277 49.9394 27.246C50.0761 24.5851 47.5263 21.6798 43.0188 21.707ZM9.58138 32.9119C8.14254 34.4686 6.13933 35.0569 5.27423 34.5592C4.34547 34.0251 4.70967 31.7262 6.4762 30.079C7.55064 29.0744 8.9348 28.1419 9.85458 27.5719C10.0639 27.4451 10.3736 27.2642 10.747 27.0379C10.8107 27.0016 10.8472 26.9836 10.8472 26.9836L11.0657 26.8477C11.7121 29.2009 11.0931 31.2737 9.58138 32.9119ZM20.0534 25.8341C19.5525 27.047 18.5054 30.1514 17.868 29.9795C17.3216 29.8347 16.9845 27.4814 17.7586 25.1553C18.1502 23.9876 18.9788 22.5938 19.4615 22.0509C20.2446 21.1819 21.1097 20.8922 21.319 21.2454C21.5832 21.707 20.3629 25.0738 20.0534 25.8341ZM28.695 29.9432C28.4855 30.0519 28.2853 30.1243 28.1941 30.0699C28.1305 30.0336 28.2853 29.8888 28.2853 29.8888C28.2853 29.8888 29.369 28.7304 29.7968 28.2054C30.0429 27.8978 30.334 27.5358 30.6438 27.1284V27.246C30.6438 28.6309 29.2959 29.5631 28.6948 29.9432H28.695ZM35.3606 28.4317C35.2057 28.323 35.2331 27.961 35.7521 26.8296C35.9525 26.3861 36.4259 25.6441 37.2365 24.929C37.3275 25.2186 37.3913 25.4993 37.3822 25.7617C37.373 27.5086 36.1165 28.1602 35.3606 28.4317Z" fill="#CD6799"/>
</g>
<defs>
<clipPath id="clip0">
<rect y="0.254639" width="49.9923" height="37.267" fill="white"/>
</clipPath>
</defs>
</svg>
