<svg viewBox="0 0 399 278" fill="none" xmlns="http://www.w3.org/2000/svg">
    <path opacity="0.1"
          d="M101.501 111.39H59.2409C57.7443 111.39 56.5311 112.607 56.5311 114.108V123.128C56.5311 124.629 57.7443 125.846 59.2409 125.846H101.501C102.997 125.846 104.21 124.629 104.21 123.128V114.108C104.21 112.607 102.997 111.39 101.501 111.39Z"
          fill="#5335EC"/>
    <path opacity="0.1"
          d="M151.398 125.85H109.138C107.641 125.85 106.428 127.067 106.428 128.568V137.588C106.428 139.089 107.641 140.306 109.138 140.306H151.398C152.894 140.306 154.107 139.089 154.107 137.588V128.568C154.107 127.067 152.894 125.85 151.398 125.85Z"
          fill="#5335EC"/>
    <path opacity="0.1"
          d="M201.298 140.306H159.038C157.542 140.306 156.328 141.523 156.328 143.024V152.044C156.328 153.545 157.542 154.762 159.038 154.762H201.298C202.795 154.762 204.008 153.545 204.008 152.044V143.024C204.008 141.523 202.795 140.306 201.298 140.306Z"
          fill="#5335EC"/>
    <path opacity="0.1"
          d="M101.501 89.7062H59.2409C57.7443 89.7062 56.5311 90.923 56.5311 92.424V101.444C56.5311 102.945 57.7443 104.162 59.2409 104.162H101.501C102.997 104.162 104.21 102.945 104.21 101.444V92.424C104.21 90.923 102.997 89.7062 101.501 89.7062Z"
          fill="#5335EC"/>
    <path opacity="0.1"
          d="M151.398 104.162H109.138C107.641 104.162 106.428 105.379 106.428 106.88V115.9C106.428 117.401 107.641 118.618 109.138 118.618H151.398C152.894 118.618 154.107 117.401 154.107 115.9V106.88C154.107 105.379 152.894 104.162 151.398 104.162Z"
          fill="#5335EC"/>
    <path opacity="0.1"
          d="M201.298 118.622H159.038C157.542 118.622 156.328 119.839 156.328 121.34V130.36C156.328 131.861 157.542 133.078 159.038 133.078H201.298C202.795 133.078 204.008 131.861 204.008 130.36V121.34C204.008 119.839 202.795 118.622 201.298 118.622Z"
          fill="#5335EC"/>
    <path opacity="0.1"
          d="M256.739 111.39H214.479C212.982 111.39 211.769 112.607 211.769 114.108V123.128C211.769 124.629 212.982 125.846 214.479 125.846H256.739C258.235 125.846 259.448 124.629 259.448 123.128V114.108C259.448 112.607 258.235 111.39 256.739 111.39Z"
          fill="#5335EC"/>
    <path opacity="0.1"
          d="M306.636 125.85H264.376C262.879 125.85 261.666 127.067 261.666 128.568V137.588C261.666 139.089 262.879 140.306 264.376 140.306H306.636C308.132 140.306 309.345 139.089 309.345 137.588V128.568C309.345 127.067 308.132 125.85 306.636 125.85Z"
          fill="#5335EC"/>
    <path opacity="0.1"
          d="M356.536 140.306H314.276C312.78 140.306 311.566 141.523 311.566 143.024V152.044C311.566 153.545 312.78 154.762 314.276 154.762H356.536C358.033 154.762 359.246 153.545 359.246 152.044V143.024C359.246 141.523 358.033 140.306 356.536 140.306Z"
          fill="#5335EC"/>
    <path opacity="0.1"
          d="M256.739 89.7062H214.479C212.982 89.7062 211.769 90.923 211.769 92.424V101.444C211.769 102.945 212.982 104.162 214.479 104.162H256.739C258.235 104.162 259.448 102.945 259.448 101.444V92.424C259.448 90.923 258.235 89.7062 256.739 89.7062Z"
          fill="#5335EC"/>
<path opacity="0.1" d="M306.636 104.162H264.376C262.879 104.162 261.666 105.379 261.666 106.88V115.9C261.666 117.401 262.879 118.618 264.376 118.618H306.636C308.132 118.618 309.345 117.401 309.345 115.9V106.88C309.345 105.379 308.132 104.162 306.636 104.162Z" fill="#5335EC"/>
<path opacity="0.1" d="M356.536 118.622H314.276C312.78 118.622 311.566 119.839 311.566 121.34V130.36C311.566 131.861 312.78 133.078 314.276 133.078H356.536C358.033 133.078 359.246 131.861 359.246 130.36V121.34C359.246 119.839 358.033 118.622 356.536 118.622Z" fill="#5335EC"/>
<path opacity="0.1" d="M101.501 60.7905H59.2409C57.7443 60.7905 56.5311 62.0073 56.5311 63.5083V72.5287C56.5311 74.0297 57.7443 75.2465 59.2409 75.2465H101.501C102.997 75.2465 104.21 74.0297 104.21 72.5287V63.5083C104.21 62.0073 102.997 60.7905 101.501 60.7905Z" fill="#5335EC"/>
<path opacity="0.1" d="M151.398 75.2466H109.138C107.641 75.2466 106.428 76.4634 106.428 77.9644V86.9848C106.428 88.4858 107.641 89.7026 109.138 89.7026H151.398C152.894 89.7026 154.107 88.4858 154.107 86.9848V77.9644C154.107 76.4634 152.894 75.2466 151.398 75.2466Z" fill="#5335EC"/>
<path opacity="0.1" d="M201.298 89.7062H159.038C157.542 89.7062 156.328 90.923 156.328 92.424V101.444C156.328 102.945 157.542 104.162 159.038 104.162H201.298C202.795 104.162 204.008 102.945 204.008 101.444V92.424C204.008 90.923 202.795 89.7062 201.298 89.7062Z" fill="#5335EC"/>
<path opacity="0.1" d="M101.501 39.1029H59.2409C57.7443 39.1029 56.5311 40.3197 56.5311 41.8207V50.8411C56.5311 52.3421 57.7443 53.5589 59.2409 53.5589H101.501C102.997 53.5589 104.21 52.3421 104.21 50.8411V41.8207C104.21 40.3197 102.997 39.1029 101.501 39.1029Z" fill="#5335EC"/>
<path opacity="0.1" d="M151.398 53.5626H109.138C107.641 53.5626 106.428 54.7794 106.428 56.2804V65.3007C106.428 66.8017 107.641 68.0186 109.138 68.0186H151.398C152.894 68.0186 154.107 66.8017 154.107 65.3007V56.2804C154.107 54.7794 152.894 53.5626 151.398 53.5626Z" fill="#5335EC"/>
<path opacity="0.1" d="M201.298 68.0186H159.038C157.542 68.0186 156.328 69.2354 156.328 70.7364V79.7567C156.328 81.2578 157.542 82.4746 159.038 82.4746H201.298C202.795 82.4746 204.008 81.2578 204.008 79.7567V70.7364C204.008 69.2354 202.795 68.0186 201.298 68.0186Z" fill="#5335EC"/>
<path opacity="0.1" d="M256.739 60.7905H214.479C212.982 60.7905 211.769 62.0073 211.769 63.5083V72.5287C211.769 74.0297 212.982 75.2465 214.479 75.2465H256.739C258.235 75.2465 259.448 74.0297 259.448 72.5287V63.5083C259.448 62.0073 258.235 60.7905 256.739 60.7905Z" fill="#5335EC"/>
<path opacity="0.1" d="M306.636 75.2466H264.376C262.879 75.2466 261.666 76.4634 261.666 77.9644V86.9848C261.666 88.4858 262.879 89.7026 264.376 89.7026H306.636C308.132 89.7026 309.345 88.4858 309.345 86.9848V77.9644C309.345 76.4634 308.132 75.2466 306.636 75.2466Z" fill="#5335EC"/>
<path opacity="0.1" d="M356.536 89.7062H314.276C312.78 89.7062 311.566 90.923 311.566 92.424V101.444C311.566 102.945 312.78 104.162 314.276 104.162H356.536C358.033 104.162 359.246 102.945 359.246 101.444V92.424C359.246 90.923 358.033 89.7062 356.536 89.7062Z" fill="#5335EC"/>
<path opacity="0.1" d="M256.739 39.1029H214.479C212.982 39.1029 211.769 40.3197 211.769 41.8207V50.8411C211.769 52.3421 212.982 53.5589 214.479 53.5589H256.739C258.235 53.5589 259.448 52.3421 259.448 50.8411V41.8207C259.448 40.3197 258.235 39.1029 256.739 39.1029Z" fill="#5335EC"/>
<path opacity="0.1" d="M306.636 53.5626H264.376C262.879 53.5626 261.666 54.7794 261.666 56.2804V65.3007C261.666 66.8017 262.879 68.0186 264.376 68.0186H306.636C308.132 68.0186 309.345 66.8017 309.345 65.3007V56.2804C309.345 54.7794 308.132 53.5626 306.636 53.5626Z" fill="#5335EC"/>
<path opacity="0.1" d="M356.536 68.0186H314.276C312.78 68.0186 311.566 69.2354 311.566 70.7364V79.7567C311.566 81.2578 312.78 82.4746 314.276 82.4746H356.536C358.033 82.4746 359.246 81.2578 359.246 79.7567V70.7364C359.246 69.2354 358.033 68.0186 356.536 68.0186Z" fill="#5335EC"/>
<path opacity="0.1" d="M199.5 278C309.681 278 399 261.705 399 241.604C399 221.503 309.681 205.208 199.5 205.208C89.3192 205.208 0 221.503 0 241.604C0 261.705 89.3192 278 199.5 278Z" fill="#5335EC"/>
<path d="M87.532 117.418L70.755 220.571L146.616 212.524L143.334 203.745L84.0672 208.683L97.9264 117.236L87.532 117.418Z" fill="#3F3D56"/>
<path d="M67.8373 0.365789L169.958 0L199.5 224.229L97.0146 238.129L67.8373 0.365789Z" fill="#3F3D56"/>
<path d="M78.9612 8.96185H161.387L190.2 217.462L105.221 229.167L78.9612 8.96185Z" fill="white"/>
<path d="M156.697 208.083C157.215 209.078 157.601 210.153 158.276 211.05C160.246 213.691 163.984 214.104 166.789 215.827C166.929 215.898 167.045 216.01 167.12 216.149C167.248 216.452 166.964 216.77 166.69 216.961C164.564 218.457 161.774 218.49 159.173 218.471C158.299 218.503 157.425 218.419 156.573 218.223C155.198 217.857 154.02 216.895 152.663 216.503C151.96 216.327 151.24 216.225 150.515 216.2L147.666 216.006C146.908 215.995 146.157 215.855 145.445 215.593C145.091 215.457 144.776 215.233 144.531 214.941C144.286 214.65 144.119 214.302 144.045 213.928C143.965 213.321 144.224 212.732 144.377 212.14C144.741 210.735 144.628 209.038 145.719 208.079C146.168 207.734 146.683 207.485 147.232 207.348C149.215 206.678 151.238 206.138 153.29 205.731C154.979 205.398 155.949 206.642 156.697 208.083Z" fill="#3F3D56"/>
<path d="M124.478 215.995C124.551 216.774 124.573 217.667 124.011 218.212C123.661 218.503 123.239 218.693 122.789 218.76C120.094 219.39 117.089 219.433 114.744 217.963C114.5 217.823 114.284 217.638 114.109 217.418C113.913 217.118 113.802 216.77 113.788 216.412C113.704 215.377 114.021 214.356 114.31 213.358C114.991 210.988 115.509 208.574 115.86 206.133C115.889 205.932 122.742 207.231 123.198 207.911C123.77 208.752 123.774 210.772 123.927 211.774C124.158 213.174 124.342 214.581 124.478 215.995Z" fill="#3F3D56"/>
<path d="M149.986 120.809L151.81 137.815C152.174 141.29 152.557 144.783 152.306 148.269C152.014 152.293 150.891 156.316 151.365 160.304C151.551 161.854 151.974 163.376 152.036 164.938C152.047 165.977 151.995 167.015 151.879 168.047C151.055 178.366 153.662 188.605 155.121 198.85C155.356 200.114 155.407 201.405 155.274 202.684C155.085 203.982 154.705 205.687 155.858 206.302L145.033 210.237C143.651 208.5 144.566 205.797 144.304 203.591C144.063 201.605 142.976 199.834 142.396 197.921C141.871 196.202 141.762 194.391 141.59 192.606C140.646 182.887 137.746 173.421 137.068 163.68C137.046 162.739 136.924 161.803 136.703 160.889C136.338 159.678 135.609 158.621 135.076 157.483C134.259 155.775 133.858 153.902 133.464 152.051L131.148 141.169C128.807 144.666 128.902 149.216 128.439 153.408C127.789 159.261 126.338 165.015 125.156 170.794C124.882 172.038 124.676 173.296 124.54 174.562C124.233 177.953 124.843 181.377 124.518 184.764C124.153 188.689 122.508 192.519 122.906 196.444C123.125 198.616 123.956 200.672 124.518 202.779C125.08 204.886 125.357 207.198 124.5 209.206C121.504 208.103 118.286 207.746 115.123 208.167C111.647 204.601 111.031 199.626 110.794 194.633C110.557 189.64 111.129 184.64 110.509 179.694C110.327 178.231 110.042 176.804 109.995 175.345C109.842 170.666 112.085 166.288 113.201 161.741C114.205 157.648 114.301 153.384 113.482 149.249C112.935 146.517 111.994 143.865 111.658 141.096C111.202 137.215 111.975 133.305 112.752 129.471C113.274 126.885 113.792 124.299 114.382 121.727C115.017 118.966 115.772 116.145 117.468 113.885C120.181 110.267 124.999 108.661 129.504 109.013C134.008 109.364 138.213 111.419 141.933 113.98C144.865 115.945 147.567 118.236 149.986 120.809Z" fill="#192534"/>
<path d="M137.885 55.6915C137.68 56.021 137.538 56.3856 137.465 56.7669C137.374 57.5168 137.83 58.2044 138.195 58.8592C138.662 59.7004 139.021 60.5977 139.263 61.5295C139.437 62.1062 139.49 62.7126 139.42 63.3109C139.331 63.7602 139.171 64.1924 138.946 64.5911C138.242 65.9519 137.199 67.2102 135.78 67.7771C134.682 68.1829 133.483 68.2315 132.356 67.9161C131.235 67.5981 130.176 67.0936 129.223 66.4237C128.419 65.9128 127.696 65.284 127.078 64.5582C126.488 63.7645 125.991 62.9054 125.597 61.9977C124.839 60.4065 124.069 58.7056 124.208 56.9608C124.215 56.8025 124.245 56.6462 124.295 56.4962C124.414 56.2252 124.579 55.9775 124.784 55.7646C126.34 53.9153 127.138 51.5423 127.016 49.1255L132.33 50.3363C133.501 50.6033 134.672 50.8704 135.828 51.2032C136.776 51.4776 138.235 51.858 138.851 52.7066C139.468 53.5553 138.304 54.916 137.885 55.6915Z" fill="#FBBEBE"/>
<path d="M135.04 54.7843C140.374 54.7843 144.698 50.4476 144.698 45.0982C144.698 39.7487 140.374 35.412 135.04 35.412C129.706 35.412 125.382 39.7487 125.382 45.0982C125.382 50.4476 129.706 54.7843 135.04 54.7843Z" fill="#FBBEBE"/>
<path d="M133.486 64.6387C133.895 63.7425 134.777 63.1755 135.583 62.6122C136.389 62.0489 137.206 61.3283 137.363 60.3516C137.373 60.1307 137.427 59.9141 137.524 59.7152C137.834 59.2469 138.57 59.4811 139.012 59.8249C140.084 60.6626 140.813 61.8514 141.525 63.0109C142.445 64.421 143.232 65.9138 143.877 67.4699C144.902 70.1804 145.026 73.1396 145.139 76.033C145.241 78.6667 145.34 81.3406 144.701 83.8938C144.3 85.5106 143.607 87.0799 143.567 88.7442C143.447 94.7907 141.353 100.57 141.207 106.617C141.196 108.365 141.284 110.113 141.47 111.851L141.813 115.776C136.51 115.471 131.221 115.004 125.948 114.375C125.794 112.568 125.28 110.816 124.81 109.067C122.883 101.919 121.648 94.6012 121.122 87.2152C120.842 83.2939 120.553 79.3873 120.119 75.4807C119.729 71.9289 118.963 68.3551 119.423 64.8106C119.663 63.1995 120.169 61.6396 120.918 60.1943C121.155 59.6186 121.562 59.1296 122.085 58.7934C122.346 58.6668 122.624 58.5769 122.909 58.5263C123.736 58.3583 124.576 58.2592 125.419 58.2301C125.625 58.2126 125.832 58.2325 126.031 58.2886C126.387 58.4662 126.679 58.7499 126.867 59.1006C128.492 61.5509 130.791 63.4748 133.486 64.6387Z" fill="#F2F2F2"/>
<path d="M129.008 63.8632C129.686 64.8362 131.123 65.0666 131.75 66.0579C131.962 66.4722 132.122 66.9107 132.228 67.3638C132.611 68.5892 133.384 69.6536 133.855 70.8498C134.533 72.569 134.551 74.4711 134.559 76.3183C134.625 77.7897 134.513 79.2638 134.223 80.7078C134.004 81.6113 133.647 82.4709 133.384 83.3634C132.938 84.8812 132.773 86.468 132.895 88.0455C132.896 88.3863 132.986 88.7209 133.158 89.0149C133.405 89.3086 133.728 89.5288 134.092 89.6513C135.16 90.1232 136.28 90.606 137.447 90.4963C137.687 90.4887 137.919 90.4112 138.115 90.2732C138.25 90.1496 138.361 90.002 138.443 89.8379L139.172 88.6015C139.832 87.4712 140.522 86.2056 140.266 84.9144C140.081 84.2479 139.802 83.6112 139.438 83.0232C138.972 82.069 138.575 81.0825 138.25 80.0713C137.086 76.717 135.908 73.3152 135.645 69.7743C135.491 68.4268 135.641 67.0617 136.083 65.7799C136.426 64.9911 136.856 64.2437 137.367 63.5523C137.251 63.3969 137.092 63.2804 136.908 63.2183C136.725 63.1562 136.528 63.1515 136.342 63.2048C135.975 63.3184 135.62 63.4666 135.281 63.6474C134.208 64.1009 133.019 63.9363 131.936 63.6254C131.513 63.501 130.842 63.0767 130.404 63.106C130.255 63.1243 129.033 63.9071 129.008 63.8632Z" fill="#ED6663"/>
<path d="M137.546 63.8229C137.327 63.6474 136.988 63.4864 136.794 63.6912C136.729 63.7801 136.682 63.8807 136.656 63.9875C136.466 64.4996 135.908 64.752 135.401 64.9496C134.894 65.1471 134.347 65.2568 134.041 64.8801C133.944 64.7334 133.896 64.5596 133.905 64.384C133.913 64.2083 133.978 64.04 134.088 63.9034C134.312 63.6323 134.583 63.4032 134.887 63.2267C136.564 62.0391 137.707 60.2357 138.067 58.2081C138.538 58.5831 138.849 59.1228 138.939 59.7188C139.059 60.3004 139.074 60.9003 139.194 61.4819C139.373 62.3159 139.77 63.095 139.862 63.94C139.909 64.3899 139.862 64.8435 139.862 65.2934C139.878 65.7333 139.929 66.1712 140.015 66.6029C139.161 65.6958 138.56 64.6313 137.546 63.8229Z" fill="#F2F2F2"/>
<path d="M130.164 61.3393C129.799 60.9918 129.434 60.6626 129.07 60.3077C127.469 58.7411 126.261 56.8171 125.543 54.6929C125.076 55.0587 124.562 55.5415 124.551 56.156C124.592 56.5909 124.76 57.0041 125.032 57.3448C126.411 59.5232 127.322 61.9664 127.706 64.518C127.903 64.2093 128.175 63.9566 128.498 63.7843C128.821 63.6119 129.182 63.5258 129.547 63.534C130.124 63.534 132.709 65.0703 132.895 64.6826C133.169 64.0754 130.601 61.7526 130.164 61.3393Z" fill="#F2F2F2"/>
<path d="M138.308 58.4275C141.739 61.8529 145.938 64.403 150.555 65.864C151.014 65.9644 151.44 66.181 151.791 66.4932C152.054 66.8224 152.231 67.2122 152.306 67.6271C153.196 71.1168 153.495 74.7271 153.79 78.3155C153.867 78.909 153.855 79.5108 153.754 80.1006C153.538 81.0589 152.86 81.8344 152.193 82.555C150.099 84.8046 147.71 87.1567 147.356 90.2147C147.329 90.8042 147.26 91.391 147.149 91.9704C146.966 92.6508 146.561 93.2507 146.313 93.9128C145.095 97.172 147.849 101.119 146.171 104.155C147.079 105.905 147.702 107.789 148.017 109.737C148.073 110.475 148.241 111.2 148.516 111.888C149.016 112.934 150.044 113.6 150.854 114.448C153.323 116.987 153.626 120.871 153.772 124.416C153.863 126.413 153.834 128.707 152.313 130.016C151.434 130.781 150.234 131.029 149.085 131.22C147.557 131.476 145.894 131.659 144.541 130.901C143.571 130.36 142.911 129.413 142.28 128.498C141.083 126.753 139.883 125.012 138.749 123.223C136.955 120.403 135.262 117.181 135.78 113.874C135.634 117.257 134.923 120.667 133.267 123.615C131.612 126.563 128.946 129.025 125.71 129.998C122.475 130.971 118.693 130.283 116.283 127.913C115.496 127.1 114.82 126.186 114.273 125.195C112.901 122.838 111.899 120.283 111.304 117.62C111.147 116.928 111.031 116.156 111.377 115.538C111.541 115.246 111.793 115.015 111.964 114.726C112.541 113.742 111.986 112.502 111.428 111.5C110.578 111.58 109.969 110.578 110.046 109.722C110.123 108.866 110.633 108.124 110.994 107.345C112.052 105.047 111.818 102.373 111.308 99.8971C110.797 97.4207 110.035 94.9589 110.093 92.4313C110.155 89.7574 108.237 87.3505 106.774 85.1155C105.957 83.8572 105.006 82.6867 104.294 81.3662C102.812 78.5874 102.469 75.3378 103.339 72.3093C103.849 70.7541 104.519 69.2562 105.337 67.8393L106.541 65.5751C106.765 65.0341 107.113 64.5535 107.556 64.1722C108 63.791 108.527 63.5197 109.094 63.3803L117.42 60.0882C118.485 59.7235 119.496 59.2166 120.426 58.5812C121.443 57.813 122.202 56.7522 123.172 55.9329C123.313 55.7839 123.483 55.6648 123.671 55.5825C123.859 55.5002 124.061 55.4564 124.266 55.4537C125.047 55.5232 125.324 56.5108 125.404 57.2826C125.586 59.0091 126.863 60.4723 127.297 62.1513C129.646 71.424 134.617 79.9762 135.981 89.4428C137.513 85.752 139.045 82.0539 141.007 78.5789C141.316 78.08 141.576 77.552 141.784 77.0023C142.019 76.2095 142.107 75.3799 142.042 74.5552C141.944 72.1739 141.313 69.8475 140.689 67.5467C139.88 64.4155 139.15 61.5294 138.308 58.4275Z" fill="#3F3D56"/>
<path d="M154.177 86.7616C154.337 88.3199 154.494 89.8818 154.782 91.4218C155.118 93.2032 155.628 94.9444 156.135 96.6855C156.383 97.6642 156.737 98.6125 157.193 99.5131C157.358 99.7745 157.489 100.056 157.583 100.351C157.762 101.082 157.353 101.814 157.178 102.545C156.653 104.74 158.229 107.18 157.237 109.203C156.938 109.817 156.416 110.326 156.219 110.984C155.989 111.741 156.219 112.55 156.339 113.333C156.649 115.527 155.902 117.759 155.165 119.869L153.91 123.432C152.765 121.296 151.609 119.138 150.026 117.305C149.461 116.647 148.845 116.036 148.323 115.341C147.545 114.249 146.931 113.048 146.499 111.778C145.386 108.76 144.75 105.585 144.614 102.37C144.523 101.456 144.629 100.533 144.924 99.663C145.165 99.16 145.436 98.6714 145.733 98.1999C146.711 96.4331 146.912 94.3408 146.893 92.3216C146.875 90.3025 146.66 88.276 146.893 86.2678C147.084 84.5911 147.578 82.9634 148.352 81.465C148.809 80.4947 149.487 79.6462 150.333 78.9886C150.963 78.5149 151.733 78.2641 152.521 78.2753C153.713 78.3448 153.44 79.3727 153.542 80.364L154.177 86.7616Z" fill="#3F3D56"/>
<path d="M100.53 81.7832C99.7865 83.978 99.1154 86.1922 98.5172 88.426C97.9337 90.6207 97.4121 92.8276 96.9526 95.0468C96.7166 96.0225 96.5845 97.0206 96.5587 98.0243C96.6054 99.1929 96.8053 100.35 97.1532 101.466C99.502 109.956 103.784 117.788 108.605 125.151C109.983 123.428 111.619 121.93 113.456 120.711C113.606 120.621 113.732 120.495 113.821 120.345C113.867 120.203 113.88 120.052 113.86 119.903C113.84 119.755 113.787 119.613 113.704 119.489C112.373 116.753 110.265 114.342 109.601 111.368C109.324 110.132 109.313 108.844 108.999 107.615C108.594 106.024 107.69 104.568 107.482 102.937C107.26 101.159 107.847 99.2204 107.015 97.6439C108.711 96.9818 109.692 95.2297 110.411 93.5507C111.178 91.833 111.727 90.0252 112.045 88.1699C112.544 84.6131 111.85 80.9907 110.071 77.873C109.203 76.3177 108.088 74.9143 106.771 73.7176C106.337 73.3262 105.312 72.2032 104.681 72.2142C103.838 72.2325 103.569 73.6005 103.328 74.2151C102.354 76.7244 101.391 79.2373 100.53 81.7832Z" fill="#3F3D56"/>
<path d="M115.637 122.726C115.746 122.806 115.87 122.916 115.841 123.048C115.812 123.18 115.706 123.213 115.612 123.267C115.118 123.618 114.75 124.118 114.561 124.694C113.955 126.064 113.427 127.467 112.978 128.897C112.162 127.67 111.202 126.547 110.119 125.55C109.287 124.782 108.357 124.054 107.912 123.015C107.912 122.986 109.823 121.57 109.999 121.416C110.535 120.937 111.209 119.609 111.764 119.317C112.391 118.988 112.989 120.279 113.467 120.798C114.124 121.512 114.851 122.158 115.637 122.726Z" fill="#FBBEBE"/>
<path d="M145.296 43.5838C145.27 43.1046 145.208 42.5742 144.844 42.2633C144.523 42.0412 144.138 41.9342 143.749 41.9597C141.623 41.8902 139.424 42.2487 137.418 41.5317C136.098 41.0599 134.971 40.1527 133.683 39.5894C132.396 39.0261 130.747 38.8761 129.708 39.8235C128.92 40.5551 128.705 41.678 128.431 42.7132C127.829 44.998 126.757 47.1311 125.284 48.9755C124.295 48.6683 123.588 47.7831 123.132 46.854C121.582 43.6862 122.344 39.904 123.446 36.546C123.81 35.4194 124.215 34.3037 124.62 33.1917L125.51 30.7336C126.678 30.6186 127.763 30.077 128.559 29.2119L128.942 30.1447C129.931 30.109 130.885 29.7708 131.677 29.1754C131.984 29.7533 132.771 29.9069 133.41 29.7204C134.048 29.5338 134.599 29.1754 135.233 28.9888C136.929 28.4401 138.738 29.2851 140.518 29.3802C141.271 29.3618 142.025 29.3838 142.776 29.446C144.876 29.7862 146.361 31.7688 147.003 33.8026C147.429 35.156 147.783 36.8204 149.114 37.2995C149.144 37.8116 148.239 37.9104 148.162 38.3969C148.153 38.5591 148.191 38.7205 148.272 38.8615L149.494 41.4915C148.91 41.6385 148.295 41.608 147.728 41.4037C147.178 42.7023 145.351 44.5751 145.296 43.5838Z" fill="#192534"/>
<path d="M207.21 49.3084C207.829 51.3141 208.316 53.3584 208.669 55.4281C208.932 56.979 209.085 58.7019 208.198 59.9968C211.576 54.9013 215.103 49.6523 220.234 46.3638C219.189 45.2275 218.394 43.8833 217.901 42.4188C217.408 40.9542 217.227 39.402 217.371 37.8629C217.4 37.5556 213.159 39.1614 212.834 39.3443C211.346 40.1747 209.982 41.2062 208.53 42.0951C207.779 42.5523 204.65 43.635 204.621 44.2898C204.621 44.7104 205.864 45.998 206.098 46.4406C206.556 47.3602 206.928 48.3202 207.21 49.3084Z" fill="#FBBEBE"/>
<path d="M222.904 241.487C222.07 240.898 221.093 240.546 220.076 240.469C219.059 240.391 218.04 240.592 217.127 241.048C215.475 241.904 214.362 243.524 212.86 244.622C210.277 246.502 206.867 246.652 203.844 247.669C203.041 247.939 202.188 248.342 201.849 249.132C201.735 249.464 201.69 249.816 201.715 250.166C201.741 250.516 201.837 250.858 201.998 251.169C202.504 252.299 203.389 253.215 204.5 253.755C205.857 254.407 207.418 254.436 208.921 254.454L221.977 254.608C225.989 254.655 230.027 254.703 234.013 255.204C234.943 255.321 235.95 255.449 236.77 254.992C238.105 254.26 238.258 252.409 238.156 250.884C237.887 247.019 237.026 243.219 235.603 239.618C235.446 239.219 235.239 238.765 234.797 238.692C234.484 238.678 234.176 238.777 233.929 238.97C230.246 241.165 225.581 242.405 221.664 240.649" fill="white"/>
<path d="M229.44 157.941C227.981 166.438 228.933 175.169 230.574 183.63C230.876 185.315 231.274 186.98 231.767 188.619C232.354 190.485 233.145 192.277 233.696 194.154C235.096 198.909 234.899 203.993 234.692 208.957L233.736 231.545C233.656 233.44 233.583 235.378 234.152 237.185C234.382 237.917 234.662 238.831 234.082 239.325C233.856 239.488 233.591 239.59 233.313 239.621C230.703 240.104 228.008 239.698 225.654 238.469L225.395 215.651C225.315 208.617 225.231 201.554 224.151 194.607C223.294 189.084 221.806 183.634 221.708 178.044C221.605 172.192 223.035 166.416 224.494 160.743C224.808 159.528 225.953 158.639 226.894 157.816C227.222 157.491 227.622 157.248 228.061 157.107C228.499 156.986 229.17 157.571 229.44 157.941Z" fill="#3F3D56"/>
<path opacity="0.1" d="M229.44 157.941C227.981 166.438 228.933 175.169 230.574 183.63C230.876 185.315 231.274 186.98 231.767 188.619C232.354 190.485 233.145 192.277 233.696 194.154C235.096 198.909 234.899 203.993 234.692 208.957L233.736 231.545C233.656 233.44 233.583 235.378 234.152 237.185C234.382 237.917 234.662 238.831 234.082 239.325C233.856 239.488 233.591 239.59 233.313 239.621C230.703 240.104 228.008 239.698 225.654 238.469L225.395 215.651C225.315 208.617 225.231 201.554 224.151 194.607C223.294 189.084 221.806 183.634 221.708 178.044C221.605 172.192 223.035 166.416 224.494 160.743C224.808 159.528 225.953 158.639 226.894 157.816C227.222 157.491 227.622 157.248 228.061 157.107C228.499 156.986 229.17 157.571 229.44 157.941Z" fill="black"/>
<path d="M202.053 131.384C201.513 133.612 202.658 135.92 202.531 138.21C202.458 139.596 201.914 140.979 202.166 142.34C202.418 143.7 203.388 144.725 203.906 145.972C204.283 147.014 204.483 148.112 204.497 149.22C204.646 151.956 204.526 154.707 204.424 157.432C204.252 162.004 204.125 166.602 204.726 171.135C205.25 175.061 206.315 178.896 207.888 182.529C208.366 183.517 208.76 184.544 209.067 185.598C209.268 186.58 209.402 187.575 209.468 188.575C209.814 191.83 210.685 195.006 212.046 197.98C212.976 200.017 214.599 201.638 215.114 203.8C215.602 205.87 215.274 208.054 215.628 210.15C215.887 211.704 216.518 213.175 216.868 214.711C217.324 216.697 217.313 218.757 217.543 220.783C218.199 226.636 220.851 232.488 219.268 238.166C218.95 239.307 218.458 240.466 218.68 241.63C218.79 242.2 219.067 242.763 218.943 243.33C218.841 243.813 218.469 244.186 218.279 244.644C217.915 245.5 218.301 246.517 218.95 247.179C219.643 247.796 220.448 248.273 221.321 248.583C224.009 249.735 226.792 250.906 229.709 250.88C230.064 250.899 230.417 250.834 230.742 250.69C231.267 250.416 231.526 249.82 231.748 249.271L233.244 245.562C233.426 245.112 233.608 244.585 233.357 244.168C233.181 243.939 232.969 243.742 232.729 243.583C231.522 242.562 231.796 240.657 232.117 239.124C232.936 235.187 233.391 231.183 233.473 227.163C233.634 219.144 232.317 211.174 231.004 203.262C230.548 200.515 230.089 197.749 229.181 195.116C228.273 192.482 226.934 189.947 227.153 187.211C227.386 184.255 226.62 181.157 227.153 178.242C227.685 175.327 228.528 172.473 229.071 169.562C229.775 165.783 229.95 161.931 230.165 158.098C230.257 156.532 230.373 154.915 231.103 153.525C231.529 152.713 232.149 152.018 232.627 151.232C233.86 149.187 234.057 146.652 235.235 144.575C235.793 143.591 236.563 142.724 236.971 141.67C237.258 140.839 237.408 139.967 237.416 139.088C237.532 136.88 237.409 134.667 237.051 132.485C230.843 129.317 223.957 127.715 216.992 127.818C214.326 127.862 211.63 128.132 209.129 129.058C206.743 129.947 204.57 131.194 202.053 131.384Z" fill="#3F3D56"/>
<path d="M217.006 247.274C215.934 248.612 216.007 250.526 215.321 252.102C214.49 254.015 212.637 255.241 210.879 256.356L199.938 263.306C199.34 263.672 198.698 264.122 198.479 264.802C198.375 265.237 198.394 265.691 198.534 266.116C198.795 267.033 199.282 267.871 199.949 268.551C200.617 269.231 201.445 269.732 202.356 270.008C203.324 270.239 204.319 270.341 205.314 270.311L210.234 270.377C211.732 270.436 213.234 270.377 214.723 270.201C216.087 270.004 217.415 269.612 218.772 269.364C221.241 268.914 223.779 268.954 226.252 268.519C227.766 268.22 229.262 267.833 230.731 267.359C232.518 266.821 234.338 266.262 235.87 265.197C236.291 264.94 236.633 264.57 236.858 264.129C237.117 263.526 236.975 262.834 236.829 262.194L234.48 251.842C234.347 250.98 234.034 250.156 233.561 249.425C233.039 248.73 232.102 248.269 231.289 248.565C230.953 248.718 230.636 248.91 230.344 249.136C229.141 249.929 227.598 250.061 226.175 249.812C225.256 249.648 224.042 249.395 223.301 248.784C222.74 248.32 222.572 247.599 222.094 247.073C221.759 246.728 221.356 246.457 220.91 246.279C220.464 246.1 219.985 246.018 219.506 246.037C219.026 246.056 218.555 246.176 218.125 246.389C217.694 246.602 217.313 246.903 217.006 247.274Z" fill="white"/>
<path d="M209.913 47.8818C217.19 47.8818 223.09 41.9648 223.09 34.6659C223.09 27.3669 217.19 21.4499 209.913 21.4499C202.635 21.4499 196.735 27.3669 196.735 34.6659C196.735 41.9648 202.635 47.8818 209.913 47.8818Z" fill="#FBBEBE"/>
<path d="M199.748 35.4413C201.01 34.7317 201.01 32.6869 202.301 32.0066C203.592 31.3262 205.058 32.5077 205.886 33.7002C207.093 35.4466 207.931 37.4221 208.348 39.5053C208.465 40.0978 208.574 40.7453 209.019 41.1586C209.464 41.572 210.048 41.6232 210.616 41.6817C212.282 41.8475 213.95 41.9987 215.62 42.1353C217.48 42.2853 219.443 42.406 221.131 41.6049C221.798 41.3061 222.37 40.8305 222.787 40.2295C223.121 39.6524 223.36 39.0249 223.495 38.3713C224.366 35.0463 225.245 31.681 225.318 28.2426C225.347 26.8233 225.223 25.3529 224.541 24.1092C224.144 23.3776 223.56 22.7411 223.396 21.9364C223.232 21.1317 223.761 20.1074 224.592 20.1952C223.841 20.2262 223.092 20.0836 222.404 19.7782C221.744 19.4124 221.255 18.626 221.489 17.909C219.636 18.1468 218.286 16.3105 216.842 15.1217C216.607 14.8882 216.29 14.7568 215.96 14.7559C215.706 14.8194 215.461 14.914 215.23 15.0376C214.501 15.2937 213.738 14.8072 212.991 14.595C210.985 14.0317 208.435 15.3924 206.947 13.9293C207.09 14.862 205.948 15.4875 205.007 15.4692C204.066 15.4509 203.096 15.1034 202.206 15.418C202.335 15.6544 202.41 15.9165 202.426 16.1855C202.443 16.4545 202.399 16.7237 202.3 16.9739C202.2 17.2242 202.046 17.4492 201.85 17.633C201.653 17.8168 201.419 17.9548 201.163 18.0371L201.604 19.0028C201.15 19.0939 200.729 19.3107 200.391 19.6288C200.053 19.9468 199.81 20.3533 199.69 20.8024C199.205 22.7228 199.325 25.4516 199.442 27.4269C199.5 28.2938 200.342 35.1158 199.748 35.4413Z" fill="#192534"/>
<path d="M210.992 51.7007C204.373 59.1664 202.688 69.6756 201.276 79.5702L199.197 94.1798C198.657 97.9694 198.103 101.759 197.633 105.559C197.304 108.16 196.998 110.801 197.355 113.398C197.636 115.447 198.318 117.422 198.887 119.394C200.368 124.565 201.105 129.922 201.076 135.302C201.517 134 203.045 133.473 204.387 133.18C215.649 130.73 227.398 131.988 237.89 136.769C239.732 131.593 239.385 125.93 239.9 120.458C240.629 112.656 243.142 105.095 243.886 97.3073C244.16 94.4066 244.192 91.4912 244.222 88.5759C244.243 86.436 244.265 84.2742 243.82 82.1782C243.324 79.8591 242.278 77.6973 241.194 75.594C238.2 69.7473 234.873 64.078 231.23 58.6141C229.397 55.8633 227.485 53.1675 225.493 50.5265C224.484 49.1877 223.455 47.8635 222.404 46.554C221.387 45.2847 220.945 44.1837 219.33 44.9445C216.277 46.3784 213.213 49.195 210.992 51.7007Z" fill="#ED6663"/>
<path d="M214.785 113.841C213.17 113.9 211.553 113.848 209.945 113.687C208.753 113.57 207.535 113.395 206.371 113.687C205.865 113.815 205.392 114.048 204.982 114.371C204.83 114.507 204.72 114.684 204.667 114.881C204.614 115.078 204.619 115.287 204.683 115.481C204.746 115.675 204.864 115.846 205.022 115.974C205.181 116.102 205.374 116.181 205.576 116.2L206.823 116.31C207.615 116.38 208.439 116.46 209.056 117.042C209.309 117.27 209.47 117.584 209.508 117.923C209.584 118.775 208.848 119.24 208.188 119.595C207.249 120.037 206.381 120.616 205.613 121.314C205.011 121.897 204.632 122.674 204.544 123.509C204.541 123.583 204.558 123.657 204.593 123.723C204.627 123.789 204.679 123.844 204.741 123.884C204.804 123.924 204.876 123.946 204.951 123.949C205.025 123.952 205.098 123.935 205.164 123.9C206.623 123.169 207.575 120.999 209.176 121.362C207.72 121.824 206.472 122.786 205.653 124.079C205.451 124.388 205.358 124.756 205.391 125.124C205.424 125.492 205.579 125.838 205.833 126.106C206.086 126.374 206.422 126.549 206.787 126.601C207.151 126.653 207.523 126.581 207.841 126.395C208.078 126.256 208.307 126.103 208.527 125.938C209.611 125.057 210.583 124.044 211.419 122.924C210.252 125.393 209.07 128.282 210.412 130.737C210.479 130.872 210.584 130.984 210.713 131.061C210.843 131.138 210.992 131.175 211.142 131.168C211.565 131.125 211.689 130.726 211.758 130.375C211.977 129.244 212.032 128.052 212.586 127.046C213.87 124.712 217.036 124.485 219.446 123.348C222.339 122.002 224.319 119.105 225.118 116.01C225.397 115.108 225.446 114.149 225.26 113.223C224.724 111.141 222.163 110.662 220.519 111.668C218.502 112.952 217.331 113.76 214.785 113.841Z" fill="#FBBEBE"/>
<path opacity="0.1" d="M212.225 72.8982C214.778 76.8524 219.209 79.08 223.01 81.8564C223.937 82.462 224.745 83.2332 225.395 84.1316C226.354 85.6167 226.489 87.5042 226.292 89.2526C226.044 91.5608 225.304 93.7811 224.571 95.9832L222.977 100.757C221.967 103.785 220.923 106.876 219.001 109.422C218.509 110.07 217.936 110.761 217.958 111.573C218.001 112.042 218.161 112.493 218.425 112.883C219.04 113.889 219.851 114.762 220.809 115.448C221.767 116.134 222.853 116.62 224.002 116.877C224.69 117.053 225.411 117.053 226.099 116.877C227.083 116.584 227.824 115.78 228.51 115.019C231.792 111.387 235.074 107.703 237.445 103.442C239.761 99.2826 241.147 94.6627 242.423 90.0866C242.949 88.402 243.315 86.6715 243.518 84.918C243.788 81.6259 242.927 78.3338 241.519 75.3599C240.111 72.3861 238.175 69.6939 236.18 67.0785C234.297 64.5095 232.205 62.1017 229.925 59.8797C225.957 56.1597 221.102 53.9722 215.792 56.0828C212.043 57.5753 210.638 60.6881 210.303 64.6752C210.019 67.554 210.695 70.446 212.225 72.8982Z" fill="black"/>
<path d="M213.553 71.8959C216.106 75.8501 220.54 78.0778 224.337 80.8541C225.261 81.4657 226.066 82.2417 226.711 83.1439C227.671 84.629 227.806 86.5129 227.609 88.265C227.357 90.5731 226.62 92.7935 225.884 94.9955L224.29 99.7508C223.279 102.78 222.236 105.867 220.314 108.416C219.826 109.064 219.253 109.751 219.275 110.567C219.315 111.036 219.476 111.486 219.742 111.873C220.356 112.88 221.166 113.753 222.123 114.44C223.081 115.127 224.166 115.613 225.315 115.871C226.004 116.047 226.726 116.047 227.415 115.871C228.4 115.582 229.137 114.774 229.826 114.017C233.109 110.381 236.391 106.701 238.762 102.439C241.078 98.2803 242.464 93.6604 243.74 89.0807C244.267 87.3977 244.634 85.6683 244.834 83.9158C245.104 80.6237 244.243 77.3315 242.839 74.354C241.435 71.3765 239.495 68.6879 237.5 66.0725C235.61 63.517 233.513 61.1227 231.23 58.914C227.266 55.1976 222.411 53.0065 217.101 55.1208C213.348 56.6132 211.948 59.7224 211.609 63.7132C211.341 66.581 212.024 69.4573 213.553 71.8959Z" fill="#ED6663"/>
<path d="M294.199 203.101C294.201 204.055 294.104 205.006 293.907 205.939C293.87 206.115 293.83 206.305 293.79 206.455C292.754 210.622 289.833 213.669 286.346 213.862C286.23 213.862 286.113 213.862 285.982 213.862C282.294 213.862 279.176 210.673 278.147 206.28C278.118 206.163 278.093 206.046 278.067 205.914C277.87 204.981 277.773 204.029 277.775 203.075C277.775 197.124 281.448 192.303 285.982 192.303C290.515 192.303 294.199 197.161 294.199 203.101Z" fill="#3F3D56"/>
<path opacity="0.1" d="M294.199 203.101C294.201 204.055 294.104 205.006 293.907 205.939C293.87 206.115 293.83 206.305 293.79 206.455C293.666 206.455 293.546 206.455 293.426 206.455C292.522 206.406 291.625 206.284 290.741 206.089C289.958 206.332 289.159 206.516 288.349 206.638C287.728 206.732 287.102 206.791 286.474 206.814H285.839C285.088 206.814 284.337 206.764 283.593 206.664C282.388 206.502 281.206 206.208 280.066 205.786C279.442 205.994 278.806 206.165 278.162 206.298C278.133 206.181 278.107 206.064 278.082 205.932C277.885 204.999 277.787 204.047 277.79 203.094C277.79 197.142 281.463 192.321 285.996 192.321C290.53 192.321 294.199 197.161 294.199 203.101Z" fill="black"/>
<path d="M311.705 183.034C311.709 180.415 311.096 177.832 309.918 175.495L300.268 178.505L308.74 173.509C307.319 171.45 305.455 169.738 303.286 168.499C301.117 167.259 298.698 166.524 296.208 166.346C295.812 165.743 295.377 165.167 294.906 164.62L281.047 168.947L292.415 162.242C290.241 160.568 287.688 159.458 284.984 159.009C282.279 158.56 279.506 158.787 276.91 159.669C274.313 160.551 271.974 162.061 270.098 164.066C268.222 166.071 266.868 168.509 266.156 171.164L278.027 184.87L265.149 175.528C261.887 177.848 259.564 181.267 258.605 185.161C257.646 189.055 258.113 193.166 259.922 196.743C261.731 200.32 264.761 203.127 268.461 204.651C272.16 206.175 276.283 206.316 280.077 205.047C283.509 206.312 287.259 206.416 290.756 205.343C293.193 205.881 295.72 205.864 298.15 205.294C300.58 204.723 302.852 203.614 304.798 202.046C306.744 200.479 308.316 198.494 309.396 196.238C310.476 193.981 311.039 191.51 311.041 189.007C311.041 188.641 311.041 188.276 311.005 187.91C311.477 186.328 311.713 184.685 311.705 183.034Z" fill="#3B83CA"/>
<path opacity="0.1" d="M311.417 186.136C306.32 185.167 301.094 185.1 295.975 185.938C290.179 186.9 284.256 189.014 278.589 187.471C275.263 186.564 272.389 184.464 269.139 183.297C266.004 182.2 262.626 181.997 259.383 182.712C258.147 185.677 257.788 188.937 258.35 192.101C258.912 195.266 260.37 198.201 262.55 200.556C264.731 202.912 267.541 204.588 270.646 205.384C273.751 206.18 277.018 206.063 280.059 205.047C283.491 206.312 287.241 206.416 290.737 205.343C293.175 205.881 295.702 205.864 298.132 205.294C300.562 204.723 302.834 203.614 304.78 202.046C306.726 200.479 308.297 198.494 309.378 196.238C310.458 193.981 311.02 191.51 311.023 189.007C311.023 188.641 311.023 188.276 310.987 187.91C311.163 187.327 311.306 186.735 311.417 186.136Z" fill="black"/>
</svg>
