<svg width="217" height="47" viewBox="0 0 217 47" fill="none" xmlns="http://www.w3.org/2000/svg">
<path d="M34.5434 0.469971H7.38823L10.0646 9.67947H34.5434C37.0955 9.67947 39.1697 11.7463 39.1697 14.286V18.8926H16.0468C8.39486 18.8926 2.16998 25.0911 2.16998 32.7107C2.16998 40.3297 8.39486 46.5301 16.0468 46.5301H34.5434C42.1953 46.5301 48.4205 40.3297 48.4205 32.7107V23.4988V18.8923V14.2857C48.4205 6.66856 42.1953 0.469971 34.5434 0.469971ZM39.1697 32.7104C39.1697 35.2502 37.094 37.3167 34.5434 37.3167H16.0468C13.4965 37.3167 11.4208 35.2502 11.4208 32.7104C11.4208 30.1704 13.4965 28.1036 16.0468 28.1036H39.1697V32.7104Z" fill="url(#paint0_linear)"/>
<path d="M61.6572 18.894H53.2258V28.1038H64.3353L61.6572 18.894Z" fill="#EC008C"/>
<path d="M95.4062 32.7824H91.3615V30.5643C90.0827 32.2029 88.1689 33.262 85.5408 33.262C80.3569 33.262 76.2746 29.1968 76.2746 23.5552C76.2746 17.9121 80.3569 13.8469 85.5408 13.8469C88.1707 13.8469 90.0845 14.9267 91.3615 16.5631V14.3301H95.4062V32.7824ZM80.4344 23.5573C80.4344 26.7927 82.5426 29.4693 86.0245 29.4693C89.372 29.4693 91.6129 26.9262 91.6129 23.5573C91.6129 20.1863 89.372 17.6429 86.0245 17.6429C82.5426 17.6429 80.4344 20.3216 80.4344 23.5573Z" fill="#302E45"/>
<path d="M130.236 21.1872V32.784H126.174V22.517C126.174 19.4151 124.57 17.6826 121.861 17.6826C119.25 17.6826 117.065 19.3962 117.065 22.5548V32.7825H112.999V22.5155C112.999 19.4136 111.397 17.6793 108.687 17.6793C106.076 17.6793 103.889 19.3947 103.889 22.5533V32.7807H99.8257V14.3308H103.85V16.5828C105.34 14.4079 107.639 13.8477 109.538 13.8477C112.362 13.8477 114.663 15.0985 115.942 17.1416C117.544 14.5022 120.408 13.8477 122.71 13.8477C127.126 13.8489 130.236 16.8718 130.236 21.1872Z" fill="#302E45"/>
<path d="M176.443 23.5574C176.443 29.0844 172.19 33.2639 166.465 33.2639C160.741 33.2639 156.504 29.0841 156.504 23.5574C156.504 18.029 160.741 13.8489 166.465 13.8489C172.19 13.8489 176.443 18.0287 176.443 23.5574ZM160.662 23.5574C160.662 27.0431 163.158 29.4694 166.466 29.4694C169.774 29.4694 172.287 27.0431 172.287 23.5574C172.287 20.07 169.774 17.6431 166.466 17.6431C163.158 17.6431 160.662 20.07 160.662 23.5574Z" fill="#302E45"/>
<path d="M195.953 16.795L193.361 19.549C192.063 18.3357 190.692 17.6431 188.914 17.6431C185.798 17.6431 183.439 20.0697 183.439 23.5574C183.439 27.0431 185.8 29.4694 188.914 29.4694C190.695 29.4694 192.277 28.6388 193.457 27.5422L195.953 30.3145C194.27 32.261 191.797 33.2639 189.027 33.2639C183.126 33.2639 179.279 29.0841 179.279 23.5574C179.279 18.029 183.127 13.8489 189.027 13.8489C191.797 13.8489 194.31 14.8515 195.953 16.795Z" fill="#302E45"/>
<path d="M212.644 18.9542C211.522 18.2586 209.224 17.3742 206.92 17.3742C204.714 17.3742 203.421 18.2583 203.421 19.5694C203.421 20.8599 204.774 21.2266 206.476 21.4751L208.39 21.7629C212.436 22.3421 214.83 24.0574 214.83 27.216C214.83 30.7602 211.736 33.2417 206.397 33.2417C204.483 33.2417 201.154 32.878 198.449 30.873L200.325 27.8498C201.661 28.8714 203.42 29.7369 206.435 29.7369C209.203 29.7369 210.652 28.8714 210.652 27.4834C210.652 26.4426 209.649 25.7521 207.445 25.4439L205.509 25.1918C201.406 24.6351 199.222 22.7445 199.222 19.778C199.222 16.1195 202.165 13.8657 206.884 13.8657C209.784 13.8657 212.474 14.5785 214.388 15.8107L212.644 18.9542Z" fill="#302E45"/>
<path d="M148.766 16.5603V9.77197L152.811 8.34619V32.7837H148.766V30.5663C147.487 32.2048 145.573 33.2636 142.94 33.2636C137.758 33.2636 133.674 29.1987 133.674 23.5535C133.674 17.9083 137.756 13.8434 142.94 13.8434C145.574 13.8422 147.487 14.9217 148.766 16.5603ZM137.834 23.5538C137.834 26.7925 139.942 29.4691 143.427 29.4691C146.772 29.4691 149.018 26.926 149.018 23.5538C149.018 20.1831 146.773 17.6397 143.427 17.6397C139.942 17.64 137.834 20.3181 137.834 23.5538Z" fill="#302E45"/>
<defs>
<linearGradient id="paint0_linear" x1="1.44448" y1="23.4998" x2="62.7834" y2="23.4998" gradientUnits="userSpaceOnUse">
<stop offset="0.0173" stop-color="#FDB515"/>
<stop offset="0.1046" stop-color="#FCA91D"/>
<stop offset="0.2628" stop-color="#F98932"/>
<stop offset="0.4741" stop-color="#F45454"/>
<stop offset="0.7279" stop-color="#ED0D83"/>
<stop offset="0.7715" stop-color="#EC008C"/>
</linearGradient>
</defs>
</svg>
