<svg width="36" height="35" viewBox="0 0 36 35" fill="none" xmlns="http://www.w3.org/2000/svg">
<g clip-path="url(#clip0)">
<path d="M35.6607 17.4995C35.6607 7.83396 27.8267 0 18.1626 0C8.49851 0 0.664551 7.83396 0.664551 17.4995C0.664551 26.2318 7.06355 33.4708 15.4283 34.7833V22.5569H10.9864V17.4981H15.4283V13.6438C15.4283 9.25726 18.0416 6.83503 22.0373 6.83503C23.9521 6.83503 25.9543 7.17627 25.9543 7.17627V11.4826H23.7494C21.5765 11.4826 20.8984 12.8315 20.8984 14.2155V17.4995H25.7516L24.9758 22.5584H20.8984V34.7847C29.2632 33.4722 35.6622 26.2333 35.6622 17.4995H35.6607Z" fill="white"/>
</g>
<defs>
<clipPath id="clip0">
<rect x="0.664551" width="34.9991" height="34.9991" fill="white"/>
</clipPath>
</defs>
</svg>
