<svg width="36" height="35" viewBox="0 0 36 35" fill="none" xmlns="http://www.w3.org/2000/svg">
<g clip-path="url(#clip0)">
<path d="M22.1693 34.9991C22.1693 34.9759 22.175 34.9354 22.1864 34.8774C22.1978 34.8195 22.2035 34.7674 22.2035 34.721C22.2035 32.7515 21.9814 30.7705 21.537 28.7778C21.0927 26.7851 20.4718 25.3138 19.6743 24.3638C22.6365 24.1089 24.8923 23.2227 26.4417 21.705C27.9911 20.1873 28.7659 18.2236 28.7659 15.8139C28.7659 13.7054 28.0367 12.0834 26.5784 10.9481V7.7853C26.5784 7.53042 26.4531 7.28134 26.2024 7.03805C25.9518 6.79476 25.7125 6.67311 25.4847 6.67311C25.2113 6.67311 23.8555 7.48408 21.4174 9.10602C20.3465 8.96699 19.1502 8.89748 17.8286 8.89748C16.5298 8.89748 15.3336 8.96699 14.2399 9.10602C11.8018 7.48408 10.446 6.67311 10.1726 6.67311C9.94473 6.67311 9.70548 6.80055 9.45484 7.05543C9.20419 7.3103 9.07887 7.55359 9.07887 7.7853C9.07887 7.99383 9.05609 8.50358 9.01051 9.31455C8.96494 10.1255 8.93076 10.7164 8.90798 11.0871C7.56361 12.1993 6.89143 13.7749 6.89143 15.8139C6.89143 18.2236 7.66615 20.1873 9.21559 21.705C10.765 23.2227 13.0208 24.1089 15.983 24.3638C15.8691 24.526 15.7096 24.7577 15.5045 25.0589C14.5247 26.1479 13.112 26.6924 11.2663 26.6924C10.9017 26.6924 10.5372 26.536 10.1726 26.2232C9.80802 25.9104 9.44914 25.5397 9.09596 25.1111C8.74278 24.6824 8.37251 24.248 7.98515 23.8077C7.59779 23.3675 7.11929 22.9967 6.54964 22.6955C5.97999 22.3943 5.36478 22.2437 4.70399 22.2437C4.70399 22.4291 4.81222 22.6608 5.02869 22.9388C5.24515 23.2169 5.54706 23.5992 5.93442 24.0858C6.32178 24.5723 6.64078 25.0705 6.89143 25.5803C7.48386 26.7388 8.09908 27.5845 8.73708 28.1174C9.37509 28.6504 10.2182 28.9168 11.2663 28.9168C12.36 28.9168 13.3512 28.7546 14.2399 28.4302C13.7158 30.4692 13.4538 32.5662 13.4538 34.721V34.8601L13.4879 34.9991C9.65991 34.0027 6.50977 31.9116 4.0375 28.7257C1.56523 25.5397 0.329102 21.8961 0.329102 17.795C0.329102 15.3621 0.790515 13.0508 1.71334 10.8612C2.63617 8.67157 3.878 6.78317 5.43883 5.19599C6.99966 3.60881 8.86241 2.34602 11.0271 1.40761C13.1917 0.469203 15.4589 0 17.8286 0C20.1984 0 22.4656 0.469203 24.6302 1.40761C26.7949 2.34602 28.6576 3.60881 30.2185 5.19599C31.7793 6.78317 33.0211 8.67157 33.9439 10.8612C34.8668 13.0508 35.3282 15.3621 35.3282 17.795C35.3282 21.8961 34.092 25.5397 31.6198 28.7257C29.1475 31.9116 25.9974 34.0027 22.1693 34.9991Z" fill="white"/>
</g>
<defs>
<clipPath id="clip0">
<rect x="0.329102" width="34.9991" height="34.9991" fill="white"/>
</clipPath>
</defs>
</svg>
