<svg width="61" height="58" viewBox="0 0 61 58" fill="none" xmlns="http://www.w3.org/2000/svg">
<path d="M48.4318 0H13.2409C6.3007 0 0.672668 5.38649 0.672668 12.0288V45.7094C0.672668 52.3516 6.3007 57.7381 13.2409 57.7381H48.4318C55.3745 57.7381 61 52.3516 61 45.7094V12.0288C61 5.38649 55.3745 0 48.4318 0ZM37.2059 47.1288C36.1879 47.3164 35.8636 46.7174 35.8636 46.2049V40.9243C35.8636 39.1272 35.205 37.958 34.4811 37.3614C38.9604 36.885 43.6659 35.2563 43.6659 27.8659C43.6659 25.7632 42.8817 24.0455 41.5972 22.7007C41.8033 22.2147 42.4921 20.2565 41.3986 17.6077C41.3986 17.6077 39.712 17.0905 35.8737 19.5804C34.2649 19.1474 32.5456 18.9381 30.8363 18.9285C29.1271 18.9357 27.4077 19.1474 25.8015 19.5756C21.9607 17.0857 20.2715 17.6029 20.2715 17.6029C19.1806 20.2541 19.8693 22.2099 20.078 22.6983C18.791 24.0455 18.0067 25.7608 18.0067 27.8635C18.0067 35.2347 22.6997 36.8875 27.1689 37.3758C26.5933 37.857 26.073 38.7038 25.892 39.95C24.7433 40.4408 21.835 41.29 20.0402 38.3477C20.0402 38.3477 18.977 36.5001 16.956 36.363C16.956 36.363 14.9954 36.3389 16.8178 37.5346C16.8178 37.5346 18.1374 38.1264 19.0524 40.3493C19.0524 40.3493 20.2162 43.7847 25.809 42.6204V46.2025C25.809 46.7101 25.4848 47.3068 24.4818 47.1288C16.4885 44.5859 10.7272 37.371 10.7272 28.8691C10.7272 18.238 19.7311 9.62302 30.8363 9.62302C41.9416 9.62302 50.9454 18.238 50.9454 28.8691C50.9454 37.3686 45.1917 44.5811 37.2059 47.1288Z" fill="url(#paint0_linear)"/>
<defs>
<linearGradient id="paint0_linear" x1="0.672668" y1="28.8691" x2="54.8954" y2="28.8691" gradientUnits="userSpaceOnUse">
<stop stop-color="#EA6563"/>
<stop offset="1" stop-color="#3984CB"/>
</linearGradient>
</defs>
</svg>
