<svg width="61" height="58" viewBox="0 0 61 58" fill="none" xmlns="http://www.w3.org/2000/svg">
<g clip-path="url(#clip0)">
<path d="M47.7591 0H12.5682C5.62804 0 0 5.38649 0 12.0288V45.7094C0 52.3516 5.62804 57.7381 12.5682 57.7381H47.7591C54.7018 57.7381 60.3273 52.3516 60.3273 45.7094V12.0288C60.3273 5.38649 54.7018 0 47.7591 0ZM20.1091 45.7094H12.5682V19.246H20.1091V45.7094ZM16.3386 16.1955C13.9105 16.1955 11.9398 14.295 11.9398 11.9518C11.9398 9.60859 13.9105 7.70804 16.3386 7.70804C18.7668 7.70804 20.7375 9.60859 20.7375 11.9518C20.7375 14.295 18.7693 16.1955 16.3386 16.1955ZM50.2728 45.7094H42.7318V32.2275C42.7318 24.1249 32.6773 24.7384 32.6773 32.2275V45.7094H25.1364V19.246H32.6773V23.4922C36.1863 17.2709 50.2728 16.8114 50.2728 29.4489V45.7094Z" fill="url(#paint0_linear)"/>
</g>
<defs>
<linearGradient id="paint0_linear" x1="0" y1="28.8691" x2="60.3273" y2="28.8691" gradientUnits="userSpaceOnUse">
<stop stop-color="#E96563"/>
<stop offset="1" stop-color="#3984CB"/>
</linearGradient>
<clipPath id="clip0">
<rect width="60.3273" height="57.7381" fill="white"/>
</clipPath>
</defs>
</svg>
