<svg width="280" height="60" viewBox="0 0 280 60" fill="none" xmlns="http://www.w3.org/2000/svg">
<g clip-path="url(#clip0)">
<path fill-rule="evenodd" clip-rule="evenodd" d="M79.1 56.3V52.2001C79.1 51.3001 79.1 50.5001 78.6 49.9001C78.3 49.6001 77.9 49.4001 77.2 49.4001C76.2 49.4001 74.9 50.1001 74.9 51.7001V56.3H73V47.9001H74.9V48.8C75.6 48 76.7 47.8 77.5 47.8C78.5 47.8 79.4 48.1001 79.9 48.7001C80.9 49.7001 80.9 51.1001 80.9 52.4001V56.4001H79.1V56.3Z" fill="#4D4D4F"/>
<path fill-rule="evenodd" clip-rule="evenodd" d="M92.8 52.7C92.9 54 93.7 54.7 95.1 54.7C96.3 54.7 97.1 54.0999 97.3 53.5999L98.9 54.2999C98.4 55.1999 97.2 56.4 95.1 56.4C92.6 56.4 90.9 54.7 90.9 52.2C90.9 49.7 92.4 47.7 95 47.7C96.2 47.7 97.5 48.2 98.2 49.2C98.8 50 99 51.2 99.1 52.7H92.8ZM92.8 51.2999H97.2C97.1 50.1999 96.3 49.2999 95.1 49.2999C93.8 49.2999 92.9 50.0999 92.8 51.2999Z" fill="#4D4D4F"/>
<path fill-rule="evenodd" clip-rule="evenodd" d="M112.8 49.6999H110.9V53.0999C110.9 54.2999 111.4 54.6999 112.3 54.6999C112.6 54.6999 113 54.6999 113.6 54.4999V56.1999C113.4 56.1999 112.8 56.2999 112.4 56.2999C111.7 56.2999 110.5 56.1999 109.9 55.5999C109.2 54.8999 109.1 53.7999 109.1 53.0999V49.6999H108.3V47.8999H109.1V46.5999L110.9 44.8999V47.8999H113.3C113.2 48.3999 113 49.1999 112.8 49.6999Z" fill="#4D4D4F"/>
<path fill-rule="evenodd" clip-rule="evenodd" d="M125.8 56.3L122.2 47.9001H124.2L126.5 53.4001C126.9 52.6001 127.8 50.8001 128.2 49.9001H129.3C129.7 50.7001 130.5 52.5 130.9 53.3L133.2 47.8H135.2L131.6 56.2001H130.2L128.6 52.7001C128.2 53.5001 127.4 55.3001 127 56.2001H125.8V56.3Z" fill="#4D4D4F"/>
<path fill-rule="evenodd" clip-rule="evenodd" d="M152.7 52.0999C152.7 54.4999 151.1 56.4 148.6 56.4C146 56.4 144.5 54.5 144.5 52C144.5 49.6 146 47.7 148.6 47.7C151.3 47.7 152.7 49.5999 152.7 52.0999ZM146.3 52C146.3 53.4 147.1 54.5999 148.5 54.5999C149.9 54.5999 150.8 53.4999 150.8 52.0999C150.8 50.6999 150 49.5 148.6 49.5C147.2 49.5 146.3 50.7 146.3 52Z" fill="#4D4D4F"/>
<path fill-rule="evenodd" clip-rule="evenodd" d="M167.7 49.5999C167.5 49.3999 167.1 49.2999 166.8 49.2999C165.7 49.2999 164.5 50.2999 164.5 51.7999V56.2H162.6V47.7999H164.5V49.2C165.1 48.1 166.3 47.7 167.2 47.7C168 47.7 168.6 48 169.1 48.4L167.7 49.5999Z" fill="#4D4D4F"/>
<path fill-rule="evenodd" clip-rule="evenodd" d="M180.1 44.8999V51.3999L184 47.8999H186.8L183.6 50.6999L187.3 56.2999H185.1L182.2 51.8999L180.1 53.7999V56.2999H178.2V44.8999H180.1Z" fill="#4D4D4F"/>
<path fill-rule="evenodd" clip-rule="evenodd" d="M199.5 52.7C198.2 52.5 196.5 52.1 196.5 50.5C196.5 48.6 198.4 47.7 200.2 47.7C202 47.7 203.7 48.4999 203.9 50.0999H202.1C202 49.5999 201.3 49.4 200.2 49.4C199.4 49.4 198.3 49.5999 198.3 50.2999C198.3 50.7999 199.1 50.9 199.9 51L200.8 51.0999C202.9 51.3999 204.1 51.8 204.1 53.5C204.1 55.5 202.1 56.4 200.1 56.4C198.2 56.4 196.1 55.7999 196.1 53.7999H197.9C197.9 54.4999 198.9 54.7 200 54.7C201 54.7 202.1 54.4 202.1 53.7C202.1 53.1 201.4 52.9999 200.3 52.7999L199.5 52.7Z" fill="#4D4D4F"/>
<path fill-rule="evenodd" clip-rule="evenodd" d="M2 2.30005H8.7V8.90005H2V2.30005ZM8.6 11.1V36.3H2V11.1H8.6Z" fill="#4D4D4F"/>
<path fill-rule="evenodd" clip-rule="evenodd" d="M32.6 36.2999V23.9C32.6 21.6 32.5 19.4 31.2 18C30.4 17.1 29.2 16.5 27.6 16.5C25.2 16.5 21.7 18.2 21.7 22.2V36.4H15V11.1H21.7V13.3C23.7 11.5 26.4 10.7 28.8 10.7C32.1 10.7 34.7 11.8 36.3 13.5C39.2 16.6 39.2 20.6 39.2 24.5V36.2999H32.6Z" fill="#4D4D4F"/>
<path fill-rule="evenodd" clip-rule="evenodd" d="M56.6 17.7999H52.2V26.6C52.2 29.5 53.1 30.9 55.6 30.9C56.4 30.9 57.6 30.6999 59.1 30.4C59.2 32.4 59.2 34.3999 59.3 36.2999C58.5 36.3999 57.1 36.5999 56 36.5999C53.5 36.5999 50.2 36.1 48.2 34.2C45.9 32.1 45.6 28.9 45.6 26.6V17.7999H43.1V11.1H45.6V7.89995L52.3 1.69995V11.1H58.5C57.8 13 57.2 15.9 56.6 17.7999Z" fill="#4D4D4F"/>
<path fill-rule="evenodd" clip-rule="evenodd" d="M68.3 25.9C68.7 29.1 70.6 30.9 74 30.9C76.9 30.9 79.1 29.4 79.7 28.2999L85.4 30.7999C83.9 33.4 80 36.9 74 36.9C66.4 36.9 61.5 31.7 61.5 24.1C61.5 16.7 65.9 10.7 74 10.7C81.1 10.7 86.1 15.4 86.2 25.9H68.3ZM68.3 20.9H79.1C79 18.3 77.2 16.1 73.9 16.1C70.6 16.2 68.6 18.3 68.3 20.9Z" fill="#4D4D4F"/>
<path d="M97.8 2.30005H91.1V36.4001H97.8V2.30005Z" fill="#4D4D4F"/>
<path d="M110.8 2.30005H104.1V36.4001H110.8V2.30005Z" fill="#4D4D4F"/>
<path fill-rule="evenodd" clip-rule="evenodd" d="M117.1 2.30005H123.8V8.90005H117.1V2.30005ZM123.7 11.1V36.3H117V11.1H123.7Z" fill="#4D4D4F"/>
<path fill-rule="evenodd" clip-rule="evenodd" d="M130.1 36.3V2.30005H135.9C139.9 10.1 144 17.8 148.1 25.6C152.2 17.8 156.2 10.1 160.3 2.30005H166.1V36.4001H159.4V18.6C156.3 24.6 153.2 30.5001 150.1 36.4001H146.4L137 18.7001V36.4001H130.1V36.3Z" fill="#4D4D4F"/>
<path fill-rule="evenodd" clip-rule="evenodd" d="M192.6 22.5H179.1V29.6H195.4V36.3H172.4V2.30005H195V9.00005H179.1V15.8H192.6V22.5Z" fill="#4D4D4F"/>
<path d="M237.8 2.30005H231.1V36.4001H237.8V2.30005Z" fill="#4D4D4F"/>
<path fill-rule="evenodd" clip-rule="evenodd" d="M262.3 2.30005L277.5 36.4001H270.2L267.3 29.9H251.9L248.9 36.4001H241.7L257.2 2.30005H262.3ZM254.9 23.2001H264.2L259.6 12.8L254.9 23.2001Z" fill="#4D4D4F"/>
<path fill-rule="evenodd" clip-rule="evenodd" d="M199.8 26.1001C199.8 22.4001 199.8 16.3001 199.8 12.7001V8.4001C199.8 4.7001 202.4 3.2001 205.6 5.0001L209.3 7.1001C212.5 8.9001 217.7 12.0001 220.9 13.8001L224.6 15.9001C227.8 17.8001 227.8 20.8001 224.6 22.6001L220.9 24.7001C217.7 26.6001 212.5 29.6001 209.3 31.4001L205.6 33.5001C202.4 35.3001 199.8 33.8001 199.8 30.1001V26.1001Z" fill="url(#paint0_linear)"/>
<path opacity="0.14" fill-rule="evenodd" clip-rule="evenodd" d="M198.5 19.8C210.2 15.3 222.8 16.5 227.9 17.4C232.8 18.2 197.6 -4.69995 197.6 -4.69995L198.5 19.8Z" fill="white"/>
</g>
<defs>
<linearGradient id="paint0_linear" x1="213.42" y1="-6.133" x2="213.42" y2="44.8742" gradientUnits="userSpaceOnUse">
<stop stop-color="#6DCEF5"/>
<stop offset="1" stop-color="#0070AA"/>
</linearGradient>
<clipPath id="clip0">
<rect width="280" height="60" fill="white"/>
</clipPath>
</defs>
</svg>
