<svg width="35" height="35" viewBox="0 0 35 35" fill="none" xmlns="http://www.w3.org/2000/svg">
<g clip-path="url(#clip0)">
<path d="M17.4995 0.700195C8.22125 0.700195 0.699951 8.2215 0.699951 17.4998C0.699951 26.778 8.22125 34.2993 17.4995 34.2993C26.7778 34.2993 34.2991 26.778 34.2991 17.4998C34.2991 8.2215 26.7778 0.700195 17.4995 0.700195ZM13.3871 24.4628H9.98521V13.5151H13.3871V24.4628ZM11.6652 12.1711C10.5907 12.1711 9.89596 11.4099 9.89596 10.4684C9.89596 9.50771 10.6117 8.76923 11.7089 8.76923C12.8061 8.76923 13.4781 9.50771 13.4991 10.4684C13.4991 11.4099 12.8061 12.1711 11.6652 12.1711ZM25.8118 24.4628H22.4099V18.3957C22.4099 16.9835 21.9164 16.0245 20.6862 16.0245C19.7464 16.0245 19.1882 16.6738 18.9415 17.2985C18.8505 17.5208 18.8277 17.8357 18.8277 18.149V24.4611H15.4241V17.0063C15.4241 15.6396 15.3803 14.4968 15.3348 13.5134H18.2905L18.4462 15.0341H18.5145C18.9625 14.3201 20.0597 13.2666 21.8954 13.2666C24.1336 13.2666 25.8118 14.7663 25.8118 17.9897V24.4628Z" fill="white"/>
</g>
<defs>
<clipPath id="clip0">
<rect y="0.000488281" width="34.9991" height="34.9991" fill="white"/>
</clipPath>
</defs>
</svg>
