<svg width="15" height="16" viewBox="0 0 15 16" fill="none" xmlns="http://www.w3.org/2000/svg">
<path d="M4.1375 7.19333C5.0375 9.08 6.4875 10.62 8.25625 11.5867L9.63125 10.12C9.8 9.94 10.05 9.88 10.2688 9.96C10.9688 10.2067 11.725 10.34 12.5 10.34C12.8438 10.34 13.125 10.64 13.125 11.0067V13.3333C13.125 13.7 12.8438 14 12.5 14C6.63125 14 1.875 8.92667 1.875 2.66667C1.875 2.3 2.15625 2 2.5 2H4.6875C5.03125 2 5.3125 2.3 5.3125 2.66667C5.3125 3.5 5.4375 4.3 5.66875 5.04667C5.7375 5.28 5.6875 5.54 5.5125 5.72667L4.1375 7.19333Z" fill="white"/>
</svg>
