<svg width="68" height="89" viewBox="0 0 68 89" fill="none" xmlns="http://www.w3.org/2000/svg">
<path d="M67.2206 77.315C67.2206 80.2362 66.0516 81.7942 63.7134 82.7679C54.7507 86.2734 44.2292 88.0261 34.0974 88.0261C23.9656 88.0261 13.4441 86.2734 4.48135 82.7679C2.14324 81.7942 0.974182 80.2362 0.974182 77.315V0.973633H67.2206V77.315Z" fill="#0059B3"/>
<path d="M67.2206 77.315C67.2206 80.2362 66.0516 81.7942 63.7134 82.7679C54.7507 86.2734 44.2292 88.0261 34.0974 88.0261C23.9656 88.0261 13.4441 86.2734 4.48135 82.7679C2.14324 81.7942 0.974182 80.2362 0.974182 77.315V0.973633H67.2206V77.315Z" stroke="#605050"/>
<path d="M18.7049 47.5187C9.54727 41.871 6.42979 39.3393 6.23495 35.4443C6.23495 34.6653 6.42979 33.3021 6.62463 32.5231L5.84526 31.9389C5.06589 33.1073 4.67621 34.4706 4.67621 35.8338C4.67621 37.9761 5.45558 39.7288 6.23495 40.8973C7.59884 42.8448 8.96274 44.208 12.2751 46.545C15.7822 49.2715 18.3152 52.3874 19.6791 55.6982H20.2636V51.9979C25.1347 54.7244 29.4212 57.2561 31.5645 61.9301H32.149C31.1748 57.2561 28.447 53.5559 18.7049 47.5187ZM45.5931 35.0548C43.6447 36.0286 42.2808 37.1971 40.9169 38.9498L45.0086 38.7551C45.2034 36.8076 45.3983 35.6391 45.5931 35.0548ZM60.4011 49.661C60.7908 48.6872 61.1805 47.5187 61.1805 46.545L55.1404 46.1555C54.9455 47.7135 54.5559 49.0767 53.9713 50.44L60.4011 49.661ZM53.9713 34.6653C54.361 35.8338 54.7507 37.0023 54.9455 37.9761L58.4527 37.7813C57.2837 36.4181 55.7249 35.4443 53.9713 34.6653ZM52.4126 38.1708C52.0229 36.8076 51.4384 35.2496 50.659 33.8863H48.7106C48.1261 35.2496 47.7364 36.8076 47.3467 38.3656L52.4126 38.1708ZM55.3352 40.1183C55.5301 41.6763 55.5301 43.0395 55.5301 44.4028L61.3753 44.0133C61.1805 42.65 60.7908 41.4815 60.2063 40.313L55.3352 40.1183ZM53.3868 44.4028C53.3868 42.8448 53.192 41.4815 52.8023 39.9235L46.957 39.7288C46.5673 41.4815 46.3725 43.2343 46.1776 44.7923L53.3868 44.4028ZM54.1662 31.9389L54.9455 30.9651L53.9713 29.6019L54.1662 29.2124L57.0888 30.7704L56.5043 32.7179C56.894 32.9126 57.4785 33.3021 58.063 33.6916L60.0114 30.5756L55.1404 28.0439H44.2292L35.2665 33.3021C37.02 34.4706 38.3839 35.6391 39.553 37.0023C41.8911 33.4968 46.1776 31.3546 50.2693 31.3546C51.2435 31.3546 52.8023 31.5494 54.1662 31.9389ZM32.149 31.7441L37.02 28.8229C36.0458 28.2386 34.8768 28.0439 33.7077 28.0439C31.9541 28.0439 29.2264 28.8229 27.8625 29.0176C28.447 29.4071 30.7851 30.7704 32.149 31.7441ZM33.318 20.6435C31.5645 20.254 30.5902 20.4487 29.616 21.4224C30.2006 21.6172 30.7851 21.8119 31.3696 21.8119C32.3438 21.6172 32.9284 21.033 33.318 20.6435ZM60.9857 62.1249H60.4011C60.4011 58.6194 57.2837 57.8404 53.9713 57.8404H43.6447C44.0344 59.5931 44.0344 61.5406 43.8395 63.2933H43.255C42.2808 55.6982 37.9943 51.8032 31.9541 47.7135V51.2189H31.3696C29.8109 47.5187 26.3037 44.208 22.7966 41.871L20.0688 39.9235V43.6238H19.4842C18.1203 39.9235 15.3925 37.0023 11.8854 33.6916C7.98853 30.1861 6.23495 28.0439 5.45558 25.5122C4.87105 23.9542 4.67621 22.7857 4.67621 21.2277C4.67621 18.3065 6.0401 15.58 7.98853 14.6063V15.9695C7.01432 17.138 6.62463 18.696 6.62463 20.254C6.62463 21.6172 7.01432 23.3699 7.59884 24.7332C9.93695 29.0176 17.341 34.2758 22.212 37.3918C37.2149 47.324 40.1375 49.0767 42.6705 54.5297C42.8653 55.1139 43.255 55.8929 43.4498 56.8667C45.5931 56.4772 53.3868 55.3087 54.9455 55.1139C55.1404 55.1139 55.7249 54.9192 56.1146 54.9192C57.4785 54.1402 58.4527 52.9717 59.4269 51.6084L53.7765 51.2189C53.5817 51.8032 53.192 52.3874 52.9971 52.7769H52.6074C52.8023 52.1927 52.8023 51.6084 52.9971 51.0242L51.4384 50.8295V50.44L52.9971 50.2452C53.3868 48.6872 53.3868 47.1292 53.3868 45.766L46.1776 45.3765V47.5187H45.788C45.5931 46.7397 45.5931 46.1555 45.3983 45.3765H43.8395V44.987H45.3983C45.2034 43.2343 45.2034 41.4815 45.2034 39.7288L40.9169 39.534L41.5014 40.7025C42.4756 43.2343 42.2808 46.1555 41.8911 47.5187H41.3066C41.3066 45.9607 40.7221 44.0133 40.1375 42.8448C38.9685 40.1183 36.4355 37.5866 31.9541 34.8601V38.3656H31.3696C30.0057 33.6916 26.3037 31.1599 20.8481 28.4334C16.3668 26.0964 15.0029 23.3699 15.1977 19.0855L16.7564 20.0592C17.1461 23.9542 20.2636 26.2912 23.3811 26.2912C25.3295 26.2912 27.0831 26.0964 28.8367 25.7069C31.3696 25.1227 33.5129 24.7332 35.4613 25.5122V23.1752H33.9026C33.318 23.5647 32.3438 24.1489 30.7851 24.1489C29.0315 24.1489 25.7192 23.1752 25.7192 19.475C25.7192 16.1642 28.447 15.7747 30.5902 15.7747H34.4871C35.0716 15.7747 35.2665 15.58 35.6561 15.3852C35.851 15.1905 36.0458 14.801 36.0458 14.6063V10.5165H25.7192V14.6063L21.8223 13.0483V12.0745H23.7708V10.5165H16.9513V7.20582H14.6132C13.2493 7.20582 11.8854 7.98481 11.6905 9.73755C11.6905 11.4903 12.2751 12.8535 14.0286 12.8535H14.4183V14.801H14.0286C11.106 14.801 8.7679 12.6588 8.7679 9.5428C8.7679 6.42682 11.3008 4.08984 14.6132 4.08984H19.6791V7.40057H39.1633V12.464C39.1633 13.243 39.1633 14.4115 38.9685 15.1905C38.9685 15.7747 38.7736 16.5537 37.7994 17.3327C37.2149 17.7222 36.2407 17.917 34.8768 17.917C33.7077 17.917 32.5387 17.917 31.3696 17.7222C29.2264 17.5275 28.447 18.5012 28.447 19.2802V19.8645C29.4212 19.0855 30.9799 18.5012 32.5387 19.0855C35.4613 20.0592 36.2407 20.0592 37.7994 18.8907L37.9943 19.2802C37.7994 19.475 37.6046 19.8645 37.02 20.254H38.3839V28.0439L42.8653 25.3174H55.3352L61.3753 28.4334C62.1547 28.8229 62.3496 29.4071 62.5444 29.9914C62.5444 30.5756 62.5444 31.3546 62.1547 31.7441C61.9599 32.1336 60.596 34.4706 59.8166 35.6391C62.1547 38.1708 63.3238 41.2868 63.3238 44.5975C63.3238 47.9082 62.1547 51.9979 58.2579 55.1139C59.8166 55.5034 60.9857 56.4772 61.9599 57.8404L60.9857 62.1249Z" fill="#FFDF01"/>
<path d="M34.4871 78.6782H32.149V71.862H34.4871C37.6046 71.862 38.7737 72.8358 38.7737 75.1728C38.5788 77.5097 37.0201 78.6782 34.4871 78.6782ZM34.2923 65.2406C36.2407 65.2406 37.4098 65.6301 37.4098 67.5776C37.4098 69.7198 35.6562 70.3041 33.7078 70.3041H31.9542V65.2406H34.2923ZM37.9943 70.8883C39.7479 70.6936 41.3066 69.3303 41.3066 67.3828C41.3066 65.6301 40.5272 63.6826 35.2665 63.6826H26.4986V63.8774C26.6934 63.8774 27.278 64.2669 27.4728 64.4616C28.0573 65.0459 28.2522 65.8249 28.2522 66.9933V80.2362H35.4613C39.553 80.2362 42.2808 78.6782 42.2808 75.1728C42.4757 72.2515 40.3324 71.0831 37.9943 70.8883ZM13.2493 65.2406H15.7823C17.9255 65.2406 19.0946 65.8248 19.0946 68.1618C19.0946 70.1093 17.7307 71.4726 15.3926 71.4726H13.4441V65.2406H13.2493ZM20.0688 80.2362H24.745L18.7049 72.4463C21.043 71.862 22.9914 70.4988 22.9914 67.9671C22.9914 65.0459 21.2378 63.6826 16.9513 63.6826H7.59888V63.8774C7.98856 64.0721 8.37825 64.2669 8.57309 64.4616C9.15762 65.0459 9.35246 66.0196 9.35246 67.3828V80.2362H13.2493V72.8358H14.6132L20.0688 80.2362ZM57.8682 66.0196C58.8424 66.6038 59.2321 67.3828 59.2321 67.3828H59.427L60.2063 64.6564C60.2063 64.6564 58.6476 63.6826 55.1404 63.6826C49.6848 63.6826 45.788 66.4091 45.788 72.2515C45.788 78.873 50.6591 80.6257 54.7507 80.6257C58.6476 80.6257 60.2063 79.4572 60.2063 79.4572V77.5097C60.2063 77.5097 58.8424 78.873 55.9198 78.873C53.3868 78.873 49.8797 77.7045 49.8797 72.2515C49.8797 67.1881 52.023 65.6301 54.9456 65.6301C56.5043 65.2406 57.2837 65.6301 57.8682 66.0196Z" fill="white"/>
</svg>
