<svg width="45" height="45" viewBox="0 0 45 45" fill="none" xmlns="http://www.w3.org/2000/svg">
<path d="M22.5 37.5C26.4783 37.5 30.2936 35.9197 33.1066 33.1066C35.9197 30.2936 37.5 26.4783 37.5 22.5C37.5 18.5218 35.9197 14.7064 33.1066 11.8934C30.2936 9.08035 26.4783 7.5 22.5 7.5C18.5218 7.5 14.7064 9.08035 11.8934 11.8934C9.08035 14.7064 7.5 18.5218 7.5 22.5C7.5 26.4783 9.08035 30.2936 11.8934 33.1066C14.7064 35.9197 18.5218 37.5 22.5 37.5V37.5ZM22.5 41.25C12.1444 41.25 3.75 32.8556 3.75 22.5C3.75 12.1444 12.1444 3.75 22.5 3.75C32.8556 3.75 41.25 12.1444 41.25 22.5C41.25 32.8556 32.8556 41.25 22.5 41.25Z" fill="white"/>
<path d="M27.6488 30.1276V25.1851H29.2088V31.7682H15.1219V25.1851H16.6819V30.1276H27.6488Z" fill="white"/>
<path d="M18.405 24.7164L26.0681 26.4002L26.3925 24.7802L18.7294 23.0964L18.405 24.7164ZM19.4175 20.8802L26.5144 24.3545L27.1613 22.862L20.0681 19.3689L19.4194 20.8802H19.4175ZM21.3863 17.2164L27.405 22.4795L28.3988 21.2233L22.38 15.9583L21.3863 17.2145V17.2164ZM25.2769 13.3164L24.0206 14.297L28.6819 20.9027L29.9381 19.922L25.2769 13.3164ZM18.2438 28.4664H26.0681V26.8258H18.2438V28.4664V28.4664Z" fill="white"/>
</svg>
