<svg width="86" height="28" viewBox="0 0 86 28" fill="none" xmlns="http://www.w3.org/2000/svg">
<path d="M79.2188 21.9156H81.6072L85.7741 11.4137H83.4111L81.6919 16.6392L79.8964 11.4137H77.254L80.4045 19.0022L79.2188 21.9156ZM67.2687 13.9206V19.2986H64.8634V11.4137H66.5657L67.0739 12.0997C67.7429 11.5492 68.4459 11.2189 69.242 11.2189C70.3176 11.2189 71.1561 11.5323 71.6473 12.3368C72.3926 11.6678 73.1548 11.2189 74.1542 11.2189C76.009 11.2189 77.11 12.1759 77.11 14.8014V19.2817H74.6878V15.0809C74.6878 13.8698 74.1965 13.5141 73.4174 13.5141C72.9685 13.5141 72.5789 13.6326 72.147 13.9037C72.1893 14.1747 72.1893 14.4711 72.1893 14.7845V19.2647H69.801V15.064C69.801 13.8528 69.3098 13.4971 68.5136 13.4971C68.0478 13.531 67.7006 13.6411 67.2687 13.9206ZM58.8586 14.5812H61.9669C61.789 13.5649 61.247 13.0737 60.4255 13.0737C59.7225 13.0737 59.0365 13.4887 58.8586 14.5812ZM60.5779 19.4511C58.2488 19.4511 56.3941 18.2992 56.3941 15.2842C56.3941 12.4469 58.1896 11.2358 60.2645 11.2358C62.7715 11.2358 63.8809 12.9974 63.8809 15.75H58.8332C59.0111 17.122 59.8495 17.5116 60.9675 17.5116C61.9076 17.5116 62.7291 17.2999 63.4151 16.8849L63.0848 18.7989C62.4411 19.2393 61.6535 19.4511 60.5779 19.4511ZM51.6851 17.4184C52.2356 17.4184 52.6422 17.3168 53.0741 17.0119V13.5734C52.6845 13.3362 52.3119 13.2431 51.7614 13.2431C50.5841 13.2431 49.9066 14.0476 49.9066 15.3773C49.9066 16.6562 50.5841 17.4184 51.6851 17.4184ZM53.5399 18.7058C52.9132 19.1716 52.1933 19.468 51.177 19.468C49.0258 19.468 47.4589 18.1383 47.4589 15.4027C47.4589 12.6841 49.2375 11.2189 51.5496 11.2189C52.0747 11.2189 52.6083 11.2951 53.0741 11.473V8.14453H55.4794V19.2901H53.9549L53.5399 18.7058ZM37.228 14.6235V8.79667H39.7349V14.5812C39.7349 16.6562 40.675 17.0881 41.9454 17.0881C43.3344 17.0881 44.0543 16.4783 44.0543 14.5812V8.79667H46.5781V14.6235C46.5781 18.0621 45.0706 19.4934 41.8269 19.4934C38.7948 19.5103 37.228 18.2569 37.228 14.6235Z" fill="#EDECE6"/>
<path d="M31.4492 15.8457C31.3288 15.7425 31.2083 15.6908 31.0706 15.665C30.253 16.4826 29.2634 17.3345 28.3856 17.8939C27.9897 18.1693 27.4734 18.2898 27.1378 18.2898C26.3633 18.2898 26.0276 17.5583 25.9244 16.3621C25.7867 14.77 25.7092 12.8854 25.7092 9.94223C25.7092 6.93885 25.0294 4.89069 23.205 4.73579C23.1275 4.73579 23.0501 4.71858 22.964 4.71858C21.8539 4.71858 21.3117 5.29516 20.5974 6.74952C19.9778 7.99735 19.0484 9.81315 17.2756 13.2468C15.7438 16.2072 14.0571 18.8491 12.6028 20.6563C12.2069 21.1555 11.8885 21.5083 11.5701 21.7062C11.3721 21.8439 11.1742 21.9042 10.9763 21.9042C10.3997 21.9042 9.98662 21.4308 9.84032 20.2949C9.79729 20.0195 9.78008 19.7183 9.78008 19.3827C9.78008 17.0591 10.6579 13.2812 12.1811 7.72196C13.3084 3.66007 12.8265 0.90625 10.3997 0.90625C10.3997 0.90625 10.3997 0.90625 10.3825 0.90625H10.3653C9.8059 0.90625 9.3498 1.10418 8.91091 1.46562C8.47202 1.80124 8.03313 2.54133 7.63726 3.53099C7.19837 4.70136 4.41873 10.2693 0.00400779 13.1263C-0.0562321 14.2193 0.563378 15.3122 1.8112 15.4327C2.94716 15.5359 3.75609 15.054 4.78878 14.357C4.71133 14.7184 4.63387 15.0368 4.57363 15.3294C4.49618 15.6908 4.43594 15.9834 4.3757 16.2244C4.29825 16.5858 4.23801 16.8182 4.23801 16.8784C4.10032 17.5325 3.99705 18.1693 3.9196 18.7631C3.29999 24.331 5.89031 27.0934 8.91091 27.0934C9.41004 27.0934 9.92638 27.0332 10.4169 26.9127C13.7559 26.0607 16.9572 22.2398 20.7523 13.462C20.6921 14.4172 20.6921 15.3122 20.7351 16.1469C20.9933 21.1985 22.9812 22.7045 25.8039 22.7045C27.9295 22.7045 29.9346 21.5944 30.9501 20.2174C31.6816 19.245 32 18.1693 32 17.3173C31.9828 16.6375 31.7849 16.1211 31.4492 15.8457Z" fill="white"/>
</svg>
