<svg width="64" height="80" viewBox="0 0 64 80" fill="none" xmlns="http://www.w3.org/2000/svg">
<path d="M32.0049 77.8531C-9.17789 61.8095 3.66527 7.07753 3.66527 7.07753C11.1017 3.16516 27.9572 1.78259 32.0049 1.78259C36.0526 1.78259 52.9081 3.18869 60.3446 7.07753C60.3387 7.07753 73.1701 61.8036 32.0049 77.8531Z" fill="white"/>
<path d="M62.0568 6.67772L61.8745 5.89525L61.1626 5.51872C53.2967 1.40044 35.9587 0.00610352 32.0052 0.00610352C28.0516 0.00610352 10.7078 1.38867 2.84184 5.5246L2.12997 5.88936L1.94758 6.67184C-0.0837466 16.54 -0.522697 26.6696 0.647384 36.6765C1.82404 46.0367 4.51857 54.2145 8.71333 60.9684C14.0083 69.4697 21.6153 75.706 31.3698 79.5066L32.011 79.7596L32.6523 79.5066C42.4068 75.706 50.0256 69.4697 55.3029 60.9684C59.4976 54.2145 62.2098 46.0426 63.3629 36.6765C64.5318 26.6713 64.0908 16.5435 62.0568 6.67772ZM31.9993 77.8652C-9.18354 61.8215 3.65961 7.08955 3.65961 7.08955C11.0961 3.17718 27.9516 1.79461 31.9993 1.79461C36.047 1.79461 52.9025 3.19483 60.3389 7.08955C60.3389 7.07778 73.1644 61.8097 31.9993 77.8534V77.8652Z" fill="#005596"/>
<path d="M6.21271 47.4073C8.01108 53.6193 11.1049 59.38 15.2906 64.3099L11.8842 45.5894C9.38378 46.2953 7.41878 46.9778 6.21271 47.4249V47.4073Z" fill="#005596"/>
<path d="M23.6154 32.5286L29.1222 3.95947C23.4205 4.35441 17.7555 5.16652 12.1725 6.38926L16.7791 33.5699C19.0912 33.1287 21.3798 32.7757 23.586 32.5286H23.6154ZM22.1328 17.0968C22.1328 17.8087 22.2799 18.4088 22.4564 18.4852C22.1081 18.7206 21.7723 18.9739 21.4504 19.2442C21.2268 19.4677 20.2384 20.662 20.2384 20.662C20.2384 20.662 19.25 19.4854 19.0265 19.2442C18.7031 18.9713 18.3653 18.716 18.0146 18.4794C18.1911 18.4029 18.3381 17.8087 18.3381 17.0909C18.3381 16.2261 17.8381 15.4495 17.1027 15.4495C16.0378 15.4495 15.8907 16.179 15.8907 16.179C15.8907 16.179 14.9082 15.2553 14.9082 14.3611C14.9082 12.3313 16.0025 12.4725 16.4731 12.4725C17.5616 12.4725 19.0441 14.1669 19.0441 14.1669C18.8794 13.7963 18.597 13.1374 18.5146 12.9314C18.4793 12.8491 18.4382 12.7432 18.3911 12.6314C18.1468 12.0349 18.128 11.3699 18.3381 10.7605C18.5911 9.97805 19.1324 9.6427 19.5736 9.09556C20.0149 8.54841 20.2326 8.32485 20.2326 8.32485C20.2326 8.32485 20.4149 8.51311 20.8856 9.09556C21.3563 9.678 21.8681 9.97805 22.1211 10.7605C22.3423 11.3705 22.3318 12.0404 22.0917 12.6432C22.0505 12.7608 22.0034 12.8608 21.9681 12.9432C21.8857 13.1491 21.6033 13.808 21.4386 14.1787C21.4386 14.1787 22.9212 12.4843 24.0096 12.4843C24.4803 12.4843 25.5745 12.349 25.5745 14.3728C25.5745 15.2671 24.592 16.1908 24.592 16.1908C24.592 16.1908 24.4508 15.4612 23.3801 15.4612C22.6447 15.4554 22.1328 16.2261 22.1328 17.0968Z" fill="#005596"/>
<path d="M10.6428 38.3354C11.6665 38.0648 12.702 37.8118 13.708 37.5823L13.9727 37.5235L15.2906 37.2352H15.3553L15.6907 37.1646L17.3321 36.8352H17.4086C19.2912 36.4763 21.1503 36.1821 22.9388 35.9586L22.9859 35.7115L23.4271 33.417C21.3033 33.6641 19.0971 34.0053 16.8673 34.4289C14.6376 34.8525 12.3431 35.382 10.1251 35.9703C8.03653 36.5292 6.00681 37.147 4.12417 37.7765H4.08887C4.15947 38.2589 4.28301 39.1414 4.47128 40.171C6.37745 39.5356 8.47778 38.912 10.5487 38.3648L10.6428 38.3354Z" fill="#005596"/>
<path d="M18.5441 44.0067L19.8796 51.9962L21.4975 43.5007C20.5503 43.6419 19.5854 43.8067 18.5558 44.0067H18.5441Z" fill="#005596"/>
<path d="M12.7196 41.2829H12.7902L14.3199 40.8828H14.4258C14.967 40.7534 15.5142 40.624 16.0437 40.5063H16.1437C16.732 40.371 17.3203 40.2533 17.8616 40.1415C19.3677 39.8356 20.8503 39.5532 22.2681 39.3767H22.3034L22.78 36.8763C21.0503 37.0999 19.25 37.3882 17.4851 37.7353C16.8967 37.8412 16.3378 37.9589 15.7201 38.0883H15.6201L14.0198 38.4413H13.9257C12.8608 38.6884 11.7959 38.9472 10.7664 39.2238C8.79548 39.7415 6.80694 40.3357 4.68896 41.0476C4.77133 41.477 4.85958 41.9536 4.95959 42.389L5.03608 42.7243C5.10079 43.0185 5.17139 43.3126 5.24199 43.6127C7.1011 42.942 9.16613 42.2889 11.2194 41.7065L12.7196 41.2829Z" fill="#005596"/>
<path d="M16.3614 41.271L16.1672 41.3122C14.5552 41.6769 12.9314 42.0829 11.3429 42.5359C9.28969 43.1242 7.29526 43.7537 5.40674 44.4303C5.58324 45.148 5.77934 45.8638 5.99506 46.5777L6.05978 46.5424C11.1229 44.7033 16.3607 43.3865 21.6916 42.6124L22.1328 40.1943C20.7562 40.4003 19.3324 40.6473 17.8969 40.9415L16.3614 41.271Z" fill="#005596"/>
<path d="M9.98976 35.123L5.20078 8.78369H5.16548C3.27739 18.0371 2.88017 27.5328 3.98883 36.9116C5.89501 36.2644 7.90708 35.6584 9.96622 35.1113L9.98976 35.123Z" fill="#005596"/>
<path d="M33.6052 32.0579L32.0049 24.0508L30.4164 32.0579C30.9283 32.0579 31.4578 32.0579 31.9814 32.0579C32.505 32.0579 33.058 32.0579 33.6052 32.0579Z" fill="#005596"/>
<path d="M34.3112 35.3877C34.2347 35.023 33.87 33.2874 33.7817 32.9167C33.2287 32.9167 32.6404 32.9167 32.0167 32.9167C31.3931 32.9167 30.8401 32.9167 30.2518 32.9167C30.1694 33.2874 29.8046 35.023 29.7281 35.3877C30.5577 35.3877 31.3107 35.3465 32.0285 35.3465C32.7463 35.3465 33.4758 35.3583 34.3112 35.3877Z" fill="#005596"/>
<path d="M32.0167 38.5883C32.8933 38.5883 33.8287 38.5883 34.9583 38.6648L34.4877 36.2409H34.4288C33.5052 36.1761 32.7227 36.1761 32.0167 36.1761C31.3107 36.1761 30.5165 36.1761 29.5928 36.2291H29.5457L29.0633 38.6589C30.2164 38.6118 31.1519 38.5883 32.0167 38.5883Z" fill="#005596"/>
<path d="M35.6055 41.9535L35.123 39.5178H35.076C33.8993 39.459 32.9227 39.4296 32.0049 39.4296C31.0871 39.4296 30.0928 39.4296 28.9044 39.5178L28.422 41.9476C29.7222 41.877 30.8871 41.8476 31.9814 41.8476C33.0757 41.8476 34.3053 41.8888 35.6055 41.9535Z" fill="#005596"/>
<path d="M35.7526 42.8066C34.423 42.7301 33.1993 42.6948 32.0167 42.6948C30.8342 42.6948 29.6163 42.7301 28.2808 42.8066L22.6212 70.8874C25.5486 72.9185 28.7088 74.5915 32.0344 75.8705C35.3606 74.5881 38.5209 72.9111 41.4476 70.8756L35.7702 42.8066H35.7526ZM29.9988 68.1046C28.9927 68.1046 26.4688 67.128 26.2805 63.2097C26.1335 60.3446 26.9689 59.5857 26.9689 59.5857L28.5103 62.3979C28.5103 66.4338 31.4225 66.5161 31.4225 66.5161C31.4506 66.7182 31.4346 66.9239 31.3755 67.1191C31.3165 67.3144 31.2159 67.4945 31.0806 67.6471C30.9453 67.7998 30.7785 67.9213 30.5918 68.0033C30.405 68.0853 30.2027 68.1259 29.9988 68.1223V68.1046ZM32.3521 69.246H31.6108V65.0747C31.2284 64.91 30.3753 64.4864 30.3988 62.9156C30.439 61.5704 30.2824 60.2266 29.934 58.9267C29.6869 58.0442 28.1691 57.1147 28.1691 57.1147C29.6869 55.4262 31.0166 57.703 30.9577 57.4324C30.9297 56.7773 31.0546 56.1247 31.3225 55.5262C31.5006 55.1571 31.7176 54.808 31.9697 54.4849C32.2239 54.8077 32.4428 55.1568 32.6227 55.5262C32.891 56.1246 33.0159 56.7773 32.9875 57.4324C32.9286 57.7148 34.2582 55.4262 35.7761 57.1147C35.7761 57.1147 34.2818 58.0442 34.0111 58.9267C33.6636 60.2268 33.507 61.5705 33.5464 62.9156C33.5464 64.5923 32.5933 64.9571 32.2638 65.1042L32.3521 69.246ZM37.7176 63.2392C37.5176 67.1574 34.9995 68.134 33.9935 68.134C33.792 68.1373 33.5922 68.0973 33.4076 68.0166C33.2229 67.9359 33.0578 67.8165 32.9233 67.6664C32.7889 67.5163 32.6882 67.3391 32.6282 67.1467C32.5682 66.9544 32.5503 66.7513 32.5756 66.5514C32.5756 66.5514 35.4878 66.4691 35.4878 62.4332L37.0293 59.621C37.0293 59.621 37.8647 60.3681 37.7176 63.2392Z" fill="#005596"/>
<path d="M53.3141 39.2119C52.2728 38.9354 51.2138 38.6765 50.1725 38.4294L50.0372 38.4L48.584 38.0764L48.2898 38.0117L46.619 37.6763C44.8128 37.3292 43.0125 37.0409 41.2711 36.8174H41.2299L41.7123 39.3178H41.8006C43.2067 39.5237 44.6187 39.7649 46.113 40.0649H46.2013C48.4193 40.5121 50.6726 41.0592 52.9023 41.6887C54.8967 42.2771 56.8676 42.8654 58.7503 43.5537L58.8562 43.5949C59.0562 42.7281 59.2386 41.8633 59.4033 41.0004L59.3033 40.971C57.3736 40.3591 55.3556 39.759 53.3141 39.2119Z" fill="#005596"/>
<path d="M52.7257 42.5536L51.202 42.1359H51.1726L49.5664 41.724C48.3898 41.4416 47.2425 41.1828 46.0777 40.9416C44.6716 40.6592 43.2772 40.4121 41.93 40.212H41.8947L42.4006 42.6477C43.3714 42.7889 44.3833 42.9654 45.5599 43.189H45.6658L46.1835 43.2949L46.6307 43.3831L46.919 43.4419C47.4543 43.5537 48.0074 43.6773 48.6133 43.8126L49.0663 43.9185C49.69 44.0656 50.243 44.2009 50.7372 44.3303L50.9196 44.3774L52.0962 44.701L52.3845 44.7833C54.326 45.3305 56.191 45.96 57.9383 46.5777L58.0619 46.6248C58.2697 45.9031 58.4658 45.1795 58.6502 44.4539L58.5207 44.4068C56.6499 43.7302 54.7025 43.1125 52.7257 42.5536Z" fill="#005596"/>
<path d="M42.5771 43.5126L44.195 51.9962L45.5247 44.0244C44.4892 43.8244 43.5361 43.6597 42.5771 43.5126Z" fill="#005596"/>
<path d="M52.1786 45.5894L48.784 64.2746C52.9483 59.3578 56.0294 53.6184 57.8266 47.4308C56.0322 46.766 54.1319 46.1777 52.1786 45.5894Z" fill="#005596"/>
<path d="M60.0387 36.9646C61.1522 27.5742 60.755 18.0661 58.862 8.80139L54.0789 35.1584C56.1322 35.7114 58.1325 36.3174 60.0387 36.9646Z" fill="#005596"/>
<path d="M47.2897 33.5935L51.9021 6.39514C46.3174 5.17018 40.6504 4.35611 34.9466 3.95947L40.4592 32.5403C42.689 32.7933 44.9834 33.1522 47.2897 33.5935ZM39.9238 15.6201L40.9181 15.0318L38.4648 13.6198L38.8707 13.4786L37.9 11.7136L39.9062 11.6783L39.8238 11.2547L42.3242 12.6961V9.81332L42.6478 10.0957L43.6362 8.3778L44.6246 10.0957L44.9481 9.81332V12.6961L47.4309 11.2724L47.3485 11.696L49.3547 11.7313L48.384 13.4962L48.7899 13.6374L46.3366 15.0494L47.3309 15.6377L46.9249 15.7789L47.8956 17.5439L45.8895 17.5851L45.9718 18.0087L44.0774 16.9144V20.6267H43.1773V16.885L41.2829 17.9793L41.3652 17.5557L39.359 17.5145L40.3298 15.7495L39.9238 15.6201Z" fill="#005596"/>
<path d="M53.9024 35.982L52.4316 35.5878H52.2787C50.5843 35.1642 48.8664 34.7818 47.1661 34.4523C44.9364 33.9993 42.7242 33.6581 40.618 33.411C40.671 33.7875 40.9887 35.5643 41.0534 35.9408C42.8654 36.1703 44.7363 36.4644 46.6307 36.8233H46.719C47.2426 36.9233 47.7897 37.0351 48.3781 37.1586L48.684 37.2234L50.2136 37.5646H50.2607L51.7962 37.9294L52.2081 38.0353L53.3318 38.3235H53.3788H53.473H53.5259C55.5792 38.8707 57.5736 39.4649 59.4562 40.0885H59.5268C59.668 39.2884 59.7916 38.4941 59.8975 37.7352H59.821C57.9442 37.141 55.938 36.535 53.9024 35.982Z" fill="#005596"/>
<path d="M33.5993 32.0579C33.0522 32.0579 32.5227 32.0579 31.9755 32.0579C31.4284 32.0579 30.9224 32.0579 30.4106 32.0579L30.2341 32.9051C30.793 32.9051 31.4107 32.9051 31.999 32.9051C32.5874 32.9051 33.1757 32.9051 33.764 32.9051C33.764 32.9051 33.6052 32.0579 33.5993 32.0579Z" fill="#FFCF01"/>
<path d="M23.5801 32.5286C21.3739 32.7757 19.0853 33.1169 16.7731 33.5699C14.5081 34.0053 12.2254 34.5289 9.98386 35.1231C7.92472 35.6702 5.91265 36.2997 4.00647 36.9234C4.00647 36.9234 4.00647 36.9704 4.00647 36.9998C4.03589 37.2293 4.0653 37.4587 4.09472 37.6882V37.7588H4.13002C6.02443 37.1175 8.04239 36.5056 10.1309 35.9526C12.3548 35.3643 14.6199 34.8407 16.8732 34.4112C19.1264 33.9817 21.3091 33.6464 23.433 33.3993L23.6036 32.5286H23.5801Z" fill="#FFCF01"/>
<path d="M4.01825 36.9999L4.11238 37.6823C4.0712 37.4588 4.04767 37.2293 4.01825 36.9999Z" fill="#FFCF01"/>
<path d="M54.0789 35.1583C51.8374 34.57 49.5547 34.0287 47.2955 33.5934C44.9893 33.1462 42.6948 32.7932 40.4886 32.5461V32.6226L40.6239 33.3404C40.6208 33.3658 40.6208 33.3915 40.6239 33.4169C42.736 33.664 44.9422 34.0052 47.1661 34.4406C48.8664 34.77 50.5843 35.1524 52.2786 35.576L52.4316 35.6172L53.8848 35.9937C55.938 36.5468 57.9442 37.1704 59.8445 37.794H59.921C59.921 37.6822 59.9622 37.5646 59.9739 37.4528C59.9857 37.341 60.0092 37.1645 60.0269 37.0233V36.9527C58.1325 36.3173 56.1322 35.7113 54.0789 35.1583Z" fill="#FFCF01"/>
<path d="M21.668 42.6124C16.3372 43.3865 11.0993 44.7034 6.03621 46.5424L5.9715 46.5777L6.21859 47.4073C7.39525 46.9602 9.38379 46.2777 11.8901 45.5717C14.061 44.9834 16.3025 44.4362 18.544 44.0126C19.5795 43.8185 20.5502 43.6538 21.4857 43.5067L21.6798 42.6183L21.668 42.6124Z" fill="#FFCF01"/>
<path d="M57.9501 46.5718C56.1851 45.9306 54.3319 45.3246 52.3963 44.7774L52.108 44.6951L50.9314 44.3715L50.749 44.3244C50.2489 44.195 49.7018 44.0597 49.0782 43.9126L48.6075 43.8244C48.0192 43.6832 47.4309 43.5655 46.9131 43.4537L46.6249 43.3949L46.1777 43.3066L45.6659 43.189H45.5953C44.4186 42.9654 43.4067 42.7889 42.436 42.6477V42.7242L42.5772 43.4537V43.5302C43.5361 43.6773 44.501 43.842 45.5188 44.0362C47.7544 44.4656 49.996 44.9951 52.1669 45.607C54.1201 46.16 56.0204 46.7836 57.8148 47.4426V47.372C57.8854 47.1484 57.9501 46.9248 58.0148 46.6954V46.6248L57.9501 46.5718Z" fill="#FFCF01"/>
<path d="M57.856 47.3543L58.056 46.6777C57.9913 46.9013 57.9207 47.1307 57.856 47.3543Z" fill="#FFCF01"/>
<path d="M35.6055 41.9535C34.3053 41.8829 33.1169 41.8535 31.9814 41.8535C30.8459 41.8535 29.7222 41.8888 28.422 41.9535L28.2632 42.8066C29.5987 42.7301 30.8224 42.6948 31.9991 42.6948C33.1757 42.6948 34.4053 42.7301 35.7349 42.8066L35.6055 41.9535Z" fill="#FFCF01"/>
<path d="M35.6172 42.03L35.7467 42.6831L35.6231 42.03H35.6172Z" fill="#FFCF01"/>
<path d="M34.3112 35.3877C33.4757 35.3877 32.7286 35.3466 32.0167 35.3466C31.3048 35.3466 30.5459 35.3466 29.7163 35.3877L29.5457 36.2408H29.5928C30.5165 36.2055 31.2872 36.1879 32.0167 36.1879C32.7462 36.1879 33.5052 36.1879 34.4288 36.2349H34.4877L34.3112 35.3877Z" fill="#FFCF01"/>
<path d="M22.9329 35.9349C21.168 36.1585 19.2853 36.4527 17.4027 36.8115H17.3262L15.6612 37.1469L15.3259 37.2175H15.2612L13.9433 37.5058L13.6786 37.5646C12.6667 37.794 11.6371 38.047 10.6134 38.3177H10.5428C8.47189 38.8648 6.36569 39.4943 4.46539 40.1238V40.2003L4.58894 40.9122V41.0004C6.70691 40.2944 8.70722 39.6943 10.6663 39.1766C11.6959 38.906 12.7608 38.6412 13.8257 38.3941H13.9198L15.52 38.0411H15.6201C16.2084 37.9117 16.7967 37.794 17.385 37.6881C19.1853 37.3469 20.9738 37.0528 22.68 36.8292V36.7527L22.8212 36.0232V35.9467L22.9329 35.9349Z" fill="#FFCF01"/>
<path d="M22.9447 36.0114L22.8035 36.7409L22.9447 36.0114Z" fill="#FFCF01"/>
<path d="M4.48303 40.2356C4.52422 40.4651 4.55951 40.6886 4.61246 40.9416L4.48303 40.2297V40.2356Z" fill="#FFCF01"/>
<path d="M59.4739 40.1709C57.5912 39.5414 55.5968 38.9472 53.5436 38.4059H53.4906H53.3965H53.3494L52.2257 38.1176L51.8139 38.0117L50.2783 37.647H50.2313L48.7016 37.3057L48.3957 37.241C47.8074 37.1175 47.2602 37.0057 46.7366 36.9057H46.6484C44.7598 36.5468 42.8831 36.2468 41.071 36.0232V36.0997L41.2064 36.7645V36.841H41.2475C43.0125 37.0645 44.7775 37.3587 46.5954 37.6999L48.2663 38.0353L48.5604 38.1L50.0136 38.4236L50.1489 38.453C51.1903 38.6942 52.2492 38.9589 53.2906 39.2355C55.3438 39.7826 57.3618 40.3827 59.2856 41.0004L59.3856 41.0298V40.9592C59.4268 40.7298 59.468 40.5004 59.5092 40.265V40.1944L59.4739 40.1709Z" fill="#FFCF01"/>
<path d="M59.4209 40.9592L59.5386 40.265C59.4974 40.4945 59.4562 40.7298 59.415 40.9592H59.4209Z" fill="#FFCF01"/>
<path d="M34.9583 38.6706C33.8287 38.6176 32.8933 38.5941 32.0167 38.5941C31.1401 38.5941 30.2164 38.5941 29.075 38.6706V38.7471L28.9338 39.4531V39.5296C30.1105 39.4707 31.1048 39.4413 32.0343 39.4413C32.9639 39.4413 33.9287 39.4413 35.1054 39.5296H35.1407L34.9583 38.6706Z" fill="#FFCF01"/>
<path d="M22.2799 39.3178C20.862 39.5237 19.3794 39.7767 17.8733 40.0826C17.3203 40.1944 16.7614 40.312 16.1554 40.4474H16.0554C15.52 40.565 14.9788 40.6944 14.4375 40.8239H14.3316L12.7725 41.2181H12.7019L11.1841 41.6299C9.13668 42.2182 7.06577 42.8654 5.20667 43.5361C5.25961 43.7714 5.31256 44.0126 5.3714 44.2479V44.295V44.3656C7.25992 43.6831 9.26023 43.0478 11.3076 42.4712C12.8961 42.0241 14.5199 41.6122 16.1319 41.2475L16.326 41.2063L17.8792 40.8768C19.3206 40.5827 20.7444 40.3356 22.1152 40.1297L22.2799 39.2531V39.3178Z" fill="#FFCF01"/>
<path d="M58.7385 43.5891C56.8558 42.9184 54.8849 42.2889 52.8905 41.7241C50.6608 41.0946 48.4075 40.5474 46.1895 40.1003H46.1012C44.6069 39.8003 43.1949 39.5532 41.7888 39.3531H41.7006V39.4296L41.8418 40.1533V40.2298H41.8771C43.2243 40.4298 44.6187 40.6769 46.0248 40.9593C47.2014 41.1946 48.3781 41.4594 49.5135 41.7418L51.1197 42.1536H51.1491L52.6728 42.5713C54.6378 43.1302 56.5852 43.7479 58.462 44.4245L58.5914 44.4716V44.401C58.6443 44.1774 58.6973 43.948 58.7502 43.7244V43.6538L58.7385 43.5891Z" fill="#FFCF01"/>
<path d="M24.592 16.1731C24.592 16.1731 25.5745 15.2494 25.5745 14.3551C25.5745 12.3254 24.4861 12.4666 24.0096 12.4666C22.9212 12.4666 21.4386 14.161 21.4386 14.161C21.6033 13.7904 21.8857 13.1314 21.9681 12.9255C22.0034 12.8431 22.0446 12.7372 22.0916 12.6255C22.3297 12.0311 22.3443 11.3707 22.1328 10.7664C21.8798 9.98388 21.3386 9.64854 20.8973 9.1014C20.4561 8.55425 20.2443 8.33069 20.2443 8.33069C20.2443 8.33069 20.0737 8.52484 19.5971 9.11316C19.1206 9.70149 18.6146 9.99565 18.3616 10.7781C18.1529 11.3857 18.1717 12.0484 18.4146 12.6431C18.4558 12.7608 18.5028 12.8608 18.5381 12.9432C18.6205 13.1491 18.9029 13.808 19.0676 14.1786C19.0676 14.1786 17.5851 12.4843 16.4966 12.4843C16.026 12.4843 14.9317 12.349 14.9317 14.3728C14.9317 15.2671 15.9142 16.1907 15.9142 16.1907C15.9142 16.1907 16.0554 15.4612 17.1262 15.4612C17.8616 15.4612 18.3616 16.2319 18.3616 17.1026C18.3616 17.8145 18.2146 18.4146 18.0381 18.4911C18.3847 18.7261 18.7185 18.9795 19.0382 19.25C19.2618 19.4736 20.2502 20.6679 20.2502 20.6679C20.2502 20.6679 21.2386 19.4912 21.4621 19.25C21.7841 18.9798 22.1199 18.7264 22.4682 18.4911C22.2917 18.4146 22.1446 17.8204 22.1446 17.1026C22.1446 16.2378 22.6447 15.4612 23.3801 15.4612C24.4449 15.4553 24.592 16.1731 24.592 16.1731Z" fill="#FFCF01"/>
<path d="M32.5815 66.5396C32.5562 66.7395 32.5741 66.9425 32.6341 67.1349C32.6941 67.3273 32.7947 67.5045 32.9292 67.6546C33.0637 67.8047 33.2288 67.9241 33.4134 68.0048C33.5981 68.0855 33.7979 68.1255 33.9994 68.1222C35.0054 68.1222 37.5293 67.1456 37.7235 63.2274C37.8706 60.3622 37.0351 59.6033 37.0351 59.6033L35.4937 62.4155C35.4937 66.4573 32.5815 66.5396 32.5815 66.5396Z" fill="#FFCF01"/>
<path d="M28.5044 62.4213L26.963 59.6091C26.963 59.6091 26.1335 60.3681 26.2511 63.2391C26.4511 67.1574 28.9692 68.134 29.9693 68.134C30.1705 68.1363 30.3699 68.0956 30.5541 68.0146C30.7382 67.9336 30.903 67.8141 31.0372 67.6643C31.1715 67.5144 31.2722 67.3376 31.3325 67.1457C31.3929 66.9537 31.4115 66.7511 31.3872 66.5514C31.3872 66.5514 28.5044 66.4572 28.5044 62.4213Z" fill="#FFCF01"/>
<path d="M33.6051 62.9333C33.5658 61.5882 33.7223 60.2445 34.0699 58.9444C34.317 58.0619 35.8349 57.1324 35.8349 57.1324C34.317 55.4439 32.9874 57.7207 33.0462 57.4501C33.0747 56.795 32.9498 56.1422 32.6815 55.5439C32.5016 55.1745 32.2827 54.8254 32.0284 54.5026C31.7763 54.8257 31.5594 55.1748 31.3813 55.5439C31.1134 56.1424 30.9885 56.795 31.0165 57.4501C31.0695 57.7325 29.7457 55.4439 28.2278 57.1324C28.2278 57.1324 29.7222 58.0619 29.9928 58.9444C30.3412 60.2443 30.4978 61.5881 30.4576 62.9333C30.4576 64.5041 31.2871 64.9218 31.6695 65.0924V69.2637H32.3814V65.1454C32.6579 65.0042 33.6287 64.6159 33.6051 62.9333Z" fill="#FFCF01"/>
<path d="M41.3711 17.5556L41.2887 17.9792L43.1831 16.8849V20.5973H43.6126H43.6655H44.1009V16.8849L45.9953 17.9792L45.9071 17.5556L47.9191 17.5144L46.9484 15.7612L47.3543 15.62L46.3601 15.0494L48.8134 13.6315L48.4074 13.4962L49.3782 11.7371L47.372 11.6959L47.4544 11.2723L44.954 12.7137V9.8309L44.6304 10.1133L43.642 8.39539L42.6536 10.1133L42.3242 9.8309V12.7137L39.8296 11.2723L39.912 11.6959L37.9058 11.7371L38.8707 13.4962L38.4647 13.6315L40.9181 15.0494L39.9238 15.62L40.3356 15.7612L39.3649 17.5144L41.3711 17.5556Z" fill="#FFCF01"/>
</svg>
